<mxfile host="app.diagrams.net" modified="2020-08-21T10:22:03.894Z" agent="5.0 (Windows NT 10.0; Win64; x64) AppleWebKit/537.36 (KHTML, like Gecko) Chrome/84.0.4147.135 Safari/537.36" etag="N7Ugn9hfxMLIdLXEQkZc" version="13.6.4" type="github" pages="12">
  <diagram id="AfJUWFeUKQRLEL0DpcnL" name="Page-1">
    <mxGraphModel dx="1038" dy="580" grid="1" gridSize="10" guides="1" tooltips="1" connect="1" arrows="1" fold="1" page="1" pageScale="1" pageWidth="827" pageHeight="1169" math="0" shadow="0">
      <root>
        <mxCell id="0" />
        <mxCell id="1" parent="0" />
        <mxCell id="h9wQwUNg50fBDHVduzq_-21" value="&lt;br style=&quot;font-size: 16px;&quot;&gt;&lt;br style=&quot;font-size: 16px;&quot;&gt;普通白领&lt;br style=&quot;font-size: 16px;&quot;&gt;候选人&lt;br style=&quot;font-size: 16px;&quot;&gt;HR/猎头&lt;br style=&quot;font-size: 16px;&quot;&gt;高端人士" style="rounded=1;whiteSpace=wrap;html=1;fontSize=16;" parent="1" vertex="1">
          <mxGeometry x="100" y="220" width="130" height="130" as="geometry" />
        </mxCell>
        <mxCell id="h9wQwUNg50fBDHVduzq_-20" value="&lt;br style=&quot;font-size: 16px&quot;&gt;&lt;br style=&quot;font-size: 16px&quot;&gt;上市公司&lt;br style=&quot;font-size: 16px&quot;&gt;独角兽&lt;br style=&quot;font-size: 16px&quot;&gt;世界500强&lt;br style=&quot;font-size: 16px&quot;&gt;。。。" style="rounded=1;whiteSpace=wrap;html=1;fontSize=16;" parent="1" vertex="1">
          <mxGeometry x="635.5" y="220" width="130" height="130" as="geometry" />
        </mxCell>
        <mxCell id="h9wQwUNg50fBDHVduzq_-5" value="&lt;br style=&quot;font-size: 16px;&quot;&gt;&lt;br style=&quot;font-size: 16px;&quot;&gt;&lt;font style=&quot;font-size: 16px;&quot;&gt;AI人岗匹配&lt;/font&gt;&lt;br style=&quot;font-size: 16px;&quot;&gt;优质岗位&lt;br style=&quot;font-size: 16px;&quot;&gt;海量人才" style="rounded=1;whiteSpace=wrap;html=1;fontSize=16;" parent="1" vertex="1">
          <mxGeometry x="360" y="220" width="130" height="130" as="geometry" />
        </mxCell>
        <mxCell id="h9wQwUNg50fBDHVduzq_-1" value="企业" style="rounded=1;whiteSpace=wrap;html=1;fillColor=#d5e8d4;strokeColor=#82b366;fontSize=20;" parent="1" vertex="1">
          <mxGeometry x="635.5" y="220" width="130" height="40" as="geometry" />
        </mxCell>
        <mxCell id="h9wQwUNg50fBDHVduzq_-2" value="优脉平台" style="rounded=1;whiteSpace=wrap;html=1;fillColor=#ffe6cc;strokeColor=#d79b00;fontSize=20;" parent="1" vertex="1">
          <mxGeometry x="360" y="220" width="130" height="40" as="geometry" />
        </mxCell>
        <mxCell id="h9wQwUNg50fBDHVduzq_-3" style="edgeStyle=orthogonalEdgeStyle;rounded=0;orthogonalLoop=1;jettySize=auto;html=1;exitX=0.5;exitY=1;exitDx=0;exitDy=0;" parent="1" source="h9wQwUNg50fBDHVduzq_-2" target="h9wQwUNg50fBDHVduzq_-2" edge="1">
          <mxGeometry relative="1" as="geometry" />
        </mxCell>
        <mxCell id="h9wQwUNg50fBDHVduzq_-4" value="保荐人" style="rounded=1;whiteSpace=wrap;html=1;fillColor=#dae8fc;strokeColor=#6c8ebf;fontSize=20;" parent="1" vertex="1">
          <mxGeometry x="100" y="220" width="130" height="40" as="geometry" />
        </mxCell>
        <mxCell id="h9wQwUNg50fBDHVduzq_-6" value="" style="endArrow=classic;html=1;entryX=0;entryY=0.75;entryDx=0;entryDy=0;exitX=1;exitY=0.75;exitDx=0;exitDy=0;" parent="1" source="h9wQwUNg50fBDHVduzq_-4" target="h9wQwUNg50fBDHVduzq_-2" edge="1">
          <mxGeometry width="50" height="50" relative="1" as="geometry">
            <mxPoint x="441" y="100" as="sourcePoint" />
            <mxPoint x="391" y="150" as="targetPoint" />
          </mxGeometry>
        </mxCell>
        <mxCell id="h9wQwUNg50fBDHVduzq_-7" value="提供人脉" style="edgeLabel;html=1;align=center;verticalAlign=middle;resizable=0;points=[];fontSize=16;" parent="h9wQwUNg50fBDHVduzq_-6" vertex="1" connectable="0">
          <mxGeometry x="-0.0924" y="-2" relative="1" as="geometry">
            <mxPoint x="-0.8299999999999983" y="11" as="offset" />
          </mxGeometry>
        </mxCell>
        <mxCell id="h9wQwUNg50fBDHVduzq_-9" value="" style="endArrow=classic;html=1;exitX=0;exitY=0.25;exitDx=0;exitDy=0;entryX=1;entryY=0.25;entryDx=0;entryDy=0;" parent="1" source="h9wQwUNg50fBDHVduzq_-2" target="h9wQwUNg50fBDHVduzq_-4" edge="1">
          <mxGeometry width="50" height="50" relative="1" as="geometry">
            <mxPoint x="211" y="130" as="sourcePoint" />
            <mxPoint x="241" y="100" as="targetPoint" />
          </mxGeometry>
        </mxCell>
        <mxCell id="h9wQwUNg50fBDHVduzq_-10" value="奖励提成" style="edgeLabel;html=1;align=center;verticalAlign=middle;resizable=0;points=[];fontSize=16;" parent="h9wQwUNg50fBDHVduzq_-9" vertex="1" connectable="0">
          <mxGeometry x="-0.0924" y="-2" relative="1" as="geometry">
            <mxPoint x="-13.170000000000002" y="-12" as="offset" />
          </mxGeometry>
        </mxCell>
        <mxCell id="h9wQwUNg50fBDHVduzq_-11" value="" style="endArrow=classic;html=1;entryX=1;entryY=0.25;entryDx=0;entryDy=0;exitX=0;exitY=0.25;exitDx=0;exitDy=0;" parent="1" source="h9wQwUNg50fBDHVduzq_-1" target="h9wQwUNg50fBDHVduzq_-2" edge="1">
          <mxGeometry width="50" height="50" relative="1" as="geometry">
            <mxPoint x="431" y="240" as="sourcePoint" />
            <mxPoint x="481" y="190" as="targetPoint" />
          </mxGeometry>
        </mxCell>
        <mxCell id="h9wQwUNg50fBDHVduzq_-14" value="提供岗位/费用" style="edgeLabel;html=1;align=center;verticalAlign=middle;resizable=0;points=[];fontSize=16;" parent="h9wQwUNg50fBDHVduzq_-11" vertex="1" connectable="0">
          <mxGeometry x="-0.0957" y="1" relative="1" as="geometry">
            <mxPoint x="-2" y="-15" as="offset" />
          </mxGeometry>
        </mxCell>
        <mxCell id="h9wQwUNg50fBDHVduzq_-13" value="" style="endArrow=classic;html=1;exitX=1;exitY=0.75;exitDx=0;exitDy=0;entryX=0;entryY=0.75;entryDx=0;entryDy=0;" parent="1" source="h9wQwUNg50fBDHVduzq_-2" target="h9wQwUNg50fBDHVduzq_-1" edge="1">
          <mxGeometry width="50" height="50" relative="1" as="geometry">
            <mxPoint x="601" y="240" as="sourcePoint" />
            <mxPoint x="761" y="340" as="targetPoint" />
          </mxGeometry>
        </mxCell>
        <mxCell id="h9wQwUNg50fBDHVduzq_-15" value="推荐合适人才" style="edgeLabel;html=1;align=center;verticalAlign=middle;resizable=0;points=[];fontSize=16;" parent="1" vertex="1" connectable="0">
          <mxGeometry x="519.5" y="266" as="geometry">
            <mxPoint x="44" y="-3" as="offset" />
          </mxGeometry>
        </mxCell>
        <mxCell id="h9wQwUNg50fBDHVduzq_-17" value="中高端职场人脉变现平台" style="rounded=1;whiteSpace=wrap;html=1;fillColor=#ffe6cc;strokeColor=#d79b00;fontSize=24;" parent="1" vertex="1">
          <mxGeometry x="275" y="100" width="290" height="50" as="geometry" />
        </mxCell>
      </root>
    </mxGraphModel>
  </diagram>
  <diagram id="yqE-IBTLMqfZSUJPqmRb" name="Page-2">
    <mxGraphModel dx="1038" dy="580" grid="1" gridSize="10" guides="1" tooltips="1" connect="1" arrows="1" fold="1" page="1" pageScale="1" pageWidth="827" pageHeight="1169" math="0" shadow="0">
      <root>
        <mxCell id="9QmTfOKSXmaQab4Yfs6S-0" />
        <mxCell id="9QmTfOKSXmaQab4Yfs6S-1" parent="9QmTfOKSXmaQab4Yfs6S-0" />
        <mxCell id="uIzywJBoXH-yVl3UjP89-3" value="企业" style="rounded=1;whiteSpace=wrap;html=1;fillColor=#d5e8d4;strokeColor=#82b366;fontSize=20;" parent="9QmTfOKSXmaQab4Yfs6S-1" vertex="1">
          <mxGeometry x="635.5" y="220" width="130" height="90" as="geometry" />
        </mxCell>
        <mxCell id="uIzywJBoXH-yVl3UjP89-4" value="优脉平台" style="rounded=1;whiteSpace=wrap;html=1;fillColor=#ffe6cc;strokeColor=#d79b00;fontSize=20;" parent="9QmTfOKSXmaQab4Yfs6S-1" vertex="1">
          <mxGeometry x="360" y="220" width="130" height="90" as="geometry" />
        </mxCell>
        <mxCell id="uIzywJBoXH-yVl3UjP89-5" style="edgeStyle=orthogonalEdgeStyle;rounded=0;orthogonalLoop=1;jettySize=auto;html=1;exitX=0.5;exitY=1;exitDx=0;exitDy=0;" parent="9QmTfOKSXmaQab4Yfs6S-1" source="uIzywJBoXH-yVl3UjP89-4" target="uIzywJBoXH-yVl3UjP89-4" edge="1">
          <mxGeometry relative="1" as="geometry" />
        </mxCell>
        <mxCell id="uIzywJBoXH-yVl3UjP89-6" value="保荐人" style="rounded=1;whiteSpace=wrap;html=1;fillColor=#dae8fc;strokeColor=#6c8ebf;fontSize=20;" parent="9QmTfOKSXmaQab4Yfs6S-1" vertex="1">
          <mxGeometry x="100" y="220" width="130" height="90" as="geometry" />
        </mxCell>
        <mxCell id="uIzywJBoXH-yVl3UjP89-7" value="" style="endArrow=classic;html=1;entryX=0;entryY=0.75;entryDx=0;entryDy=0;exitX=1;exitY=0.75;exitDx=0;exitDy=0;" parent="9QmTfOKSXmaQab4Yfs6S-1" source="uIzywJBoXH-yVl3UjP89-6" target="uIzywJBoXH-yVl3UjP89-4" edge="1">
          <mxGeometry width="50" height="50" relative="1" as="geometry">
            <mxPoint x="441" y="100" as="sourcePoint" />
            <mxPoint x="391" y="150" as="targetPoint" />
          </mxGeometry>
        </mxCell>
        <mxCell id="uIzywJBoXH-yVl3UjP89-8" value="人才" style="edgeLabel;html=1;align=center;verticalAlign=middle;resizable=0;points=[];fontSize=16;" parent="uIzywJBoXH-yVl3UjP89-7" vertex="1" connectable="0">
          <mxGeometry x="-0.0924" y="-2" relative="1" as="geometry">
            <mxPoint x="-0.8299999999999983" y="11" as="offset" />
          </mxGeometry>
        </mxCell>
        <mxCell id="uIzywJBoXH-yVl3UjP89-9" value="" style="endArrow=classic;html=1;exitX=0;exitY=0.25;exitDx=0;exitDy=0;entryX=1;entryY=0.25;entryDx=0;entryDy=0;" parent="9QmTfOKSXmaQab4Yfs6S-1" source="uIzywJBoXH-yVl3UjP89-4" target="uIzywJBoXH-yVl3UjP89-6" edge="1">
          <mxGeometry width="50" height="50" relative="1" as="geometry">
            <mxPoint x="211" y="130" as="sourcePoint" />
            <mxPoint x="241" y="100" as="targetPoint" />
          </mxGeometry>
        </mxCell>
        <mxCell id="uIzywJBoXH-yVl3UjP89-10" value="奖金" style="edgeLabel;html=1;align=center;verticalAlign=middle;resizable=0;points=[];fontSize=16;" parent="uIzywJBoXH-yVl3UjP89-9" vertex="1" connectable="0">
          <mxGeometry x="-0.0924" y="-2" relative="1" as="geometry">
            <mxPoint x="-13.170000000000002" y="-12" as="offset" />
          </mxGeometry>
        </mxCell>
        <mxCell id="uIzywJBoXH-yVl3UjP89-11" value="" style="endArrow=classic;html=1;entryX=1;entryY=0.25;entryDx=0;entryDy=0;exitX=0;exitY=0.25;exitDx=0;exitDy=0;" parent="9QmTfOKSXmaQab4Yfs6S-1" source="uIzywJBoXH-yVl3UjP89-3" target="uIzywJBoXH-yVl3UjP89-4" edge="1">
          <mxGeometry width="50" height="50" relative="1" as="geometry">
            <mxPoint x="431" y="240" as="sourcePoint" />
            <mxPoint x="481" y="190" as="targetPoint" />
          </mxGeometry>
        </mxCell>
        <mxCell id="uIzywJBoXH-yVl3UjP89-12" value="岗位/费用" style="edgeLabel;html=1;align=center;verticalAlign=middle;resizable=0;points=[];fontSize=16;" parent="uIzywJBoXH-yVl3UjP89-11" vertex="1" connectable="0">
          <mxGeometry x="-0.0957" y="1" relative="1" as="geometry">
            <mxPoint x="-2" y="-17" as="offset" />
          </mxGeometry>
        </mxCell>
        <mxCell id="uIzywJBoXH-yVl3UjP89-13" value="" style="endArrow=classic;html=1;exitX=1;exitY=0.75;exitDx=0;exitDy=0;entryX=0;entryY=0.75;entryDx=0;entryDy=0;" parent="9QmTfOKSXmaQab4Yfs6S-1" source="uIzywJBoXH-yVl3UjP89-4" target="uIzywJBoXH-yVl3UjP89-3" edge="1">
          <mxGeometry width="50" height="50" relative="1" as="geometry">
            <mxPoint x="601" y="240" as="sourcePoint" />
            <mxPoint x="761" y="340" as="targetPoint" />
          </mxGeometry>
        </mxCell>
        <mxCell id="uIzywJBoXH-yVl3UjP89-14" value="推荐人才" style="edgeLabel;html=1;align=center;verticalAlign=middle;resizable=0;points=[];fontSize=16;" parent="9QmTfOKSXmaQab4Yfs6S-1" vertex="1" connectable="0">
          <mxGeometry x="519.5" y="306" as="geometry">
            <mxPoint x="44" y="-3" as="offset" />
          </mxGeometry>
        </mxCell>
        <mxCell id="uIzywJBoXH-yVl3UjP89-15" value="职场人脉变现平台" style="rounded=1;whiteSpace=wrap;html=1;fillColor=#ffe6cc;strokeColor=#d79b00;fontSize=24;" parent="9QmTfOKSXmaQab4Yfs6S-1" vertex="1">
          <mxGeometry x="280" y="90" width="290" height="50" as="geometry" />
        </mxCell>
      </root>
    </mxGraphModel>
  </diagram>
  <diagram id="mKpdXHb0VZZ4JsBVd4tk" name="登录/注册逻辑">
    
    <mxGraphModel dx="946" dy="565" grid="1" gridSize="10" guides="1" tooltips="1" connect="1" arrows="1" fold="1" page="1" pageScale="1" pageWidth="827" pageHeight="1169" math="0" shadow="0">
      
      <root>
        
        <mxCell id="xjFqeEsH3vGoh6xCr9qv-0" />
        
        <mxCell id="xjFqeEsH3vGoh6xCr9qv-1" parent="xjFqeEsH3vGoh6xCr9qv-0" />
        
        <mxCell id="xjFqeEsH3vGoh6xCr9qv-5" value="" style="edgeStyle=orthogonalEdgeStyle;rounded=0;orthogonalLoop=1;jettySize=auto;html=1;fontSize=14;" edge="1" parent="xjFqeEsH3vGoh6xCr9qv-1" source="xjFqeEsH3vGoh6xCr9qv-2" target="xjFqeEsH3vGoh6xCr9qv-3">
          
          <mxGeometry relative="1" as="geometry" />
          
        </mxCell>
        
        <mxCell id="xjFqeEsH3vGoh6xCr9qv-2" value="登录小程序" style="rounded=0;whiteSpace=wrap;html=1;fontSize=14;" vertex="1" parent="xjFqeEsH3vGoh6xCr9qv-1">
          
          <mxGeometry x="310" y="80" width="100" height="40" as="geometry" />
          
        </mxCell>
        
        <mxCell id="xjFqeEsH3vGoh6xCr9qv-6" value="" style="edgeStyle=orthogonalEdgeStyle;rounded=0;orthogonalLoop=1;jettySize=auto;html=1;fontSize=14;" edge="1" parent="xjFqeEsH3vGoh6xCr9qv-1" source="xjFqeEsH3vGoh6xCr9qv-3" target="xjFqeEsH3vGoh6xCr9qv-4">
          
          <mxGeometry relative="1" as="geometry" />
          
        </mxCell>
        
        <mxCell id="xjFqeEsH3vGoh6xCr9qv-7" value="N" style="edgeLabel;html=1;align=center;verticalAlign=middle;resizable=0;points=[];fontSize=14;" vertex="1" connectable="0" parent="xjFqeEsH3vGoh6xCr9qv-6">
          
          <mxGeometry x="0.32" y="3" relative="1" as="geometry">
            
            <mxPoint x="3" y="-6" as="offset" />
            
          </mxGeometry>
          
        </mxCell>
        
        <mxCell id="xjFqeEsH3vGoh6xCr9qv-9" value="" style="edgeStyle=orthogonalEdgeStyle;rounded=0;orthogonalLoop=1;jettySize=auto;html=1;fontSize=14;entryX=0;entryY=0.5;entryDx=0;entryDy=0;exitX=0;exitY=0.5;exitDx=0;exitDy=0;" edge="1" parent="xjFqeEsH3vGoh6xCr9qv-1" source="xjFqeEsH3vGoh6xCr9qv-3" target="xjFqeEsH3vGoh6xCr9qv-23">
          
          <mxGeometry relative="1" as="geometry">
            
            <mxPoint x="490" y="195" as="targetPoint" />
            
            <Array as="points">
              
              <mxPoint x="200" y="195" />
              
              <mxPoint x="200" y="618" />
              
            </Array>
            
          </mxGeometry>
          
        </mxCell>
        
        <mxCell id="xjFqeEsH3vGoh6xCr9qv-10" value="Y" style="edgeLabel;html=1;align=center;verticalAlign=middle;resizable=0;points=[];fontSize=14;" vertex="1" connectable="0" parent="xjFqeEsH3vGoh6xCr9qv-9">
          
          <mxGeometry x="0.1333" y="-4" relative="1" as="geometry">
            
            <mxPoint y="11" as="offset" />
            
          </mxGeometry>
          
        </mxCell>
        
        <mxCell id="xjFqeEsH3vGoh6xCr9qv-3" value="首次登录" style="rhombus;whiteSpace=wrap;html=1;fontSize=14;" vertex="1" parent="xjFqeEsH3vGoh6xCr9qv-1">
          
          <mxGeometry x="320" y="160" width="80" height="70" as="geometry" />
          
        </mxCell>
        
        <mxCell id="xjFqeEsH3vGoh6xCr9qv-14" value="" style="edgeStyle=orthogonalEdgeStyle;rounded=0;orthogonalLoop=1;jettySize=auto;html=1;fontSize=14;" edge="1" parent="xjFqeEsH3vGoh6xCr9qv-1" source="xjFqeEsH3vGoh6xCr9qv-4" target="xjFqeEsH3vGoh6xCr9qv-12">
          
          <mxGeometry relative="1" as="geometry" />
          
        </mxCell>
        
        <mxCell id="xjFqeEsH3vGoh6xCr9qv-16" value="" style="edgeStyle=orthogonalEdgeStyle;rounded=0;orthogonalLoop=1;jettySize=auto;html=1;fontSize=14;entryX=0.5;entryY=0;entryDx=0;entryDy=0;" edge="1" parent="xjFqeEsH3vGoh6xCr9qv-1" source="xjFqeEsH3vGoh6xCr9qv-4" target="xjFqeEsH3vGoh6xCr9qv-13">
          
          <mxGeometry relative="1" as="geometry">
            
            <mxPoint x="480" y="300" as="targetPoint" />
            
          </mxGeometry>
          
        </mxCell>
        
        <mxCell id="xjFqeEsH3vGoh6xCr9qv-4" value="登录" style="rounded=0;whiteSpace=wrap;html=1;fontSize=14;spacing=0;" vertex="1" parent="xjFqeEsH3vGoh6xCr9qv-1">
          
          <mxGeometry x="310" y="280" width="100" height="40" as="geometry" />
          
        </mxCell>
        
        <mxCell id="xjFqeEsH3vGoh6xCr9qv-18" value="" style="edgeStyle=orthogonalEdgeStyle;rounded=0;orthogonalLoop=1;jettySize=auto;html=1;fontSize=14;" edge="1" parent="xjFqeEsH3vGoh6xCr9qv-1" source="xjFqeEsH3vGoh6xCr9qv-12" target="xjFqeEsH3vGoh6xCr9qv-17">
          
          <mxGeometry relative="1" as="geometry" />
          
        </mxCell>
        
        <mxCell id="xjFqeEsH3vGoh6xCr9qv-12" value="微信快速登录" style="rounded=0;whiteSpace=wrap;html=1;fontSize=14;spacing=0;" vertex="1" parent="xjFqeEsH3vGoh6xCr9qv-1">
          
          <mxGeometry x="240" y="390" width="100" height="40" as="geometry" />
          
        </mxCell>
        
        <mxCell id="xjFqeEsH3vGoh6xCr9qv-20" value="" style="edgeStyle=orthogonalEdgeStyle;rounded=0;orthogonalLoop=1;jettySize=auto;html=1;fontSize=14;entryX=0.5;entryY=0;entryDx=0;entryDy=0;" edge="1" parent="xjFqeEsH3vGoh6xCr9qv-1" source="xjFqeEsH3vGoh6xCr9qv-13" target="xjFqeEsH3vGoh6xCr9qv-17">
          
          <mxGeometry relative="1" as="geometry">
            
            <mxPoint x="440" y="500" as="targetPoint" />
            
          </mxGeometry>
          
        </mxCell>
        
        <mxCell id="xjFqeEsH3vGoh6xCr9qv-13" value="手机号登录" style="rounded=0;whiteSpace=wrap;html=1;fontSize=14;spacing=0;" vertex="1" parent="xjFqeEsH3vGoh6xCr9qv-1">
          
          <mxGeometry x="390" y="390" width="100" height="40" as="geometry" />
          
        </mxCell>
        
        <mxCell id="xjFqeEsH3vGoh6xCr9qv-22" value="" style="edgeStyle=orthogonalEdgeStyle;rounded=0;orthogonalLoop=1;jettySize=auto;html=1;fontSize=14;" edge="1" parent="xjFqeEsH3vGoh6xCr9qv-1" source="xjFqeEsH3vGoh6xCr9qv-17" target="xjFqeEsH3vGoh6xCr9qv-21">
          
          <mxGeometry relative="1" as="geometry" />
          
        </mxCell>
        
        <mxCell id="xjFqeEsH3vGoh6xCr9qv-29" value="N" style="edgeLabel;html=1;align=center;verticalAlign=middle;resizable=0;points=[];fontSize=14;" vertex="1" connectable="0" parent="xjFqeEsH3vGoh6xCr9qv-22">
          
          <mxGeometry x="0.1556" y="-2" relative="1" as="geometry">
            
            <mxPoint as="offset" />
            
          </mxGeometry>
          
        </mxCell>
        
        <mxCell id="xjFqeEsH3vGoh6xCr9qv-24" value="" style="edgeStyle=orthogonalEdgeStyle;rounded=0;orthogonalLoop=1;jettySize=auto;html=1;fontSize=14;" edge="1" parent="xjFqeEsH3vGoh6xCr9qv-1" source="xjFqeEsH3vGoh6xCr9qv-17" target="xjFqeEsH3vGoh6xCr9qv-23">
          
          <mxGeometry relative="1" as="geometry" />
          
        </mxCell>
        
        <mxCell id="xjFqeEsH3vGoh6xCr9qv-30" value="Y" style="edgeLabel;html=1;align=center;verticalAlign=middle;resizable=0;points=[];fontSize=14;" vertex="1" connectable="0" parent="xjFqeEsH3vGoh6xCr9qv-24">
          
          <mxGeometry x="-0.32" y="-1" relative="1" as="geometry">
            
            <mxPoint as="offset" />
            
          </mxGeometry>
          
        </mxCell>
        
        <mxCell id="xjFqeEsH3vGoh6xCr9qv-17" value="是否注册" style="rhombus;whiteSpace=wrap;html=1;fontSize=14;" vertex="1" parent="xjFqeEsH3vGoh6xCr9qv-1">
          
          <mxGeometry x="320" y="480" width="80" height="70" as="geometry" />
          
        </mxCell>
        
        <mxCell id="xjFqeEsH3vGoh6xCr9qv-34" value="" style="edgeStyle=orthogonalEdgeStyle;rounded=0;orthogonalLoop=1;jettySize=auto;html=1;fontSize=14;entryX=1;entryY=0.5;entryDx=0;entryDy=0;exitX=0.5;exitY=1;exitDx=0;exitDy=0;" edge="1" parent="xjFqeEsH3vGoh6xCr9qv-1" source="xjFqeEsH3vGoh6xCr9qv-21" target="xjFqeEsH3vGoh6xCr9qv-23">
          
          <mxGeometry relative="1" as="geometry">
            
            <mxPoint x="540" y="605" as="targetPoint" />
            
          </mxGeometry>
          
        </mxCell>
        
        <mxCell id="xjFqeEsH3vGoh6xCr9qv-21" value="自动注册" style="rounded=0;whiteSpace=wrap;html=1;fontSize=14;spacing=0;" vertex="1" parent="xjFqeEsH3vGoh6xCr9qv-1">
          
          <mxGeometry x="490" y="495" width="100" height="40" as="geometry" />
          
        </mxCell>
        
        <mxCell id="xjFqeEsH3vGoh6xCr9qv-40" value="" style="edgeStyle=orthogonalEdgeStyle;rounded=0;orthogonalLoop=1;jettySize=auto;html=1;fontSize=14;" edge="1" parent="xjFqeEsH3vGoh6xCr9qv-1" source="xjFqeEsH3vGoh6xCr9qv-23">
          
          <mxGeometry relative="1" as="geometry">
            
            <mxPoint x="360" y="690" as="targetPoint" />
            
          </mxGeometry>
          
        </mxCell>
        
        <mxCell id="xjFqeEsH3vGoh6xCr9qv-23" value="正常操作" style="whiteSpace=wrap;html=1;fontSize=14;" vertex="1" parent="xjFqeEsH3vGoh6xCr9qv-1">
          
          <mxGeometry x="305" y="600" width="110" height="35" as="geometry" />
          
        </mxCell>
        
        <mxCell id="xjFqeEsH3vGoh6xCr9qv-26" style="edgeStyle=orthogonalEdgeStyle;rounded=0;orthogonalLoop=1;jettySize=auto;html=1;exitX=0.5;exitY=1;exitDx=0;exitDy=0;fontSize=14;" edge="1" parent="xjFqeEsH3vGoh6xCr9qv-1" source="xjFqeEsH3vGoh6xCr9qv-23" target="xjFqeEsH3vGoh6xCr9qv-23">
          
          <mxGeometry relative="1" as="geometry" />
          
        </mxCell>
        
        <mxCell id="xjFqeEsH3vGoh6xCr9qv-42" value="结束" style="rounded=1;whiteSpace=wrap;html=1;fontSize=14;" vertex="1" parent="xjFqeEsH3vGoh6xCr9qv-1">
          
          <mxGeometry x="305" y="690" width="105" height="40" as="geometry" />
          
        </mxCell>
        
        <mxCell id="xjFqeEsH3vGoh6xCr9qv-45" value="" style="edgeStyle=orthogonalEdgeStyle;rounded=0;orthogonalLoop=1;jettySize=auto;html=1;fontSize=14;" edge="1" parent="xjFqeEsH3vGoh6xCr9qv-1" source="xjFqeEsH3vGoh6xCr9qv-44" target="xjFqeEsH3vGoh6xCr9qv-2">
          
          <mxGeometry relative="1" as="geometry" />
          
        </mxCell>
        
        <mxCell id="xjFqeEsH3vGoh6xCr9qv-44" value="结束" style="rounded=1;whiteSpace=wrap;html=1;fontSize=14;" vertex="1" parent="xjFqeEsH3vGoh6xCr9qv-1">
          
          <mxGeometry x="307.5" width="105" height="40" as="geometry" />
          
        </mxCell>
        
      </root>
      
    </mxGraphModel>
    
  </diagram>
  <diagram id="Xm0fHSBPWdbnlPV2GKPe" name="岗位分享流程">
    
    <mxGraphModel dx="1753" dy="442" grid="1" gridSize="10" guides="1" tooltips="1" connect="1" arrows="1" fold="1" page="1" pageScale="1" pageWidth="827" pageHeight="1169" math="0" shadow="0">
      
      <root>
        
        <mxCell id="OZsklhfqxzllbzmL-Vyt-0" />
        
        <mxCell id="OZsklhfqxzllbzmL-Vyt-1" parent="OZsklhfqxzllbzmL-Vyt-0" />
        
        <mxCell id="OZsklhfqxzllbzmL-Vyt-7" value="" style="edgeStyle=orthogonalEdgeStyle;rounded=0;orthogonalLoop=1;jettySize=auto;html=1;fontSize=17;" edge="1" parent="OZsklhfqxzllbzmL-Vyt-1" source="OZsklhfqxzllbzmL-Vyt-2" target="OZsklhfqxzllbzmL-Vyt-6">
          
          <mxGeometry relative="1" as="geometry" />
          
        </mxCell>
        
        <mxCell id="OZsklhfqxzllbzmL-Vyt-2" value="查看岗位" style="rounded=0;whiteSpace=wrap;html=1;fontSize=17;" vertex="1" parent="OZsklhfqxzllbzmL-Vyt-1">
          
          <mxGeometry x="151" y="133" width="80" height="50" as="geometry" />
          
        </mxCell>
        
        <mxCell id="OZsklhfqxzllbzmL-Vyt-5" value="" style="edgeStyle=orthogonalEdgeStyle;rounded=0;orthogonalLoop=1;jettySize=auto;html=1;fontSize=14;" edge="1" parent="OZsklhfqxzllbzmL-Vyt-1" source="OZsklhfqxzllbzmL-Vyt-3" target="OZsklhfqxzllbzmL-Vyt-2">
          
          <mxGeometry relative="1" as="geometry" />
          
        </mxCell>
        
        <mxCell id="OZsklhfqxzllbzmL-Vyt-63" value="1" style="edgeLabel;html=1;align=center;verticalAlign=middle;resizable=0;points=[];fontSize=17;" vertex="1" connectable="0" parent="OZsklhfqxzllbzmL-Vyt-5">
          
          <mxGeometry x="0.276" y="-2" relative="1" as="geometry">
            
            <mxPoint as="offset" />
            
          </mxGeometry>
          
        </mxCell>
        
        <mxCell id="OZsklhfqxzllbzmL-Vyt-3" value="保荐人" style="shape=umlActor;verticalLabelPosition=bottom;verticalAlign=top;html=1;outlineConnect=0;rounded=0;fontSize=14;" vertex="1" parent="OZsklhfqxzllbzmL-Vyt-1">
          
          <mxGeometry x="-100" y="128" width="30" height="60" as="geometry" />
          
        </mxCell>
        
        <mxCell id="OZsklhfqxzllbzmL-Vyt-4" value="保荐人的保荐人" style="shape=umlActor;verticalLabelPosition=bottom;verticalAlign=top;html=1;outlineConnect=0;rounded=0;fontSize=14;" vertex="1" parent="OZsklhfqxzllbzmL-Vyt-1">
          
          <mxGeometry x="-100" y="308.5" width="30" height="60" as="geometry" />
          
        </mxCell>
        
        <mxCell id="OZsklhfqxzllbzmL-Vyt-9" value="" style="edgeStyle=orthogonalEdgeStyle;rounded=0;orthogonalLoop=1;jettySize=auto;html=1;fontSize=17;" edge="1" parent="OZsklhfqxzllbzmL-Vyt-1" source="OZsklhfqxzllbzmL-Vyt-6" target="OZsklhfqxzllbzmL-Vyt-8">
          
          <mxGeometry relative="1" as="geometry" />
          
        </mxCell>
        
        <mxCell id="OZsklhfqxzllbzmL-Vyt-6" value="分享岗位" style="whiteSpace=wrap;html=1;rounded=0;fontSize=17;fillColor=#ffcc99;strokeColor=#36393d;" vertex="1" parent="OZsklhfqxzllbzmL-Vyt-1">
          
          <mxGeometry x="271" y="133" width="80" height="50" as="geometry" />
          
        </mxCell>
        
        <mxCell id="OZsklhfqxzllbzmL-Vyt-13" value="" style="edgeStyle=orthogonalEdgeStyle;rounded=0;orthogonalLoop=1;jettySize=auto;html=1;fontSize=17;" edge="1" parent="OZsklhfqxzllbzmL-Vyt-1" source="OZsklhfqxzllbzmL-Vyt-8" target="OZsklhfqxzllbzmL-Vyt-12">
          
          <mxGeometry relative="1" as="geometry" />
          
        </mxCell>
        
        <mxCell id="OZsklhfqxzllbzmL-Vyt-8" value="生成图片" style="whiteSpace=wrap;html=1;rounded=0;fontSize=17;" vertex="1" parent="OZsklhfqxzllbzmL-Vyt-1">
          
          <mxGeometry x="401" y="93" width="80" height="50" as="geometry" />
          
        </mxCell>
        
        <mxCell id="OZsklhfqxzllbzmL-Vyt-17" value="" style="edgeStyle=orthogonalEdgeStyle;rounded=0;orthogonalLoop=1;jettySize=auto;html=1;fontSize=17;" edge="1" parent="OZsklhfqxzllbzmL-Vyt-1" source="OZsklhfqxzllbzmL-Vyt-10" target="OZsklhfqxzllbzmL-Vyt-15">
          
          <mxGeometry relative="1" as="geometry" />
          
        </mxCell>
        
        <mxCell id="OZsklhfqxzllbzmL-Vyt-10" value="小程序&lt;br&gt;分享" style="whiteSpace=wrap;html=1;rounded=0;fontSize=17;" vertex="1" parent="OZsklhfqxzllbzmL-Vyt-1">
          
          <mxGeometry x="401" y="170.5" width="80" height="50" as="geometry" />
          
        </mxCell>
        
        <mxCell id="OZsklhfqxzllbzmL-Vyt-11" value="" style="edgeStyle=orthogonalEdgeStyle;rounded=0;orthogonalLoop=1;jettySize=auto;html=1;fontSize=17;entryX=0;entryY=0.5;entryDx=0;entryDy=0;exitX=1;exitY=0.5;exitDx=0;exitDy=0;" edge="1" parent="OZsklhfqxzllbzmL-Vyt-1" source="OZsklhfqxzllbzmL-Vyt-6" target="OZsklhfqxzllbzmL-Vyt-10">
          
          <mxGeometry relative="1" as="geometry">
            
            <mxPoint x="361" y="168" as="sourcePoint" />
            
            <mxPoint x="401" y="213" as="targetPoint" />
            
          </mxGeometry>
          
        </mxCell>
        
        <mxCell id="OZsklhfqxzllbzmL-Vyt-18" value="" style="edgeStyle=orthogonalEdgeStyle;rounded=0;orthogonalLoop=1;jettySize=auto;html=1;fontSize=17;" edge="1" parent="OZsklhfqxzllbzmL-Vyt-1" source="OZsklhfqxzllbzmL-Vyt-12" target="OZsklhfqxzllbzmL-Vyt-16">
          
          <mxGeometry relative="1" as="geometry" />
          
        </mxCell>
        
        <mxCell id="OZsklhfqxzllbzmL-Vyt-12" value="分享&lt;br&gt;（多渠道）" style="whiteSpace=wrap;html=1;rounded=0;fontSize=17;" vertex="1" parent="OZsklhfqxzllbzmL-Vyt-1">
          
          <mxGeometry x="541" y="90" width="90" height="55" as="geometry" />
          
        </mxCell>
        
        <mxCell id="OZsklhfqxzllbzmL-Vyt-25" value="" style="edgeStyle=orthogonalEdgeStyle;rounded=0;orthogonalLoop=1;jettySize=auto;html=1;fontSize=17;entryX=1;entryY=0.75;entryDx=0;entryDy=0;" edge="1" parent="OZsklhfqxzllbzmL-Vyt-1" source="OZsklhfqxzllbzmL-Vyt-14" target="OZsklhfqxzllbzmL-Vyt-22">
          
          <mxGeometry relative="1" as="geometry" />
          
        </mxCell>
        
        <mxCell id="OZsklhfqxzllbzmL-Vyt-14" value="查看岗位" style="whiteSpace=wrap;html=1;rounded=0;fontSize=17;" vertex="1" parent="OZsklhfqxzllbzmL-Vyt-1">
          
          <mxGeometry x="541" y="366" width="90" height="55" as="geometry" />
          
        </mxCell>
        
        <mxCell id="OZsklhfqxzllbzmL-Vyt-19" value="" style="edgeStyle=orthogonalEdgeStyle;rounded=0;orthogonalLoop=1;jettySize=auto;html=1;fontSize=17;" edge="1" parent="OZsklhfqxzllbzmL-Vyt-1" source="OZsklhfqxzllbzmL-Vyt-15" target="OZsklhfqxzllbzmL-Vyt-14">
          
          <mxGeometry relative="1" as="geometry" />
          
        </mxCell>
        
        <mxCell id="OZsklhfqxzllbzmL-Vyt-15" value="点击小程序" style="whiteSpace=wrap;html=1;rounded=0;fontSize=17;" vertex="1" parent="OZsklhfqxzllbzmL-Vyt-1">
          
          <mxGeometry x="541" y="168" width="90" height="55" as="geometry" />
          
        </mxCell>
        
        <mxCell id="OZsklhfqxzllbzmL-Vyt-21" value="" style="edgeStyle=orthogonalEdgeStyle;rounded=0;orthogonalLoop=1;jettySize=auto;html=1;fontSize=17;entryX=1;entryY=0.5;entryDx=0;entryDy=0;exitX=0.5;exitY=1;exitDx=0;exitDy=0;" edge="1" parent="OZsklhfqxzllbzmL-Vyt-1" source="OZsklhfqxzllbzmL-Vyt-16" target="OZsklhfqxzllbzmL-Vyt-14">
          
          <mxGeometry relative="1" as="geometry">
            
            <mxPoint x="721" y="222.5" as="targetPoint" />
            
          </mxGeometry>
          
        </mxCell>
        
        <mxCell id="OZsklhfqxzllbzmL-Vyt-16" value="扫描小程序二维码" style="whiteSpace=wrap;html=1;rounded=0;fontSize=17;" vertex="1" parent="OZsklhfqxzllbzmL-Vyt-1">
          
          <mxGeometry x="676" y="90" width="90" height="55" as="geometry" />
          
        </mxCell>
        
        <mxCell id="OZsklhfqxzllbzmL-Vyt-22" value="继续分享" style="whiteSpace=wrap;html=1;rounded=0;fontSize=17;" vertex="1" parent="OZsklhfqxzllbzmL-Vyt-1">
          
          <mxGeometry x="401" y="280.5" width="90" height="50" as="geometry" />
          
        </mxCell>
        
        <mxCell id="OZsklhfqxzllbzmL-Vyt-27" value="" style="edgeStyle=orthogonalEdgeStyle;rounded=0;orthogonalLoop=1;jettySize=auto;html=1;fontSize=17;" edge="1" parent="OZsklhfqxzllbzmL-Vyt-1" source="OZsklhfqxzllbzmL-Vyt-23" target="OZsklhfqxzllbzmL-Vyt-26">
          
          <mxGeometry relative="1" as="geometry" />
          
        </mxCell>
        
        <mxCell id="OZsklhfqxzllbzmL-Vyt-23" value="我有人脉&lt;br&gt;我要推荐" style="whiteSpace=wrap;html=1;rounded=0;fontSize=17;" vertex="1" parent="OZsklhfqxzllbzmL-Vyt-1">
          
          <mxGeometry x="401" y="368" width="90" height="50" as="geometry" />
          
        </mxCell>
        
        <mxCell id="OZsklhfqxzllbzmL-Vyt-36" value="" style="edgeStyle=orthogonalEdgeStyle;rounded=0;orthogonalLoop=1;jettySize=auto;html=1;labelBackgroundColor=#FF8000;fontSize=17;" edge="1" parent="OZsklhfqxzllbzmL-Vyt-1" source="OZsklhfqxzllbzmL-Vyt-24" target="OZsklhfqxzllbzmL-Vyt-35">
          
          <mxGeometry relative="1" as="geometry" />
          
        </mxCell>
        
        <mxCell id="OZsklhfqxzllbzmL-Vyt-24" value="我要应聘" style="whiteSpace=wrap;html=1;rounded=0;fontSize=17;" vertex="1" parent="OZsklhfqxzllbzmL-Vyt-1">
          
          <mxGeometry x="401" y="448" width="90" height="50" as="geometry" />
          
        </mxCell>
        
        <mxCell id="OZsklhfqxzllbzmL-Vyt-40" value="" style="edgeStyle=orthogonalEdgeStyle;rounded=0;orthogonalLoop=1;jettySize=auto;html=1;labelBackgroundColor=#FF8000;fontSize=17;" edge="1" parent="OZsklhfqxzllbzmL-Vyt-1" source="OZsklhfqxzllbzmL-Vyt-26" target="OZsklhfqxzllbzmL-Vyt-37">
          
          <mxGeometry relative="1" as="geometry" />
          
        </mxCell>
        
        <mxCell id="OZsklhfqxzllbzmL-Vyt-26" value="申请成为&lt;br&gt;保荐人" style="whiteSpace=wrap;html=1;rounded=0;fontSize=17;" vertex="1" parent="OZsklhfqxzllbzmL-Vyt-1">
          
          <mxGeometry x="270" y="368.5" width="90" height="50" as="geometry" />
          
        </mxCell>
        
        <mxCell id="OZsklhfqxzllbzmL-Vyt-30" value="" style="shape=flexArrow;endArrow=classic;html=1;fontSize=17;labelBackgroundColor=#FF8000;fillColor=#f0a30a;strokeColor=#BD7000;" edge="1" parent="OZsklhfqxzllbzmL-Vyt-1">
          
          <mxGeometry width="50" height="50" relative="1" as="geometry">
            
            <mxPoint x="-85.5" y="223" as="sourcePoint" />
            
            <mxPoint x="-85.5" y="293" as="targetPoint" />
            
          </mxGeometry>
          
        </mxCell>
        
        <mxCell id="OZsklhfqxzllbzmL-Vyt-31" value="" style="edgeStyle=orthogonalEdgeStyle;rounded=0;orthogonalLoop=1;jettySize=auto;html=1;fontSize=17;exitX=0;exitY=0.5;exitDx=0;exitDy=0;entryX=1;entryY=0.5;entryDx=0;entryDy=0;" edge="1" parent="OZsklhfqxzllbzmL-Vyt-1" source="OZsklhfqxzllbzmL-Vyt-14" target="OZsklhfqxzllbzmL-Vyt-23">
          
          <mxGeometry relative="1" as="geometry">
            
            <mxPoint x="637" y="507.5" as="sourcePoint" />
            
            <mxPoint x="591" y="508" as="targetPoint" />
            
          </mxGeometry>
          
        </mxCell>
        
        <mxCell id="OZsklhfqxzllbzmL-Vyt-32" value="" style="edgeStyle=orthogonalEdgeStyle;rounded=0;orthogonalLoop=1;jettySize=auto;html=1;fontSize=17;exitX=0;exitY=0.5;exitDx=0;exitDy=0;entryX=1;entryY=0.5;entryDx=0;entryDy=0;" edge="1" parent="OZsklhfqxzllbzmL-Vyt-1" source="OZsklhfqxzllbzmL-Vyt-14" target="OZsklhfqxzllbzmL-Vyt-24">
          
          <mxGeometry relative="1" as="geometry">
            
            <mxPoint x="551" y="403.5" as="sourcePoint" />
            
            <mxPoint x="501" y="403" as="targetPoint" />
            
          </mxGeometry>
          
        </mxCell>
        
        <mxCell id="OZsklhfqxzllbzmL-Vyt-33" value="" style="edgeStyle=orthogonalEdgeStyle;rounded=0;orthogonalLoop=1;jettySize=auto;html=1;fontSize=17;exitX=0;exitY=0.5;exitDx=0;exitDy=0;entryX=0.5;entryY=1;entryDx=0;entryDy=0;" edge="1" parent="OZsklhfqxzllbzmL-Vyt-1" source="OZsklhfqxzllbzmL-Vyt-22" target="OZsklhfqxzllbzmL-Vyt-6">
          
          <mxGeometry relative="1" as="geometry">
            
            <mxPoint x="411" y="403" as="sourcePoint" />
            
            <mxPoint x="365" y="403.5" as="targetPoint" />
            
          </mxGeometry>
          
        </mxCell>
        
        <mxCell id="OZsklhfqxzllbzmL-Vyt-39" value="" style="edgeStyle=orthogonalEdgeStyle;rounded=0;orthogonalLoop=1;jettySize=auto;html=1;labelBackgroundColor=#FF8000;fontSize=17;" edge="1" parent="OZsklhfqxzllbzmL-Vyt-1" source="OZsklhfqxzllbzmL-Vyt-35" target="OZsklhfqxzllbzmL-Vyt-38">
          
          <mxGeometry relative="1" as="geometry" />
          
        </mxCell>
        
        <mxCell id="OZsklhfqxzllbzmL-Vyt-35" value="自动成为&lt;br&gt;保荐人" style="whiteSpace=wrap;html=1;rounded=0;fontSize=17;dashed=1;fillColor=#eeeeee;strokeColor=#36393d;" vertex="1" parent="OZsklhfqxzllbzmL-Vyt-1">
          
          <mxGeometry x="269" y="448" width="90" height="50" as="geometry" />
          
        </mxCell>
        
        <mxCell id="OZsklhfqxzllbzmL-Vyt-45" value="" style="edgeStyle=orthogonalEdgeStyle;rounded=0;orthogonalLoop=1;jettySize=auto;html=1;labelBackgroundColor=#FF8000;fontSize=17;entryX=0.5;entryY=1;entryDx=0;entryDy=0;" edge="1" parent="OZsklhfqxzllbzmL-Vyt-1" source="OZsklhfqxzllbzmL-Vyt-37" target="OZsklhfqxzllbzmL-Vyt-42">
          
          <mxGeometry relative="1" as="geometry" />
          
        </mxCell>
        
        <mxCell id="OZsklhfqxzllbzmL-Vyt-37" value="推荐此岗位人脉" style="whiteSpace=wrap;html=1;rounded=0;fontSize=17;" vertex="1" parent="OZsklhfqxzllbzmL-Vyt-1">
          
          <mxGeometry x="141" y="368" width="90" height="50" as="geometry" />
          
        </mxCell>
        
        <mxCell id="OZsklhfqxzllbzmL-Vyt-38" value="此岗位推荐自己" style="whiteSpace=wrap;html=1;rounded=0;fontSize=17;" vertex="1" parent="OZsklhfqxzllbzmL-Vyt-1">
          
          <mxGeometry x="141" y="448" width="90" height="50" as="geometry" />
          
        </mxCell>
        
        <mxCell id="OZsklhfqxzllbzmL-Vyt-44" value="" style="edgeStyle=orthogonalEdgeStyle;rounded=0;orthogonalLoop=1;jettySize=auto;html=1;labelBackgroundColor=#FF8000;fontSize=17;" edge="1" parent="OZsklhfqxzllbzmL-Vyt-1" source="OZsklhfqxzllbzmL-Vyt-42" target="OZsklhfqxzllbzmL-Vyt-43">
          
          <mxGeometry relative="1" as="geometry" />
          
        </mxCell>
        
        <mxCell id="OZsklhfqxzllbzmL-Vyt-42" value="成单" style="whiteSpace=wrap;html=1;rounded=0;fontSize=17;" vertex="1" parent="OZsklhfqxzllbzmL-Vyt-1">
          
          <mxGeometry x="20" y="300" width="90" height="50" as="geometry" />
          
        </mxCell>
        
        <mxCell id="OZsklhfqxzllbzmL-Vyt-43" value="发放奖励" style="whiteSpace=wrap;html=1;rounded=0;fontSize=17;" vertex="1" parent="OZsklhfqxzllbzmL-Vyt-1">
          
          <mxGeometry x="20" y="220.5" width="90" height="50" as="geometry" />
          
        </mxCell>
        
        <mxCell id="OZsklhfqxzllbzmL-Vyt-46" value="" style="edgeStyle=orthogonalEdgeStyle;rounded=0;orthogonalLoop=1;jettySize=auto;html=1;labelBackgroundColor=#FF8000;fontSize=17;entryX=0.5;entryY=1;entryDx=0;entryDy=0;exitX=0;exitY=0.5;exitDx=0;exitDy=0;" edge="1" parent="OZsklhfqxzllbzmL-Vyt-1" source="OZsklhfqxzllbzmL-Vyt-38" target="OZsklhfqxzllbzmL-Vyt-42">
          
          <mxGeometry relative="1" as="geometry">
            
            <mxPoint x="151" y="403" as="sourcePoint" />
            
            <mxPoint x="75" y="378.5" as="targetPoint" />
            
          </mxGeometry>
          
        </mxCell>
        
        <mxCell id="OZsklhfqxzllbzmL-Vyt-47" value="" style="endArrow=classic;html=1;labelBackgroundColor=#FF8000;fontSize=17;entryX=1;entryY=1;entryDx=0;entryDy=0;entryPerimeter=0;exitX=0;exitY=0.25;exitDx=0;exitDy=0;" edge="1" parent="OZsklhfqxzllbzmL-Vyt-1" source="OZsklhfqxzllbzmL-Vyt-43" target="OZsklhfqxzllbzmL-Vyt-3">
          
          <mxGeometry width="50" height="50" relative="1" as="geometry">
            
            <mxPoint x="240" y="320" as="sourcePoint" />
            
            <mxPoint x="290" y="270" as="targetPoint" />
            
          </mxGeometry>
          
        </mxCell>
        
        <mxCell id="OZsklhfqxzllbzmL-Vyt-49" value="30%" style="edgeLabel;html=1;align=center;verticalAlign=middle;resizable=0;points=[];fontSize=17;" vertex="1" connectable="0" parent="OZsklhfqxzllbzmL-Vyt-47">
          
          <mxGeometry x="-0.2267" y="3" relative="1" as="geometry">
            
            <mxPoint as="offset" />
            
          </mxGeometry>
          
        </mxCell>
        
        <mxCell id="OZsklhfqxzllbzmL-Vyt-48" value="" style="endArrow=classic;html=1;labelBackgroundColor=#FF8000;fontSize=17;entryX=1;entryY=0.3333333333333333;entryDx=0;entryDy=0;entryPerimeter=0;exitX=0;exitY=0.75;exitDx=0;exitDy=0;" edge="1" parent="OZsklhfqxzllbzmL-Vyt-1" source="OZsklhfqxzllbzmL-Vyt-43" target="OZsklhfqxzllbzmL-Vyt-4">
          
          <mxGeometry width="50" height="50" relative="1" as="geometry">
            
            <mxPoint x="30" y="243" as="sourcePoint" />
            
            <mxPoint x="-30" y="198" as="targetPoint" />
            
          </mxGeometry>
          
        </mxCell>
        
        <mxCell id="OZsklhfqxzllbzmL-Vyt-50" value="70%" style="edgeLabel;html=1;align=center;verticalAlign=middle;resizable=0;points=[];fontSize=17;" vertex="1" connectable="0" parent="OZsklhfqxzllbzmL-Vyt-48">
          
          <mxGeometry x="-0.0606" relative="1" as="geometry">
            
            <mxPoint as="offset" />
            
          </mxGeometry>
          
        </mxCell>
        
        <mxCell id="OZsklhfqxzllbzmL-Vyt-60" value="" style="edgeStyle=orthogonalEdgeStyle;rounded=0;orthogonalLoop=1;jettySize=auto;html=1;labelBackgroundColor=#FF8000;fontSize=17;" edge="1" parent="OZsklhfqxzllbzmL-Vyt-1" source="OZsklhfqxzllbzmL-Vyt-52" target="OZsklhfqxzllbzmL-Vyt-54">
          
          <mxGeometry relative="1" as="geometry" />
          
        </mxCell>
        
        <mxCell id="OZsklhfqxzllbzmL-Vyt-52" value="其它岗位&lt;br&gt;推荐人脉" style="whiteSpace=wrap;html=1;rounded=0;fontSize=17;" vertex="1" parent="OZsklhfqxzllbzmL-Vyt-1">
          
          <mxGeometry x="-271" y="413" width="90" height="50" as="geometry" />
          
        </mxCell>
        
        <mxCell id="OZsklhfqxzllbzmL-Vyt-53" value="" style="edgeStyle=orthogonalEdgeStyle;rounded=0;orthogonalLoop=1;jettySize=auto;html=1;labelBackgroundColor=#FF8000;fontSize=17;" edge="1" parent="OZsklhfqxzllbzmL-Vyt-1" source="OZsklhfqxzllbzmL-Vyt-54" target="OZsklhfqxzllbzmL-Vyt-55">
          
          <mxGeometry relative="1" as="geometry" />
          
        </mxCell>
        
        <mxCell id="OZsklhfqxzllbzmL-Vyt-54" value="成单" style="whiteSpace=wrap;html=1;rounded=0;fontSize=17;" vertex="1" parent="OZsklhfqxzllbzmL-Vyt-1">
          
          <mxGeometry x="-271" y="305" width="90" height="50" as="geometry" />
          
        </mxCell>
        
        <mxCell id="OZsklhfqxzllbzmL-Vyt-55" value="发放奖励" style="whiteSpace=wrap;html=1;rounded=0;fontSize=17;" vertex="1" parent="OZsklhfqxzllbzmL-Vyt-1">
          
          <mxGeometry x="-271" y="225.5" width="90" height="50" as="geometry" />
          
        </mxCell>
        
        <mxCell id="OZsklhfqxzllbzmL-Vyt-56" value="" style="endArrow=classic;html=1;labelBackgroundColor=#FF8000;fontSize=17;entryX=0;entryY=1;entryDx=0;entryDy=0;entryPerimeter=0;exitX=1;exitY=0.25;exitDx=0;exitDy=0;" edge="1" parent="OZsklhfqxzllbzmL-Vyt-1" source="OZsklhfqxzllbzmL-Vyt-55" target="OZsklhfqxzllbzmL-Vyt-3">
          
          <mxGeometry width="50" height="50" relative="1" as="geometry">
            
            <mxPoint x="-50" y="320" as="sourcePoint" />
            
            <mxPoint x="-360" y="188" as="targetPoint" />
            
          </mxGeometry>
          
        </mxCell>
        
        <mxCell id="OZsklhfqxzllbzmL-Vyt-57" value="10%" style="edgeLabel;html=1;align=center;verticalAlign=middle;resizable=0;points=[];fontSize=17;" vertex="1" connectable="0" parent="OZsklhfqxzllbzmL-Vyt-56">
          
          <mxGeometry x="-0.2267" y="3" relative="1" as="geometry">
            
            <mxPoint as="offset" />
            
          </mxGeometry>
          
        </mxCell>
        
        <mxCell id="OZsklhfqxzllbzmL-Vyt-58" value="" style="endArrow=classic;html=1;labelBackgroundColor=#FF8000;fontSize=17;entryX=0;entryY=0.3333333333333333;entryDx=0;entryDy=0;entryPerimeter=0;exitX=1;exitY=0.75;exitDx=0;exitDy=0;" edge="1" parent="OZsklhfqxzllbzmL-Vyt-1" source="OZsklhfqxzllbzmL-Vyt-55" target="OZsklhfqxzllbzmL-Vyt-4">
          
          <mxGeometry width="50" height="50" relative="1" as="geometry">
            
            <mxPoint x="-260" y="243" as="sourcePoint" />
            
            <mxPoint x="-360" y="328.5" as="targetPoint" />
            
          </mxGeometry>
          
        </mxCell>
        
        <mxCell id="OZsklhfqxzllbzmL-Vyt-59" value="90%" style="edgeLabel;html=1;align=center;verticalAlign=middle;resizable=0;points=[];fontSize=17;" vertex="1" connectable="0" parent="OZsklhfqxzllbzmL-Vyt-58">
          
          <mxGeometry x="-0.0606" relative="1" as="geometry">
            
            <mxPoint as="offset" />
            
          </mxGeometry>
          
        </mxCell>
        
        <mxCell id="OZsklhfqxzllbzmL-Vyt-61" value="" style="edgeStyle=orthogonalEdgeStyle;rounded=0;orthogonalLoop=1;jettySize=auto;html=1;labelBackgroundColor=#FF8000;fontSize=17;entryX=1;entryY=0.5;entryDx=0;entryDy=0;exitX=0.5;exitY=1;exitDx=0;exitDy=0;" edge="1" parent="OZsklhfqxzllbzmL-Vyt-1" source="OZsklhfqxzllbzmL-Vyt-26" target="OZsklhfqxzllbzmL-Vyt-52">
          
          <mxGeometry relative="1" as="geometry">
            
            <mxPoint x="151" y="483" as="sourcePoint" />
            
            <mxPoint x="75" y="360" as="targetPoint" />
            
          </mxGeometry>
          
        </mxCell>
        
        <mxCell id="OZsklhfqxzllbzmL-Vyt-62" value="" style="edgeStyle=orthogonalEdgeStyle;rounded=0;orthogonalLoop=1;jettySize=auto;html=1;labelBackgroundColor=#FF8000;fontSize=17;entryX=0.5;entryY=1;entryDx=0;entryDy=0;exitX=0.5;exitY=1;exitDx=0;exitDy=0;" edge="1" parent="OZsklhfqxzllbzmL-Vyt-1" source="OZsklhfqxzllbzmL-Vyt-35" target="OZsklhfqxzllbzmL-Vyt-52">
          
          <mxGeometry relative="1" as="geometry">
            
            <mxPoint x="325" y="428.5" as="sourcePoint" />
            
            <mxPoint x="-171" y="448" as="targetPoint" />
            
          </mxGeometry>
          
        </mxCell>
        
      </root>
      
    </mxGraphModel>
    
  </diagram>
  <diagram id="klRyfZYhrpfIpvs5FtXV" name="Page-5">
    <mxGraphModel dx="1056" dy="580" grid="1" gridSize="10" guides="1" tooltips="1" connect="1" arrows="1" fold="1" page="1" pageScale="1" pageWidth="827" pageHeight="1169" math="0" shadow="0">
      <root>
        <mxCell id="hlihKu2ajWWciOED5gV2-0" />
        <mxCell id="hlihKu2ajWWciOED5gV2-1" parent="hlihKu2ajWWciOED5gV2-0" />
        <mxCell id="ubG-LeyXNIDy0n6tB_2I-4" value="" style="whiteSpace=wrap;html=1;aspect=fixed;rounded=0;strokeColor=#000000;fontSize=17;" parent="hlihKu2ajWWciOED5gV2-1" vertex="1">
          <mxGeometry x="220" y="30" width="490" height="490" as="geometry" />
        </mxCell>
        <mxCell id="8ZnFw8umTKr6GV_I4Guq-1" value="二级&lt;br&gt;保荐人" style="shape=umlActor;verticalLabelPosition=bottom;verticalAlign=top;html=1;outlineConnect=0;rounded=0;strokeColor=#36393d;fontSize=17;fillColor=#ffcc99;" parent="hlihKu2ajWWciOED5gV2-1" vertex="1">
          <mxGeometry x="120" y="260" width="30" height="60" as="geometry" />
        </mxCell>
        <mxCell id="8ZnFw8umTKr6GV_I4Guq-2" value="求职者" style="shape=umlActor;verticalLabelPosition=bottom;verticalAlign=top;html=1;outlineConnect=0;rounded=0;strokeColor=#000000;fontSize=17;" parent="hlihKu2ajWWciOED5gV2-1" vertex="1">
          <mxGeometry x="740" y="90" width="30" height="60" as="geometry" />
        </mxCell>
        <mxCell id="8ZnFw8umTKr6GV_I4Guq-6" value="保荐人" style="shape=umlActor;verticalLabelPosition=bottom;verticalAlign=top;html=1;outlineConnect=0;rounded=0;strokeColor=#000000;fontSize=17;" parent="hlihKu2ajWWciOED5gV2-1" vertex="1">
          <mxGeometry x="120" y="90" width="30" height="60" as="geometry" />
        </mxCell>
        <mxCell id="ubG-LeyXNIDy0n6tB_2I-1" value="邀请保荐人" style="ellipse;whiteSpace=wrap;html=1;rounded=0;strokeColor=#36393d;fontSize=17;fillColor=#ffcc99;" parent="hlihKu2ajWWciOED5gV2-1" vertex="1">
          <mxGeometry x="250" y="220" width="110" height="50" as="geometry" />
        </mxCell>
        <mxCell id="ubG-LeyXNIDy0n6tB_2I-2" value="分享职位" style="ellipse;whiteSpace=wrap;html=1;rounded=0;strokeColor=#36393d;fontSize=17;fillColor=#cdeb8b;" parent="hlihKu2ajWWciOED5gV2-1" vertex="1">
          <mxGeometry x="270" y="160" width="110" height="50" as="geometry" />
        </mxCell>
        <mxCell id="ubG-LeyXNIDy0n6tB_2I-7" value="私有人脉" style="ellipse;whiteSpace=wrap;html=1;rounded=0;strokeColor=#36393d;fontSize=17;fillColor=#cce5ff;" parent="hlihKu2ajWWciOED5gV2-1" vertex="1">
          <mxGeometry x="290" y="340" width="110" height="50" as="geometry" />
        </mxCell>
        <mxCell id="ubG-LeyXNIDy0n6tB_2I-11" value="查看职位" style="ellipse;whiteSpace=wrap;html=1;rounded=0;strokeColor=#36393d;fontSize=17;fillColor=#cdeb8b;" parent="hlihKu2ajWWciOED5gV2-1" vertex="1">
          <mxGeometry x="530" y="100" width="110" height="50" as="geometry" />
        </mxCell>
        <mxCell id="ubG-LeyXNIDy0n6tB_2I-12" value="应聘" style="ellipse;whiteSpace=wrap;html=1;rounded=0;strokeColor=#36393d;fontSize=17;fillColor=#cdeb8b;" parent="hlihKu2ajWWciOED5gV2-1" vertex="1">
          <mxGeometry x="470" y="150" width="110" height="50" as="geometry" />
        </mxCell>
        <mxCell id="ubG-LeyXNIDy0n6tB_2I-13" value="推荐他人" style="ellipse;whiteSpace=wrap;html=1;rounded=0;strokeColor=#36393d;fontSize=17;fillColor=#cdeb8b;" parent="hlihKu2ajWWciOED5gV2-1" vertex="1">
          <mxGeometry x="590" y="150" width="110" height="50" as="geometry" />
        </mxCell>
        <mxCell id="ubG-LeyXNIDy0n6tB_2I-14" value="转发" style="ellipse;whiteSpace=wrap;html=1;rounded=0;strokeColor=#36393d;fontSize=17;fillColor=#cdeb8b;" parent="hlihKu2ajWWciOED5gV2-1" vertex="1">
          <mxGeometry x="530" y="200" width="110" height="50" as="geometry" />
        </mxCell>
        <mxCell id="ubG-LeyXNIDy0n6tB_2I-16" value="接受消息" style="ellipse;whiteSpace=wrap;html=1;rounded=0;strokeColor=#36393d;fontSize=17;fillColor=#cdeb8b;" parent="hlihKu2ajWWciOED5gV2-1" vertex="1">
          <mxGeometry x="530" y="320" width="110" height="50" as="geometry" />
        </mxCell>
        <mxCell id="ubG-LeyXNIDy0n6tB_2I-17" value="查看保荐人规则" style="ellipse;whiteSpace=wrap;html=1;rounded=0;strokeColor=#36393d;fontSize=17;fillColor=#ffcc99;" parent="hlihKu2ajWWciOED5gV2-1" vertex="1">
          <mxGeometry x="260" y="280" width="110" height="50" as="geometry" />
        </mxCell>
        <mxCell id="ubG-LeyXNIDy0n6tB_2I-18" value="注册保荐人" style="ellipse;whiteSpace=wrap;html=1;rounded=0;strokeColor=#36393d;fontSize=17;fillColor=#ffcc99;" parent="hlihKu2ajWWciOED5gV2-1" vertex="1">
          <mxGeometry x="240" y="100" width="110" height="50" as="geometry" />
        </mxCell>
        <mxCell id="ubG-LeyXNIDy0n6tB_2I-20" value="咨询" style="ellipse;whiteSpace=wrap;html=1;rounded=0;strokeColor=#36393d;fontSize=17;fillColor=#cdeb8b;" parent="hlihKu2ajWWciOED5gV2-1" vertex="1">
          <mxGeometry x="530" y="260" width="110" height="50" as="geometry" />
        </mxCell>
      </root>
    </mxGraphModel>
  </diagram>
  <diagram id="Hzbc5CMFAXodsLzwe2Rz" name="分享岗位流程">
    
    <mxGraphModel dx="1773" dy="565" grid="1" gridSize="10" guides="1" tooltips="1" connect="1" arrows="1" fold="1" page="1" pageScale="1" pageWidth="827" pageHeight="1169" math="0" shadow="0">
      
      <root>
        
        <mxCell id="kHiiex_DuWeRRNS4Jv-h-0" />
        
        <mxCell id="kHiiex_DuWeRRNS4Jv-h-1" parent="kHiiex_DuWeRRNS4Jv-h-0" />
        
        <mxCell id="1dTuGjO7kMyeHXzovaXl-0" value="" style="edgeStyle=orthogonalEdgeStyle;rounded=0;orthogonalLoop=1;jettySize=auto;html=1;fontSize=17;" edge="1" parent="kHiiex_DuWeRRNS4Jv-h-1" source="1dTuGjO7kMyeHXzovaXl-1" target="1dTuGjO7kMyeHXzovaXl-7">
          
          <mxGeometry relative="1" as="geometry" />
          
        </mxCell>
        
        <mxCell id="1dTuGjO7kMyeHXzovaXl-1" value="查看岗位" style="rounded=0;whiteSpace=wrap;html=1;fontSize=17;" vertex="1" parent="kHiiex_DuWeRRNS4Jv-h-1">
          
          <mxGeometry x="151" y="133" width="80" height="50" as="geometry" />
          
        </mxCell>
        
        <mxCell id="1dTuGjO7kMyeHXzovaXl-2" value="" style="edgeStyle=orthogonalEdgeStyle;rounded=0;orthogonalLoop=1;jettySize=auto;html=1;fontSize=14;" edge="1" parent="kHiiex_DuWeRRNS4Jv-h-1" source="1dTuGjO7kMyeHXzovaXl-4" target="1dTuGjO7kMyeHXzovaXl-1">
          
          <mxGeometry relative="1" as="geometry" />
          
        </mxCell>
        
        <mxCell id="1dTuGjO7kMyeHXzovaXl-4" value="保荐人" style="shape=umlActor;verticalLabelPosition=bottom;verticalAlign=top;html=1;outlineConnect=0;rounded=0;fontSize=14;" vertex="1" parent="kHiiex_DuWeRRNS4Jv-h-1">
          
          <mxGeometry x="-100" y="128" width="30" height="60" as="geometry" />
          
        </mxCell>
        
        <mxCell id="1dTuGjO7kMyeHXzovaXl-5" value="求职者" style="shape=umlActor;verticalLabelPosition=bottom;verticalAlign=top;html=1;outlineConnect=0;rounded=0;fontSize=14;" vertex="1" parent="kHiiex_DuWeRRNS4Jv-h-1">
          
          <mxGeometry x="-100" y="405" width="30" height="60" as="geometry" />
          
        </mxCell>
        
        <mxCell id="1dTuGjO7kMyeHXzovaXl-6" value="" style="edgeStyle=orthogonalEdgeStyle;rounded=0;orthogonalLoop=1;jettySize=auto;html=1;fontSize=17;" edge="1" parent="kHiiex_DuWeRRNS4Jv-h-1" source="1dTuGjO7kMyeHXzovaXl-7" target="1dTuGjO7kMyeHXzovaXl-9">
          
          <mxGeometry relative="1" as="geometry" />
          
        </mxCell>
        
        <mxCell id="1dTuGjO7kMyeHXzovaXl-7" value="分享岗位" style="whiteSpace=wrap;html=1;rounded=0;fontSize=17;fillColor=#ffcc99;strokeColor=#36393d;" vertex="1" parent="kHiiex_DuWeRRNS4Jv-h-1">
          
          <mxGeometry x="271" y="133" width="80" height="50" as="geometry" />
          
        </mxCell>
        
        <mxCell id="1dTuGjO7kMyeHXzovaXl-8" value="" style="edgeStyle=orthogonalEdgeStyle;rounded=0;orthogonalLoop=1;jettySize=auto;html=1;fontSize=17;" edge="1" parent="kHiiex_DuWeRRNS4Jv-h-1" source="1dTuGjO7kMyeHXzovaXl-9" target="1dTuGjO7kMyeHXzovaXl-14">
          
          <mxGeometry relative="1" as="geometry" />
          
        </mxCell>
        
        <mxCell id="1dTuGjO7kMyeHXzovaXl-9" value="生成图片" style="whiteSpace=wrap;html=1;rounded=0;fontSize=17;" vertex="1" parent="kHiiex_DuWeRRNS4Jv-h-1">
          
          <mxGeometry x="401" y="93" width="80" height="50" as="geometry" />
          
        </mxCell>
        
        <mxCell id="1dTuGjO7kMyeHXzovaXl-10" value="" style="edgeStyle=orthogonalEdgeStyle;rounded=0;orthogonalLoop=1;jettySize=auto;html=1;fontSize=17;" edge="1" parent="kHiiex_DuWeRRNS4Jv-h-1" source="1dTuGjO7kMyeHXzovaXl-11" target="1dTuGjO7kMyeHXzovaXl-18">
          
          <mxGeometry relative="1" as="geometry" />
          
        </mxCell>
        
        <mxCell id="1dTuGjO7kMyeHXzovaXl-11" value="小程序&lt;br&gt;分享" style="whiteSpace=wrap;html=1;rounded=0;fontSize=17;" vertex="1" parent="kHiiex_DuWeRRNS4Jv-h-1">
          
          <mxGeometry x="401" y="170.5" width="80" height="50" as="geometry" />
          
        </mxCell>
        
        <mxCell id="1dTuGjO7kMyeHXzovaXl-12" value="" style="edgeStyle=orthogonalEdgeStyle;rounded=0;orthogonalLoop=1;jettySize=auto;html=1;fontSize=17;entryX=0;entryY=0.5;entryDx=0;entryDy=0;exitX=1;exitY=0.5;exitDx=0;exitDy=0;" edge="1" parent="kHiiex_DuWeRRNS4Jv-h-1" source="1dTuGjO7kMyeHXzovaXl-7" target="1dTuGjO7kMyeHXzovaXl-11">
          
          <mxGeometry relative="1" as="geometry">
            
            <mxPoint x="361" y="168" as="sourcePoint" />
            
            <mxPoint x="401" y="213" as="targetPoint" />
            
          </mxGeometry>
          
        </mxCell>
        
        <mxCell id="1dTuGjO7kMyeHXzovaXl-13" value="" style="edgeStyle=orthogonalEdgeStyle;rounded=0;orthogonalLoop=1;jettySize=auto;html=1;fontSize=17;" edge="1" parent="kHiiex_DuWeRRNS4Jv-h-1" source="1dTuGjO7kMyeHXzovaXl-14" target="1dTuGjO7kMyeHXzovaXl-20">
          
          <mxGeometry relative="1" as="geometry" />
          
        </mxCell>
        
        <mxCell id="1dTuGjO7kMyeHXzovaXl-14" value="分享&lt;br&gt;（多渠道）" style="whiteSpace=wrap;html=1;rounded=0;fontSize=17;" vertex="1" parent="kHiiex_DuWeRRNS4Jv-h-1">
          
          <mxGeometry x="541" y="90" width="90" height="55" as="geometry" />
          
        </mxCell>
        
        <mxCell id="1dTuGjO7kMyeHXzovaXl-15" value="" style="edgeStyle=orthogonalEdgeStyle;rounded=0;orthogonalLoop=1;jettySize=auto;html=1;fontSize=17;entryX=1;entryY=0.75;entryDx=0;entryDy=0;" edge="1" parent="kHiiex_DuWeRRNS4Jv-h-1" source="1dTuGjO7kMyeHXzovaXl-16" target="1dTuGjO7kMyeHXzovaXl-21">
          
          <mxGeometry relative="1" as="geometry" />
          
        </mxCell>
        
        <mxCell id="1dTuGjO7kMyeHXzovaXl-16" value="微信登录/&lt;br&gt;查看岗位" style="whiteSpace=wrap;html=1;rounded=0;fontSize=17;" vertex="1" parent="kHiiex_DuWeRRNS4Jv-h-1">
          
          <mxGeometry x="541" y="366" width="90" height="55" as="geometry" />
          
        </mxCell>
        
        <mxCell id="1dTuGjO7kMyeHXzovaXl-17" value="" style="edgeStyle=orthogonalEdgeStyle;rounded=0;orthogonalLoop=1;jettySize=auto;html=1;fontSize=17;" edge="1" parent="kHiiex_DuWeRRNS4Jv-h-1" source="1dTuGjO7kMyeHXzovaXl-18" target="1dTuGjO7kMyeHXzovaXl-16">
          
          <mxGeometry relative="1" as="geometry" />
          
        </mxCell>
        
        <mxCell id="1dTuGjO7kMyeHXzovaXl-18" value="点击小程序" style="whiteSpace=wrap;html=1;rounded=0;fontSize=17;" vertex="1" parent="kHiiex_DuWeRRNS4Jv-h-1">
          
          <mxGeometry x="541" y="280.5" width="90" height="55" as="geometry" />
          
        </mxCell>
        
        <mxCell id="1dTuGjO7kMyeHXzovaXl-19" value="" style="edgeStyle=orthogonalEdgeStyle;rounded=0;orthogonalLoop=1;jettySize=auto;html=1;fontSize=17;entryX=1;entryY=0.5;entryDx=0;entryDy=0;exitX=0.5;exitY=1;exitDx=0;exitDy=0;" edge="1" parent="kHiiex_DuWeRRNS4Jv-h-1" source="1dTuGjO7kMyeHXzovaXl-20" target="1dTuGjO7kMyeHXzovaXl-16">
          
          <mxGeometry relative="1" as="geometry">
            
            <mxPoint x="721" y="222.5" as="targetPoint" />
            
          </mxGeometry>
          
        </mxCell>
        
        <mxCell id="1dTuGjO7kMyeHXzovaXl-20" value="扫描小程序二维码" style="whiteSpace=wrap;html=1;rounded=0;fontSize=17;" vertex="1" parent="kHiiex_DuWeRRNS4Jv-h-1">
          
          <mxGeometry x="680" y="278" width="90" height="55" as="geometry" />
          
        </mxCell>
        
        <mxCell id="1dTuGjO7kMyeHXzovaXl-21" value="继续分享" style="whiteSpace=wrap;html=1;rounded=0;fontSize=17;" vertex="1" parent="kHiiex_DuWeRRNS4Jv-h-1">
          
          <mxGeometry x="401" y="280.5" width="90" height="50" as="geometry" />
          
        </mxCell>
        
        <mxCell id="1dTuGjO7kMyeHXzovaXl-22" value="" style="edgeStyle=orthogonalEdgeStyle;rounded=0;orthogonalLoop=1;jettySize=auto;html=1;fontSize=17;" edge="1" parent="kHiiex_DuWeRRNS4Jv-h-1" source="1dTuGjO7kMyeHXzovaXl-23" target="1dTuGjO7kMyeHXzovaXl-27">
          
          <mxGeometry relative="1" as="geometry" />
          
        </mxCell>
        
        <mxCell id="1dTuGjO7kMyeHXzovaXl-23" value="推荐好友" style="whiteSpace=wrap;html=1;rounded=0;fontSize=17;" vertex="1" parent="kHiiex_DuWeRRNS4Jv-h-1">
          
          <mxGeometry x="401" y="368" width="90" height="50" as="geometry" />
          
        </mxCell>
        
        <mxCell id="1dTuGjO7kMyeHXzovaXl-24" value="" style="edgeStyle=orthogonalEdgeStyle;rounded=0;orthogonalLoop=1;jettySize=auto;html=1;labelBackgroundColor=#FF8000;fontSize=17;" edge="1" parent="kHiiex_DuWeRRNS4Jv-h-1" source="1dTuGjO7kMyeHXzovaXl-25" target="1dTuGjO7kMyeHXzovaXl-33">
          
          <mxGeometry relative="1" as="geometry" />
          
        </mxCell>
        
        <mxCell id="1dTuGjO7kMyeHXzovaXl-25" value="我要应聘" style="whiteSpace=wrap;html=1;rounded=0;fontSize=17;" vertex="1" parent="kHiiex_DuWeRRNS4Jv-h-1">
          
          <mxGeometry x="401" y="448" width="90" height="50" as="geometry" />
          
        </mxCell>
        
        <mxCell id="1dTuGjO7kMyeHXzovaXl-27" value="上传简历/填写信息" style="whiteSpace=wrap;html=1;rounded=0;fontSize=17;" vertex="1" parent="kHiiex_DuWeRRNS4Jv-h-1">
          
          <mxGeometry x="270" y="368.5" width="90" height="50" as="geometry" />
          
        </mxCell>
        
        <mxCell id="1dTuGjO7kMyeHXzovaXl-29" value="" style="edgeStyle=orthogonalEdgeStyle;rounded=0;orthogonalLoop=1;jettySize=auto;html=1;fontSize=17;exitX=0;exitY=0.5;exitDx=0;exitDy=0;entryX=1;entryY=0.5;entryDx=0;entryDy=0;" edge="1" parent="kHiiex_DuWeRRNS4Jv-h-1" source="1dTuGjO7kMyeHXzovaXl-16" target="1dTuGjO7kMyeHXzovaXl-23">
          
          <mxGeometry relative="1" as="geometry">
            
            <mxPoint x="637" y="507.5" as="sourcePoint" />
            
            <mxPoint x="591" y="508" as="targetPoint" />
            
          </mxGeometry>
          
        </mxCell>
        
        <mxCell id="1dTuGjO7kMyeHXzovaXl-30" value="" style="edgeStyle=orthogonalEdgeStyle;rounded=0;orthogonalLoop=1;jettySize=auto;html=1;fontSize=17;exitX=0;exitY=0.5;exitDx=0;exitDy=0;entryX=1;entryY=0.5;entryDx=0;entryDy=0;" edge="1" parent="kHiiex_DuWeRRNS4Jv-h-1" source="1dTuGjO7kMyeHXzovaXl-16" target="1dTuGjO7kMyeHXzovaXl-25">
          
          <mxGeometry relative="1" as="geometry">
            
            <mxPoint x="551" y="403.5" as="sourcePoint" />
            
            <mxPoint x="501" y="403" as="targetPoint" />
            
          </mxGeometry>
          
        </mxCell>
        
        <mxCell id="1dTuGjO7kMyeHXzovaXl-31" value="" style="edgeStyle=orthogonalEdgeStyle;rounded=0;orthogonalLoop=1;jettySize=auto;html=1;fontSize=17;exitX=0;exitY=0.5;exitDx=0;exitDy=0;entryX=0.5;entryY=1;entryDx=0;entryDy=0;" edge="1" parent="kHiiex_DuWeRRNS4Jv-h-1" source="1dTuGjO7kMyeHXzovaXl-21" target="1dTuGjO7kMyeHXzovaXl-7">
          
          <mxGeometry relative="1" as="geometry">
            
            <mxPoint x="411" y="403" as="sourcePoint" />
            
            <mxPoint x="365" y="403.5" as="targetPoint" />
            
          </mxGeometry>
          
        </mxCell>
        
        <mxCell id="1dTuGjO7kMyeHXzovaXl-33" value="获取本机号码&lt;br&gt;上传简历/填写信息" style="whiteSpace=wrap;html=1;rounded=0;fontSize=17;" vertex="1" parent="kHiiex_DuWeRRNS4Jv-h-1">
          
          <mxGeometry x="270" y="448" width="110" height="50" as="geometry" />
          
        </mxCell>
        
        <mxCell id="1dTuGjO7kMyeHXzovaXl-34" value="" style="edgeStyle=orthogonalEdgeStyle;rounded=0;orthogonalLoop=1;jettySize=auto;html=1;labelBackgroundColor=#FF8000;fontSize=17;entryX=1;entryY=0.5;entryDx=0;entryDy=0;exitX=0;exitY=0.5;exitDx=0;exitDy=0;" edge="1" parent="kHiiex_DuWeRRNS4Jv-h-1" source="1dTuGjO7kMyeHXzovaXl-27" target="1dTuGjO7kMyeHXzovaXl-38">
          
          <mxGeometry relative="1" as="geometry">
            
            <mxPoint x="141" y="393" as="sourcePoint" />
            
          </mxGeometry>
          
        </mxCell>
        
        <mxCell id="1dTuGjO7kMyeHXzovaXl-37" value="" style="edgeStyle=orthogonalEdgeStyle;rounded=0;orthogonalLoop=1;jettySize=auto;html=1;labelBackgroundColor=#FF8000;fontSize=17;" edge="1" parent="kHiiex_DuWeRRNS4Jv-h-1" source="1dTuGjO7kMyeHXzovaXl-38" target="1dTuGjO7kMyeHXzovaXl-39">
          
          <mxGeometry relative="1" as="geometry" />
          
        </mxCell>
        
        <mxCell id="1dTuGjO7kMyeHXzovaXl-38" value="关注公众号" style="whiteSpace=wrap;html=1;rounded=0;fontSize=17;" vertex="1" parent="kHiiex_DuWeRRNS4Jv-h-1">
          
          <mxGeometry x="110" y="410" width="90" height="50" as="geometry" />
          
        </mxCell>
        
        <mxCell id="L3VYAFSQzn6o1ub7kNBs-0" value="" style="edgeStyle=none;rounded=0;orthogonalLoop=1;jettySize=auto;html=1;labelBackgroundColor=#FF8000;fontSize=17;" edge="1" parent="kHiiex_DuWeRRNS4Jv-h-1" source="1dTuGjO7kMyeHXzovaXl-39" target="1dTuGjO7kMyeHXzovaXl-5">
          
          <mxGeometry relative="1" as="geometry" />
          
        </mxCell>
        
        <mxCell id="1dTuGjO7kMyeHXzovaXl-39" value="公众号&lt;br&gt;进度提醒" style="whiteSpace=wrap;html=1;rounded=0;fontSize=17;" vertex="1" parent="kHiiex_DuWeRRNS4Jv-h-1">
          
          <mxGeometry x="-20" y="410" width="90" height="50" as="geometry" />
          
        </mxCell>
        
        <mxCell id="1dTuGjO7kMyeHXzovaXl-40" value="" style="edgeStyle=orthogonalEdgeStyle;rounded=0;orthogonalLoop=1;jettySize=auto;html=1;labelBackgroundColor=#FF8000;fontSize=17;entryX=1;entryY=0.5;entryDx=0;entryDy=0;exitX=0;exitY=0.5;exitDx=0;exitDy=0;" edge="1" parent="kHiiex_DuWeRRNS4Jv-h-1" source="1dTuGjO7kMyeHXzovaXl-33" target="1dTuGjO7kMyeHXzovaXl-38">
          
          <mxGeometry relative="1" as="geometry">
            
            <mxPoint x="141" y="473" as="sourcePoint" />
            
            <mxPoint x="75" y="378.5" as="targetPoint" />
            
          </mxGeometry>
          
        </mxCell>
        
        <mxCell id="jjSLvqTSwXqRRg2GO2xU-0" value="" style="endArrow=none;dashed=1;html=1;labelBackgroundColor=#FF8000;fontSize=17;" edge="1" parent="kHiiex_DuWeRRNS4Jv-h-1">
          
          <mxGeometry width="50" height="50" relative="1" as="geometry">
            
            <mxPoint x="-140" y="260" as="sourcePoint" />
            
            <mxPoint x="780" y="260" as="targetPoint" />
            
          </mxGeometry>
          
        </mxCell>
        
      </root>
      
    </mxGraphModel>
    
  </diagram>
  <diagram id="DDyewJk438vFUsxPYsCF" name="邀请二级保荐人">
    
    <mxGraphModel dx="1753" dy="442" grid="1" gridSize="10" guides="1" tooltips="1" connect="1" arrows="1" fold="1" page="1" pageScale="1" pageWidth="827" pageHeight="1169" math="0" shadow="0">
      
      <root>
        
        <mxCell id="R5A0LKDeCAzdlyWlpv-d-0" />
        
        <mxCell id="R5A0LKDeCAzdlyWlpv-d-1" parent="R5A0LKDeCAzdlyWlpv-d-0" />
        
        <mxCell id="WCh6OWU0hmTV2vwr5Y1D-0" value="" style="edgeStyle=orthogonalEdgeStyle;rounded=0;orthogonalLoop=1;jettySize=auto;html=1;fontSize=17;" edge="1" parent="R5A0LKDeCAzdlyWlpv-d-1" source="WCh6OWU0hmTV2vwr5Y1D-1" target="WCh6OWU0hmTV2vwr5Y1D-7">
          
          <mxGeometry relative="1" as="geometry" />
          
        </mxCell>
        
        <mxCell id="WCh6OWU0hmTV2vwr5Y1D-1" value="个人主页" style="rounded=0;whiteSpace=wrap;html=1;fontSize=17;" vertex="1" parent="R5A0LKDeCAzdlyWlpv-d-1">
          
          <mxGeometry x="151" y="133" width="80" height="50" as="geometry" />
          
        </mxCell>
        
        <mxCell id="WCh6OWU0hmTV2vwr5Y1D-2" value="" style="edgeStyle=orthogonalEdgeStyle;rounded=0;orthogonalLoop=1;jettySize=auto;html=1;fontSize=14;" edge="1" parent="R5A0LKDeCAzdlyWlpv-d-1" source="WCh6OWU0hmTV2vwr5Y1D-4" target="WCh6OWU0hmTV2vwr5Y1D-1">
          
          <mxGeometry relative="1" as="geometry" />
          
        </mxCell>
        
        <mxCell id="WCh6OWU0hmTV2vwr5Y1D-4" value="保荐人" style="shape=umlActor;verticalLabelPosition=bottom;verticalAlign=top;html=1;outlineConnect=0;rounded=0;fontSize=14;" vertex="1" parent="R5A0LKDeCAzdlyWlpv-d-1">
          
          <mxGeometry x="-100" y="128" width="30" height="60" as="geometry" />
          
        </mxCell>
        
        <mxCell id="WCh6OWU0hmTV2vwr5Y1D-5" value="二级保荐人" style="shape=umlActor;verticalLabelPosition=bottom;verticalAlign=top;html=1;outlineConnect=0;rounded=0;fontSize=14;" vertex="1" parent="R5A0LKDeCAzdlyWlpv-d-1">
          
          <mxGeometry x="-100" y="380" width="30" height="60" as="geometry" />
          
        </mxCell>
        
        <mxCell id="WCh6OWU0hmTV2vwr5Y1D-6" value="" style="edgeStyle=orthogonalEdgeStyle;rounded=0;orthogonalLoop=1;jettySize=auto;html=1;fontSize=17;" edge="1" parent="R5A0LKDeCAzdlyWlpv-d-1" source="WCh6OWU0hmTV2vwr5Y1D-7" target="WCh6OWU0hmTV2vwr5Y1D-9">
          
          <mxGeometry relative="1" as="geometry" />
          
        </mxCell>
        
        <mxCell id="WCh6OWU0hmTV2vwr5Y1D-7" value="邀请好友" style="whiteSpace=wrap;html=1;rounded=0;fontSize=17;fillColor=#ffcc99;strokeColor=#36393d;" vertex="1" parent="R5A0LKDeCAzdlyWlpv-d-1">
          
          <mxGeometry x="271" y="133" width="80" height="50" as="geometry" />
          
        </mxCell>
        
        <mxCell id="WCh6OWU0hmTV2vwr5Y1D-8" value="" style="edgeStyle=orthogonalEdgeStyle;rounded=0;orthogonalLoop=1;jettySize=auto;html=1;fontSize=17;" edge="1" parent="R5A0LKDeCAzdlyWlpv-d-1" source="WCh6OWU0hmTV2vwr5Y1D-9" target="WCh6OWU0hmTV2vwr5Y1D-14">
          
          <mxGeometry relative="1" as="geometry" />
          
        </mxCell>
        
        <mxCell id="WCh6OWU0hmTV2vwr5Y1D-9" value="生成图片" style="whiteSpace=wrap;html=1;rounded=0;fontSize=17;" vertex="1" parent="R5A0LKDeCAzdlyWlpv-d-1">
          
          <mxGeometry x="401" y="93" width="80" height="50" as="geometry" />
          
        </mxCell>
        
        <mxCell id="WCh6OWU0hmTV2vwr5Y1D-10" value="" style="edgeStyle=orthogonalEdgeStyle;rounded=0;orthogonalLoop=1;jettySize=auto;html=1;fontSize=17;" edge="1" parent="R5A0LKDeCAzdlyWlpv-d-1" source="WCh6OWU0hmTV2vwr5Y1D-11" target="WCh6OWU0hmTV2vwr5Y1D-18">
          
          <mxGeometry relative="1" as="geometry" />
          
        </mxCell>
        
        <mxCell id="WCh6OWU0hmTV2vwr5Y1D-11" value="小程序&lt;br&gt;分享" style="whiteSpace=wrap;html=1;rounded=0;fontSize=17;" vertex="1" parent="R5A0LKDeCAzdlyWlpv-d-1">
          
          <mxGeometry x="401" y="170.5" width="80" height="50" as="geometry" />
          
        </mxCell>
        
        <mxCell id="WCh6OWU0hmTV2vwr5Y1D-12" value="" style="edgeStyle=orthogonalEdgeStyle;rounded=0;orthogonalLoop=1;jettySize=auto;html=1;fontSize=17;entryX=0;entryY=0.5;entryDx=0;entryDy=0;exitX=1;exitY=0.5;exitDx=0;exitDy=0;" edge="1" parent="R5A0LKDeCAzdlyWlpv-d-1" source="WCh6OWU0hmTV2vwr5Y1D-7" target="WCh6OWU0hmTV2vwr5Y1D-11">
          
          <mxGeometry relative="1" as="geometry">
            
            <mxPoint x="361" y="168" as="sourcePoint" />
            
            <mxPoint x="401" y="213" as="targetPoint" />
            
          </mxGeometry>
          
        </mxCell>
        
        <mxCell id="WCh6OWU0hmTV2vwr5Y1D-13" value="" style="edgeStyle=orthogonalEdgeStyle;rounded=0;orthogonalLoop=1;jettySize=auto;html=1;fontSize=17;" edge="1" parent="R5A0LKDeCAzdlyWlpv-d-1" source="WCh6OWU0hmTV2vwr5Y1D-14" target="WCh6OWU0hmTV2vwr5Y1D-20">
          
          <mxGeometry relative="1" as="geometry" />
          
        </mxCell>
        
        <mxCell id="WCh6OWU0hmTV2vwr5Y1D-14" value="分享&lt;br&gt;（多渠道）" style="whiteSpace=wrap;html=1;rounded=0;fontSize=17;" vertex="1" parent="R5A0LKDeCAzdlyWlpv-d-1">
          
          <mxGeometry x="541" y="90" width="90" height="55" as="geometry" />
          
        </mxCell>
        
        <mxCell id="WCh6OWU0hmTV2vwr5Y1D-16" value="微信登录" style="whiteSpace=wrap;html=1;rounded=0;fontSize=17;" vertex="1" parent="R5A0LKDeCAzdlyWlpv-d-1">
          
          <mxGeometry x="541" y="366" width="90" height="55" as="geometry" />
          
        </mxCell>
        
        <mxCell id="WCh6OWU0hmTV2vwr5Y1D-17" value="" style="edgeStyle=orthogonalEdgeStyle;rounded=0;orthogonalLoop=1;jettySize=auto;html=1;fontSize=17;" edge="1" parent="R5A0LKDeCAzdlyWlpv-d-1" source="WCh6OWU0hmTV2vwr5Y1D-18" target="WCh6OWU0hmTV2vwr5Y1D-16">
          
          <mxGeometry relative="1" as="geometry" />
          
        </mxCell>
        
        <mxCell id="WCh6OWU0hmTV2vwr5Y1D-18" value="点击小程序" style="whiteSpace=wrap;html=1;rounded=0;fontSize=17;" vertex="1" parent="R5A0LKDeCAzdlyWlpv-d-1">
          
          <mxGeometry x="541" y="280.5" width="90" height="55" as="geometry" />
          
        </mxCell>
        
        <mxCell id="WCh6OWU0hmTV2vwr5Y1D-19" value="" style="edgeStyle=orthogonalEdgeStyle;rounded=0;orthogonalLoop=1;jettySize=auto;html=1;fontSize=17;entryX=1;entryY=0.5;entryDx=0;entryDy=0;exitX=0.5;exitY=1;exitDx=0;exitDy=0;" edge="1" parent="R5A0LKDeCAzdlyWlpv-d-1" source="WCh6OWU0hmTV2vwr5Y1D-20" target="WCh6OWU0hmTV2vwr5Y1D-16">
          
          <mxGeometry relative="1" as="geometry">
            
            <mxPoint x="721" y="222.5" as="targetPoint" />
            
          </mxGeometry>
          
        </mxCell>
        
        <mxCell id="WCh6OWU0hmTV2vwr5Y1D-20" value="扫描小程序二维码" style="whiteSpace=wrap;html=1;rounded=0;fontSize=17;" vertex="1" parent="R5A0LKDeCAzdlyWlpv-d-1">
          
          <mxGeometry x="676" y="280.5" width="90" height="55" as="geometry" />
          
        </mxCell>
        
        <mxCell id="WCh6OWU0hmTV2vwr5Y1D-26" value="查看岗位" style="whiteSpace=wrap;html=1;rounded=0;fontSize=17;" vertex="1" parent="R5A0LKDeCAzdlyWlpv-d-1">
          
          <mxGeometry x="324" y="368.5" width="90" height="50" as="geometry" />
          
        </mxCell>
        
        <mxCell id="WCh6OWU0hmTV2vwr5Y1D-27" value="" style="edgeStyle=orthogonalEdgeStyle;rounded=0;orthogonalLoop=1;jettySize=auto;html=1;fontSize=17;exitX=0;exitY=0.5;exitDx=0;exitDy=0;" edge="1" parent="R5A0LKDeCAzdlyWlpv-d-1" source="WCh6OWU0hmTV2vwr5Y1D-16" target="WCh6OWU0hmTV2vwr5Y1D-26">
          
          <mxGeometry relative="1" as="geometry">
            
            <mxPoint x="637" y="507.5" as="sourcePoint" />
            
            <mxPoint x="491" y="393" as="targetPoint" />
            
          </mxGeometry>
          
        </mxCell>
        
        <mxCell id="WCh6OWU0hmTV2vwr5Y1D-31" value="" style="edgeStyle=orthogonalEdgeStyle;rounded=0;orthogonalLoop=1;jettySize=auto;html=1;labelBackgroundColor=#FF8000;fontSize=17;entryX=1;entryY=0.5;entryDx=0;entryDy=0;exitX=0;exitY=0.5;exitDx=0;exitDy=0;" edge="1" parent="R5A0LKDeCAzdlyWlpv-d-1" source="WCh6OWU0hmTV2vwr5Y1D-26" target="WCh6OWU0hmTV2vwr5Y1D-33">
          
          <mxGeometry relative="1" as="geometry">
            
            <mxPoint x="141" y="393" as="sourcePoint" />
            
          </mxGeometry>
          
        </mxCell>
        
        <mxCell id="WCh6OWU0hmTV2vwr5Y1D-32" value="" style="edgeStyle=orthogonalEdgeStyle;rounded=0;orthogonalLoop=1;jettySize=auto;html=1;labelBackgroundColor=#FF8000;fontSize=17;" edge="1" parent="R5A0LKDeCAzdlyWlpv-d-1" source="WCh6OWU0hmTV2vwr5Y1D-33" target="WCh6OWU0hmTV2vwr5Y1D-34">
          
          <mxGeometry relative="1" as="geometry" />
          
        </mxCell>
        
        <mxCell id="WCh6OWU0hmTV2vwr5Y1D-33" value="上传人脉" style="whiteSpace=wrap;html=1;rounded=0;fontSize=17;" vertex="1" parent="R5A0LKDeCAzdlyWlpv-d-1">
          
          <mxGeometry x="149" y="368.5" width="90" height="50" as="geometry" />
          
        </mxCell>
        
        <mxCell id="gWlAZkIB04kub73msuqJ-1" value="" style="edgeStyle=orthogonalEdgeStyle;rounded=0;orthogonalLoop=1;jettySize=auto;html=1;labelBackgroundColor=#FF8000;fontSize=17;" edge="1" parent="R5A0LKDeCAzdlyWlpv-d-1" source="WCh6OWU0hmTV2vwr5Y1D-34" target="gWlAZkIB04kub73msuqJ-0">
          
          <mxGeometry relative="1" as="geometry" />
          
        </mxCell>
        
        <mxCell id="WCh6OWU0hmTV2vwr5Y1D-34" value="入职" style="whiteSpace=wrap;html=1;rounded=0;fontSize=17;" vertex="1" parent="R5A0LKDeCAzdlyWlpv-d-1">
          
          <mxGeometry x="149" y="270" width="90" height="50" as="geometry" />
          
        </mxCell>
        
        <mxCell id="gWlAZkIB04kub73msuqJ-0" value="奖励" style="whiteSpace=wrap;html=1;rounded=0;fontSize=17;" vertex="1" parent="R5A0LKDeCAzdlyWlpv-d-1">
          
          <mxGeometry x="6" y="270" width="90" height="50" as="geometry" />
          
        </mxCell>
        
        <mxCell id="gWlAZkIB04kub73msuqJ-2" value="10%" style="rounded=0;orthogonalLoop=1;jettySize=auto;html=1;labelBackgroundColor=#FF8000;fontSize=17;entryX=1;entryY=1;entryDx=0;entryDy=0;entryPerimeter=0;exitX=0;exitY=0.25;exitDx=0;exitDy=0;" edge="1" parent="R5A0LKDeCAzdlyWlpv-d-1" source="gWlAZkIB04kub73msuqJ-0" target="WCh6OWU0hmTV2vwr5Y1D-4">
          
          <mxGeometry relative="1" as="geometry">
            
            <mxPoint x="159" y="305" as="sourcePoint" />
            
            <mxPoint x="106" y="305" as="targetPoint" />
            
          </mxGeometry>
          
        </mxCell>
        
        <mxCell id="gWlAZkIB04kub73msuqJ-3" value="90%" style="rounded=0;orthogonalLoop=1;jettySize=auto;html=1;labelBackgroundColor=#FF8000;fontSize=17;entryX=1;entryY=0.3333333333333333;entryDx=0;entryDy=0;entryPerimeter=0;exitX=0;exitY=0.75;exitDx=0;exitDy=0;" edge="1" parent="R5A0LKDeCAzdlyWlpv-d-1" source="gWlAZkIB04kub73msuqJ-0" target="WCh6OWU0hmTV2vwr5Y1D-5">
          
          <mxGeometry relative="1" as="geometry">
            
            <mxPoint x="16" y="292.5" as="sourcePoint" />
            
            <mxPoint x="-60" y="198" as="targetPoint" />
            
          </mxGeometry>
          
        </mxCell>
        
        <mxCell id="SKBe7Age_QpznrOpd4js-1" value="" style="endArrow=none;dashed=1;html=1;labelBackgroundColor=#FF8000;fontSize=17;" edge="1" parent="R5A0LKDeCAzdlyWlpv-d-1">
          
          <mxGeometry width="50" height="50" relative="1" as="geometry">
            
            <mxPoint x="-140" y="250" as="sourcePoint" />
            
            <mxPoint x="780" y="250" as="targetPoint" />
            
          </mxGeometry>
          
        </mxCell>
        
      </root>
      
    </mxGraphModel>
    
  </diagram>
  <diagram id="bXTqcj6VBqUCe395MUTt" name="我的账户状态">
    
    <mxGraphModel dx="946" dy="565" grid="1" gridSize="10" guides="1" tooltips="1" connect="1" arrows="1" fold="1" page="1" pageScale="1" pageWidth="827" pageHeight="1169" math="0" shadow="0">
      
      <root>
        
        <mxCell id="b0aoTHMZ5HtYqQ8aWzMO-0" />
        
        <mxCell id="b0aoTHMZ5HtYqQ8aWzMO-1" parent="b0aoTHMZ5HtYqQ8aWzMO-0" />
        
        <mxCell id="b0aoTHMZ5HtYqQ8aWzMO-5" value="" style="edgeStyle=none;rounded=0;orthogonalLoop=1;jettySize=auto;html=1;labelBackgroundColor=#FF8000;fontSize=17;" edge="1" parent="b0aoTHMZ5HtYqQ8aWzMO-1" source="b0aoTHMZ5HtYqQ8aWzMO-3" target="b0aoTHMZ5HtYqQ8aWzMO-4">
          
          <mxGeometry relative="1" as="geometry" />
          
        </mxCell>
        
        <mxCell id="b0aoTHMZ5HtYqQ8aWzMO-6" value="简历通过&lt;br&gt;审核" style="edgeLabel;html=1;align=center;verticalAlign=middle;resizable=0;points=[];fontSize=17;" vertex="1" connectable="0" parent="b0aoTHMZ5HtYqQ8aWzMO-5">
          
          <mxGeometry x="0.1512" y="2" relative="1" as="geometry">
            
            <mxPoint as="offset" />
            
          </mxGeometry>
          
        </mxCell>
        
        <mxCell id="b0aoTHMZ5HtYqQ8aWzMO-3" value="开始" style="ellipse;whiteSpace=wrap;html=1;aspect=fixed;rounded=0;fontSize=17;fillColor=#bac8d3;strokeColor=#23445d;" vertex="1" parent="b0aoTHMZ5HtYqQ8aWzMO-1">
          
          <mxGeometry x="30" y="160" width="80" height="80" as="geometry" />
          
        </mxCell>
        
        <mxCell id="b0aoTHMZ5HtYqQ8aWzMO-8" value="" style="edgeStyle=none;rounded=0;orthogonalLoop=1;jettySize=auto;html=1;labelBackgroundColor=#FF8000;fontSize=17;" edge="1" parent="b0aoTHMZ5HtYqQ8aWzMO-1" source="b0aoTHMZ5HtYqQ8aWzMO-4" target="b0aoTHMZ5HtYqQ8aWzMO-7">
          
          <mxGeometry relative="1" as="geometry" />
          
        </mxCell>
        
        <mxCell id="b0aoTHMZ5HtYqQ8aWzMO-11" value="入职" style="edgeLabel;html=1;align=center;verticalAlign=middle;resizable=0;points=[];fontSize=17;" vertex="1" connectable="0" parent="b0aoTHMZ5HtYqQ8aWzMO-8">
          
          <mxGeometry x="-0.3619" y="1" relative="1" as="geometry">
            
            <mxPoint as="offset" />
            
          </mxGeometry>
          
        </mxCell>
        
        <mxCell id="b0aoTHMZ5HtYqQ8aWzMO-4" value="预期收入&lt;br&gt;（范围）" style="ellipse;whiteSpace=wrap;html=1;aspect=fixed;rounded=0;strokeColor=#000000;fontSize=17;" vertex="1" parent="b0aoTHMZ5HtYqQ8aWzMO-1">
          
          <mxGeometry x="270" y="160" width="80" height="80" as="geometry" />
          
        </mxCell>
        
        <mxCell id="b0aoTHMZ5HtYqQ8aWzMO-10" value="" style="edgeStyle=none;rounded=0;orthogonalLoop=1;jettySize=auto;html=1;labelBackgroundColor=#FF8000;fontSize=17;" edge="1" parent="b0aoTHMZ5HtYqQ8aWzMO-1" source="b0aoTHMZ5HtYqQ8aWzMO-7" target="b0aoTHMZ5HtYqQ8aWzMO-9">
          
          <mxGeometry relative="1" as="geometry" />
          
        </mxCell>
        
        <mxCell id="b0aoTHMZ5HtYqQ8aWzMO-12" value="过保" style="edgeLabel;html=1;align=center;verticalAlign=middle;resizable=0;points=[];fontSize=17;" vertex="1" connectable="0" parent="b0aoTHMZ5HtYqQ8aWzMO-10">
          
          <mxGeometry x="0.1631" y="-1" relative="1" as="geometry">
            
            <mxPoint as="offset" />
            
          </mxGeometry>
          
        </mxCell>
        
        <mxCell id="b0aoTHMZ5HtYqQ8aWzMO-7" value="待结算" style="ellipse;whiteSpace=wrap;html=1;aspect=fixed;rounded=0;strokeColor=#000000;fontSize=17;" vertex="1" parent="b0aoTHMZ5HtYqQ8aWzMO-1">
          
          <mxGeometry x="270" y="300" width="80" height="80" as="geometry" />
          
        </mxCell>
        
        <mxCell id="b0aoTHMZ5HtYqQ8aWzMO-14" value="" style="edgeStyle=none;rounded=0;orthogonalLoop=1;jettySize=auto;html=1;labelBackgroundColor=#FF8000;fontSize=17;" edge="1" parent="b0aoTHMZ5HtYqQ8aWzMO-1" source="b0aoTHMZ5HtYqQ8aWzMO-9" target="b0aoTHMZ5HtYqQ8aWzMO-13">
          
          <mxGeometry relative="1" as="geometry" />
          
        </mxCell>
        
        <mxCell id="b0aoTHMZ5HtYqQ8aWzMO-15" value="兑换" style="edgeLabel;html=1;align=center;verticalAlign=middle;resizable=0;points=[];fontSize=17;" vertex="1" connectable="0" parent="b0aoTHMZ5HtYqQ8aWzMO-14">
          
          <mxGeometry x="-0.2119" y="1" relative="1" as="geometry">
            
            <mxPoint as="offset" />
            
          </mxGeometry>
          
        </mxCell>
        
        <mxCell id="b0aoTHMZ5HtYqQ8aWzMO-9" value="已结算" style="ellipse;whiteSpace=wrap;html=1;aspect=fixed;rounded=0;strokeColor=#000000;fontSize=17;" vertex="1" parent="b0aoTHMZ5HtYqQ8aWzMO-1">
          
          <mxGeometry x="430" y="300" width="80" height="80" as="geometry" />
          
        </mxCell>
        
        <mxCell id="b0aoTHMZ5HtYqQ8aWzMO-13" value="已兑换" style="ellipse;whiteSpace=wrap;html=1;aspect=fixed;rounded=0;strokeColor=#000000;fontSize=17;" vertex="1" parent="b0aoTHMZ5HtYqQ8aWzMO-1">
          
          <mxGeometry x="430" y="460" width="80" height="80" as="geometry" />
          
        </mxCell>
        
      </root>
      
    </mxGraphModel>
    
  </diagram>
  <diagram id="X-6owPBPWGXQBzMildoq" name="申请兑换状态">
    
    <mxGraphModel dx="946" dy="614" grid="1" gridSize="10" guides="1" tooltips="1" connect="1" arrows="1" fold="1" page="1" pageScale="1" pageWidth="827" pageHeight="1169" math="0" shadow="0">
      
      <root>
        
        <mxCell id="E_w7aInf2Lp2Jq4tm2ir-0" />
        
        <mxCell id="E_w7aInf2Lp2Jq4tm2ir-1" parent="E_w7aInf2Lp2Jq4tm2ir-0" />
        
        <mxCell id="BCqMnA27XmkyW7vbF9Jl-0" value="" style="edgeStyle=none;rounded=0;orthogonalLoop=1;jettySize=auto;html=1;labelBackgroundColor=#FF8000;fontSize=17;" parent="E_w7aInf2Lp2Jq4tm2ir-1" source="BCqMnA27XmkyW7vbF9Jl-2" target="BCqMnA27XmkyW7vbF9Jl-5" edge="1">
          
          <mxGeometry relative="1" as="geometry" />
          
        </mxCell>
        
        <mxCell id="BCqMnA27XmkyW7vbF9Jl-1" value="提交申请" style="edgeLabel;html=1;align=center;verticalAlign=middle;resizable=0;points=[];fontSize=17;" parent="BCqMnA27XmkyW7vbF9Jl-0" vertex="1" connectable="0">
          
          <mxGeometry x="0.1512" y="2" relative="1" as="geometry">
            
            <mxPoint as="offset" />
            
          </mxGeometry>
          
        </mxCell>
        
        <mxCell id="BCqMnA27XmkyW7vbF9Jl-2" value="开始" style="ellipse;whiteSpace=wrap;html=1;aspect=fixed;rounded=0;fontSize=17;fillColor=#bac8d3;strokeColor=#23445d;" parent="E_w7aInf2Lp2Jq4tm2ir-1" vertex="1">
          
          <mxGeometry x="50" y="160" width="80" height="80" as="geometry" />
          
        </mxCell>
        
        <mxCell id="BCqMnA27XmkyW7vbF9Jl-3" value="" style="edgeStyle=none;rounded=0;orthogonalLoop=1;jettySize=auto;html=1;labelBackgroundColor=#FF8000;fontSize=17;" parent="E_w7aInf2Lp2Jq4tm2ir-1" edge="1">
          
          <mxGeometry relative="1" as="geometry">
            
            <mxPoint x="327" y="240" as="sourcePoint" />
            
            <mxPoint x="327" y="300" as="targetPoint" />
            
          </mxGeometry>
          
        </mxCell>
        
        <mxCell id="BCqMnA27XmkyW7vbF9Jl-4" value="驳回" style="edgeLabel;html=1;align=center;verticalAlign=middle;resizable=0;points=[];fontSize=17;" parent="BCqMnA27XmkyW7vbF9Jl-3" vertex="1" connectable="0">
          
          <mxGeometry x="-0.3619" y="1" relative="1" as="geometry">
            
            <mxPoint x="21" y="11" as="offset" />
            
          </mxGeometry>
          
        </mxCell>
        
        <mxCell id="u_lsVJ6cEckaZbLWkRym-1" value="" style="edgeStyle=none;rounded=0;orthogonalLoop=1;jettySize=auto;html=1;labelBackgroundColor=#FF8000;fontSize=17;" parent="E_w7aInf2Lp2Jq4tm2ir-1" source="BCqMnA27XmkyW7vbF9Jl-5" target="u_lsVJ6cEckaZbLWkRym-0" edge="1">
          
          <mxGeometry relative="1" as="geometry" />
          
        </mxCell>
        
        <mxCell id="u_lsVJ6cEckaZbLWkRym-2" value="业务通过审核" style="edgeLabel;html=1;align=center;verticalAlign=middle;resizable=0;points=[];fontSize=17;" parent="u_lsVJ6cEckaZbLWkRym-1" vertex="1" connectable="0">
          
          <mxGeometry x="-0.0889" y="-1" relative="1" as="geometry">
            
            <mxPoint as="offset" />
            
          </mxGeometry>
          
        </mxCell>
        
        <mxCell id="BCqMnA27XmkyW7vbF9Jl-5" value="审核中" style="ellipse;whiteSpace=wrap;html=1;aspect=fixed;rounded=0;strokeColor=#000000;fontSize=17;" parent="E_w7aInf2Lp2Jq4tm2ir-1" vertex="1">
          
          <mxGeometry x="270" y="160" width="80" height="80" as="geometry" />
          
        </mxCell>
        
        <mxCell id="u_lsVJ6cEckaZbLWkRym-5" value="" style="edgeStyle=none;rounded=0;orthogonalLoop=1;jettySize=auto;html=1;labelBackgroundColor=#FF8000;fontSize=17;" parent="E_w7aInf2Lp2Jq4tm2ir-1" edge="1">
          
          <mxGeometry relative="1" as="geometry">
            
            <mxPoint x="290" y="300" as="sourcePoint" />
            
            <mxPoint x="290" y="240" as="targetPoint" />
            
          </mxGeometry>
          
        </mxCell>
        
        <mxCell id="u_lsVJ6cEckaZbLWkRym-6" value="重新提交" style="edgeLabel;html=1;align=center;verticalAlign=middle;resizable=0;points=[];fontSize=17;" parent="u_lsVJ6cEckaZbLWkRym-5" vertex="1" connectable="0">
          
          <mxGeometry x="-0.0333" relative="1" as="geometry">
            
            <mxPoint x="-40" as="offset" />
            
          </mxGeometry>
          
        </mxCell>
        
        <mxCell id="BCqMnA27XmkyW7vbF9Jl-8" value="兑换失败" style="ellipse;whiteSpace=wrap;html=1;aspect=fixed;rounded=0;strokeColor=#000000;fontSize=17;" parent="E_w7aInf2Lp2Jq4tm2ir-1" vertex="1">
          
          <mxGeometry x="270" y="300" width="80" height="80" as="geometry" />
          
        </mxCell>
        
        <mxCell id="BCqMnA27XmkyW7vbF9Jl-9" value="" style="edgeStyle=none;rounded=0;orthogonalLoop=1;jettySize=auto;html=1;labelBackgroundColor=#FF8000;fontSize=17;" parent="E_w7aInf2Lp2Jq4tm2ir-1" source="BCqMnA27XmkyW7vbF9Jl-11" target="BCqMnA27XmkyW7vbF9Jl-12" edge="1">
          
          <mxGeometry relative="1" as="geometry" />
          
        </mxCell>
        
        <mxCell id="BCqMnA27XmkyW7vbF9Jl-11" value="兑换成功" style="ellipse;whiteSpace=wrap;html=1;aspect=fixed;rounded=0;strokeColor=#000000;fontSize=17;" parent="E_w7aInf2Lp2Jq4tm2ir-1" vertex="1">
          
          <mxGeometry x="480" y="300" width="80" height="80" as="geometry" />
          
        </mxCell>
        
        <mxCell id="BCqMnA27XmkyW7vbF9Jl-12" value="结束" style="ellipse;whiteSpace=wrap;html=1;aspect=fixed;rounded=0;strokeColor=#23445d;fontSize=17;fillColor=#bac8d3;" parent="E_w7aInf2Lp2Jq4tm2ir-1" vertex="1">
          
          <mxGeometry x="480" y="450" width="80" height="80" as="geometry" />
          
        </mxCell>
        
        <mxCell id="u_lsVJ6cEckaZbLWkRym-3" value="" style="edgeStyle=none;rounded=0;orthogonalLoop=1;jettySize=auto;html=1;labelBackgroundColor=#FF8000;fontSize=17;" parent="E_w7aInf2Lp2Jq4tm2ir-1" source="u_lsVJ6cEckaZbLWkRym-0" target="BCqMnA27XmkyW7vbF9Jl-11" edge="1">
          
          <mxGeometry relative="1" as="geometry" />
          
        </mxCell>
        
        <mxCell id="u_lsVJ6cEckaZbLWkRym-4" value="成功" style="edgeLabel;html=1;align=center;verticalAlign=middle;resizable=0;points=[];fontSize=17;" parent="u_lsVJ6cEckaZbLWkRym-3" vertex="1" connectable="0">
          
          <mxGeometry x="-0.2" y="1" relative="1" as="geometry">
            
            <mxPoint as="offset" />
            
          </mxGeometry>
          
        </mxCell>
        
        <mxCell id="u_lsVJ6cEckaZbLWkRym-0" value="兑换中" style="ellipse;whiteSpace=wrap;html=1;aspect=fixed;rounded=0;strokeColor=#000000;fontSize=17;" parent="E_w7aInf2Lp2Jq4tm2ir-1" vertex="1">
          
          <mxGeometry x="480" y="160" width="80" height="80" as="geometry" />
          
        </mxCell>
        
        <mxCell id="u_lsVJ6cEckaZbLWkRym-7" value="" style="edgeStyle=none;rounded=0;orthogonalLoop=1;jettySize=auto;html=1;labelBackgroundColor=#FF8000;fontSize=17;" parent="E_w7aInf2Lp2Jq4tm2ir-1" source="u_lsVJ6cEckaZbLWkRym-9" target="u_lsVJ6cEckaZbLWkRym-14" edge="1">
          
          <mxGeometry relative="1" as="geometry" />
          
        </mxCell>
        
        <mxCell id="u_lsVJ6cEckaZbLWkRym-8" value="兑换申请" style="edgeLabel;html=1;align=center;verticalAlign=middle;resizable=0;points=[];fontSize=17;" parent="u_lsVJ6cEckaZbLWkRym-7" vertex="1" connectable="0">
          
          <mxGeometry x="0.1512" y="2" relative="1" as="geometry">
            
            <mxPoint as="offset" />
            
          </mxGeometry>
          
        </mxCell>
        
        <mxCell id="u_lsVJ6cEckaZbLWkRym-9" value="开始" style="ellipse;whiteSpace=wrap;html=1;aspect=fixed;rounded=0;fontSize=17;fillColor=#bac8d3;strokeColor=#23445d;" parent="E_w7aInf2Lp2Jq4tm2ir-1" vertex="1">
          
          <mxGeometry x="60" y="585" width="80" height="80" as="geometry" />
          
        </mxCell>
        
        <mxCell id="u_lsVJ6cEckaZbLWkRym-10" value="" style="edgeStyle=none;rounded=0;orthogonalLoop=1;jettySize=auto;html=1;labelBackgroundColor=#FF8000;fontSize=17;" parent="E_w7aInf2Lp2Jq4tm2ir-1" edge="1">
          
          <mxGeometry relative="1" as="geometry">
            
            <mxPoint x="337" y="665" as="sourcePoint" />
            
            <mxPoint x="337" y="725" as="targetPoint" />
            
          </mxGeometry>
          
        </mxCell>
        
        <mxCell id="u_lsVJ6cEckaZbLWkRym-11" value="驳回" style="edgeLabel;html=1;align=center;verticalAlign=middle;resizable=0;points=[];fontSize=17;" parent="u_lsVJ6cEckaZbLWkRym-10" vertex="1" connectable="0">
          
          <mxGeometry x="-0.3619" y="1" relative="1" as="geometry">
            
            <mxPoint x="21" y="11" as="offset" />
            
          </mxGeometry>
          
        </mxCell>
        
        <mxCell id="u_lsVJ6cEckaZbLWkRym-12" value="" style="edgeStyle=none;rounded=0;orthogonalLoop=1;jettySize=auto;html=1;labelBackgroundColor=#FF8000;fontSize=17;" parent="E_w7aInf2Lp2Jq4tm2ir-1" source="u_lsVJ6cEckaZbLWkRym-14" target="u_lsVJ6cEckaZbLWkRym-23" edge="1">
          
          <mxGeometry relative="1" as="geometry" />
          
        </mxCell>
        
        <mxCell id="u_lsVJ6cEckaZbLWkRym-13" value="兑换" style="edgeLabel;html=1;align=center;verticalAlign=middle;resizable=0;points=[];fontSize=17;" parent="u_lsVJ6cEckaZbLWkRym-12" vertex="1" connectable="0">
          
          <mxGeometry x="-0.0889" y="-1" relative="1" as="geometry">
            
            <mxPoint as="offset" />
            
          </mxGeometry>
          
        </mxCell>
        
        <mxCell id="u_lsVJ6cEckaZbLWkRym-14" value="兑换中" style="ellipse;whiteSpace=wrap;html=1;aspect=fixed;rounded=0;strokeColor=#000000;fontSize=17;" parent="E_w7aInf2Lp2Jq4tm2ir-1" vertex="1">
          
          <mxGeometry x="280" y="585" width="80" height="80" as="geometry" />
          
        </mxCell>
        
        <mxCell id="u_lsVJ6cEckaZbLWkRym-15" value="" style="edgeStyle=none;rounded=0;orthogonalLoop=1;jettySize=auto;html=1;labelBackgroundColor=#FF8000;fontSize=17;" parent="E_w7aInf2Lp2Jq4tm2ir-1" edge="1">
          
          <mxGeometry relative="1" as="geometry">
            
            <mxPoint x="300" y="725" as="sourcePoint" />
            
            <mxPoint x="300" y="665" as="targetPoint" />
            
          </mxGeometry>
          
        </mxCell>
        
        <mxCell id="u_lsVJ6cEckaZbLWkRym-16" value="重新提交" style="edgeLabel;html=1;align=center;verticalAlign=middle;resizable=0;points=[];fontSize=17;" parent="u_lsVJ6cEckaZbLWkRym-15" vertex="1" connectable="0">
          
          <mxGeometry x="-0.0333" relative="1" as="geometry">
            
            <mxPoint x="-40" as="offset" />
            
          </mxGeometry>
          
        </mxCell>
        
        <mxCell id="u_lsVJ6cEckaZbLWkRym-17" value="兑换失败" style="ellipse;whiteSpace=wrap;html=1;aspect=fixed;rounded=0;strokeColor=#000000;fontSize=17;" parent="E_w7aInf2Lp2Jq4tm2ir-1" vertex="1">
          
          <mxGeometry x="280" y="725" width="80" height="80" as="geometry" />
          
        </mxCell>
        
        <mxCell id="u_lsVJ6cEckaZbLWkRym-20" value="结束" style="ellipse;whiteSpace=wrap;html=1;aspect=fixed;rounded=0;strokeColor=#23445d;fontSize=17;fillColor=#bac8d3;" parent="E_w7aInf2Lp2Jq4tm2ir-1" vertex="1">
          
          <mxGeometry x="490" y="730" width="80" height="80" as="geometry" />
          
        </mxCell>
        
        <mxCell id="u_lsVJ6cEckaZbLWkRym-21" value="" style="edgeStyle=none;rounded=0;orthogonalLoop=1;jettySize=auto;html=1;labelBackgroundColor=#FF8000;fontSize=17;" parent="E_w7aInf2Lp2Jq4tm2ir-1" source="u_lsVJ6cEckaZbLWkRym-23" edge="1">
          
          <mxGeometry relative="1" as="geometry">
            
            <mxPoint x="530" y="725" as="targetPoint" />
            
          </mxGeometry>
          
        </mxCell>
        
        <mxCell id="u_lsVJ6cEckaZbLWkRym-23" value="兑换成功" style="ellipse;whiteSpace=wrap;html=1;aspect=fixed;rounded=0;strokeColor=#000000;fontSize=17;" parent="E_w7aInf2Lp2Jq4tm2ir-1" vertex="1">
          
          <mxGeometry x="490" y="585" width="80" height="80" as="geometry" />
          
        </mxCell>
        
        <mxCell id="u_lsVJ6cEckaZbLWkRym-24" value="" style="edgeStyle=none;rounded=0;orthogonalLoop=1;jettySize=auto;html=1;labelBackgroundColor=#FF8000;fontSize=17;exitX=0;exitY=1;exitDx=0;exitDy=0;entryX=1;entryY=0;entryDx=0;entryDy=0;" parent="E_w7aInf2Lp2Jq4tm2ir-1" source="u_lsVJ6cEckaZbLWkRym-0" target="BCqMnA27XmkyW7vbF9Jl-8" edge="1">
          
          <mxGeometry relative="1" as="geometry">
            
            <mxPoint x="530" y="390" as="sourcePoint" />
            
            <mxPoint x="530" y="460" as="targetPoint" />
            
          </mxGeometry>
          
        </mxCell>
        
        <mxCell id="u_lsVJ6cEckaZbLWkRym-26" value="失败" style="edgeLabel;html=1;align=center;verticalAlign=middle;resizable=0;points=[];fontSize=17;" parent="u_lsVJ6cEckaZbLWkRym-24" vertex="1" connectable="0">
          
          <mxGeometry x="-0.1535" relative="1" as="geometry">
            
            <mxPoint as="offset" />
            
          </mxGeometry>
          
        </mxCell>
        
      </root>
      
    </mxGraphModel>
    
  </diagram>
  <diagram id="lMbmajOJptEi4z4ilrv3" name="Page-10">
    
    <mxGraphModel dx="823" dy="614" grid="1" gridSize="10" guides="1" tooltips="1" connect="1" arrows="1" fold="1" page="1" pageScale="1" pageWidth="827" pageHeight="1169" math="0" shadow="0">
      
      <root>
        
        <mxCell id="XI5TMi24bVU50Z7tjElz-0" />
        
        <mxCell id="XI5TMi24bVU50Z7tjElz-1" parent="XI5TMi24bVU50Z7tjElz-0" />
        
        <mxCell id="xf-AAbBTkY6oyPRCs_TF-0" value="" style="whiteSpace=wrap;html=1;aspect=fixed;" vertex="1" parent="XI5TMi24bVU50Z7tjElz-1">
          
          <mxGeometry x="230" y="50" width="530" height="530" as="geometry" />
          
        </mxCell>
        
        <mxCell id="xf-AAbBTkY6oyPRCs_TF-1" value="818犀牛计划" style="text;html=1;strokeColor=none;fillColor=none;align=center;verticalAlign=middle;whiteSpace=wrap;rounded=0;" vertex="1" parent="XI5TMi24bVU50Z7tjElz-1">
          
          <mxGeometry x="390.5" y="70" width="140" height="20" as="geometry" />
          
        </mxCell>
        
        <mxCell id="xf-AAbBTkY6oyPRCs_TF-2" value="召集令" style="text;html=1;strokeColor=none;fillColor=none;align=center;verticalAlign=middle;whiteSpace=wrap;rounded=0;" vertex="1" parent="XI5TMi24bVU50Z7tjElz-1">
          
          <mxGeometry x="395.5" y="110" width="130" height="30" as="geometry" />
          
        </mxCell>
        
        <mxCell id="xf-AAbBTkY6oyPRCs_TF-3" value="招募100个百万收入超级保荐人" style="text;html=1;strokeColor=none;fillColor=none;align=center;verticalAlign=middle;whiteSpace=wrap;rounded=0;" vertex="1" parent="XI5TMi24bVU50Z7tjElz-1">
          
          <mxGeometry x="360.5" y="150" width="200" height="30" as="geometry" />
          
        </mxCell>
        
        <mxCell id="xf-AAbBTkY6oyPRCs_TF-4" value="超级保荐人扶持计划，奖励+100%&lt;br&gt;&lt;br&gt;&lt;div&gt;1、免费成为超级会员&lt;/div&gt;&lt;div&gt;2、免费并优先参加犀牛培训&lt;/div&gt;&lt;div&gt;&lt;span&gt;3、职场人脉拓展1000+&lt;/span&gt;&lt;/div&gt;&lt;div&gt;4、精通职场私域运营&lt;/div&gt;&lt;div&gt;&lt;span&gt;5、所有成交岗位奖励+25%&lt;/span&gt;&lt;br&gt;&lt;/div&gt;&lt;div&gt;&lt;span&gt;6、上传人脉为超级人脉，奖励+25%&lt;/span&gt;&lt;/div&gt;&lt;div&gt;&lt;span&gt;7、好友成交自己奖励+30%&lt;/span&gt;&lt;/div&gt;" style="text;html=1;strokeColor=none;fillColor=none;align=left;verticalAlign=middle;whiteSpace=wrap;rounded=0;" vertex="1" parent="XI5TMi24bVU50Z7tjElz-1">
          
          <mxGeometry x="360.5" y="170" width="269.5" height="180" as="geometry" />
          
        </mxCell>
        
        <mxCell id="xf-AAbBTkY6oyPRCs_TF-5" value="活动期间赢取&lt;br&gt;&lt;br&gt;小米10至尊纪念版&lt;br&gt;&lt;br&gt;超500份奖励&lt;br&gt;&lt;br&gt;&lt;br&gt;小米手环、小米音箱、手机、充电宝宝" style="text;html=1;strokeColor=none;fillColor=none;align=center;verticalAlign=middle;whiteSpace=wrap;rounded=0;" vertex="1" parent="XI5TMi24bVU50Z7tjElz-1">
          
          <mxGeometry x="350" y="380" width="200" height="80" as="geometry" />
          
        </mxCell>
        
        <mxCell id="xf-AAbBTkY6oyPRCs_TF-6" value="了解详情，立即参与" style="rounded=1;whiteSpace=wrap;html=1;" vertex="1" parent="XI5TMi24bVU50Z7tjElz-1">
          
          <mxGeometry x="405.5" y="530" width="120" height="40" as="geometry" />
          
        </mxCell>
        
      </root>
      
    </mxGraphModel>
    
  </diagram>
  <diagram id="BMR1rGgnAKZfz4OLOQfm" name="ER关系">
    
    <mxGraphModel dx="823" dy="614" grid="1" gridSize="10" guides="1" tooltips="1" connect="1" arrows="1" fold="1" page="1" pageScale="1" pageWidth="827" pageHeight="1169" math="0" shadow="0">
      
      <root>
        
        <mxCell id="ozWoRrrQxh1W7pB_osk_-0" />
        
        <mxCell id="ozWoRrrQxh1W7pB_osk_-1" parent="ozWoRrrQxh1W7pB_osk_-0" />
        
        <mxCell id="C-Ilk46CbIWeGY9haolk-0" value="公司" style="rounded=1;whiteSpace=wrap;html=1;align=center;fontSize=16;" vertex="1" parent="ozWoRrrQxh1W7pB_osk_-1">
          
          <mxGeometry x="170" y="110" width="90" height="50" as="geometry" />
          
        </mxCell>
        
        <mxCell id="C-Ilk46CbIWeGY9haolk-2" value="" style="edgeStyle=orthogonalEdgeStyle;rounded=0;orthogonalLoop=1;jettySize=auto;html=1;fontSize=16;" edge="1" parent="ozWoRrrQxh1W7pB_osk_-1" source="C-Ilk46CbIWeGY9haolk-1" target="C-Ilk46CbIWeGY9haolk-0">
          
          <mxGeometry relative="1" as="geometry" />
          
        </mxCell>
        
        <mxCell id="C-Ilk46CbIWeGY9haolk-1" value="客户" style="rounded=1;whiteSpace=wrap;html=1;align=center;fontSize=16;" vertex="1" parent="ozWoRrrQxh1W7pB_osk_-1">
          
          <mxGeometry x="170" y="220" width="90" height="50" as="geometry" />
          
        </mxCell>
        
        <mxCell id="C-Ilk46CbIWeGY9haolk-4" value="" style="edgeStyle=orthogonalEdgeStyle;rounded=0;orthogonalLoop=1;jettySize=auto;html=1;fontSize=16;" edge="1" parent="ozWoRrrQxh1W7pB_osk_-1" source="C-Ilk46CbIWeGY9haolk-3" target="C-Ilk46CbIWeGY9haolk-0">
          
          <mxGeometry relative="1" as="geometry" />
          
        </mxCell>
        
        <mxCell id="C-Ilk46CbIWeGY9haolk-3" value="职位" style="rounded=1;whiteSpace=wrap;html=1;align=center;fontSize=16;" vertex="1" parent="ozWoRrrQxh1W7pB_osk_-1">
          
          <mxGeometry x="330" y="110" width="90" height="50" as="geometry" />
          
        </mxCell>
        
        <mxCell id="C-Ilk46CbIWeGY9haolk-11" value="" style="edgeStyle=none;rounded=0;orthogonalLoop=1;jettySize=auto;html=1;fontSize=16;" edge="1" parent="ozWoRrrQxh1W7pB_osk_-1" source="C-Ilk46CbIWeGY9haolk-5" target="C-Ilk46CbIWeGY9haolk-3">
          
          <mxGeometry relative="1" as="geometry" />
          
        </mxCell>
        
        <mxCell id="C-Ilk46CbIWeGY9haolk-12" value="" style="edgeStyle=none;rounded=0;orthogonalLoop=1;jettySize=auto;html=1;fontSize=16;" edge="1" parent="ozWoRrrQxh1W7pB_osk_-1" source="C-Ilk46CbIWeGY9haolk-5" target="C-Ilk46CbIWeGY9haolk-8">
          
          <mxGeometry relative="1" as="geometry" />
          
        </mxCell>
        
        <mxCell id="C-Ilk46CbIWeGY9haolk-5" value="流程" style="rounded=1;whiteSpace=wrap;html=1;align=center;fontSize=16;" vertex="1" parent="ozWoRrrQxh1W7pB_osk_-1">
          
          <mxGeometry x="490" y="110" width="90" height="50" as="geometry" />
          
        </mxCell>
        
        <mxCell id="C-Ilk46CbIWeGY9haolk-17" value="" style="edgeStyle=none;rounded=0;orthogonalLoop=1;jettySize=auto;html=1;fontSize=16;" edge="1" parent="ozWoRrrQxh1W7pB_osk_-1" source="C-Ilk46CbIWeGY9haolk-8" target="C-Ilk46CbIWeGY9haolk-16">
          
          <mxGeometry relative="1" as="geometry" />
          
        </mxCell>
        
        <mxCell id="C-Ilk46CbIWeGY9haolk-8" value="人脉" style="rounded=1;whiteSpace=wrap;html=1;align=center;fontSize=16;" vertex="1" parent="ozWoRrrQxh1W7pB_osk_-1">
          
          <mxGeometry x="650" y="110" width="90" height="50" as="geometry" />
          
        </mxCell>
        
        <mxCell id="C-Ilk46CbIWeGY9haolk-15" value="" style="edgeStyle=none;rounded=0;orthogonalLoop=1;jettySize=auto;html=1;fontSize=16;" edge="1" parent="ozWoRrrQxh1W7pB_osk_-1" source="C-Ilk46CbIWeGY9haolk-13" target="C-Ilk46CbIWeGY9haolk-8">
          
          <mxGeometry relative="1" as="geometry" />
          
        </mxCell>
        
        <mxCell id="C-Ilk46CbIWeGY9haolk-13" value="简历" style="rounded=1;whiteSpace=wrap;html=1;align=center;fontSize=16;" vertex="1" parent="ozWoRrrQxh1W7pB_osk_-1">
          
          <mxGeometry x="650" y="10" width="90" height="50" as="geometry" />
          
        </mxCell>
        
        <mxCell id="C-Ilk46CbIWeGY9haolk-16" value="保荐人/&lt;br&gt;二级保荐人" style="rounded=1;whiteSpace=wrap;html=1;align=center;fontSize=16;" vertex="1" parent="ozWoRrrQxh1W7pB_osk_-1">
          
          <mxGeometry x="650" y="220" width="90" height="50" as="geometry" />
          
        </mxCell>
        
        <mxCell id="C-Ilk46CbIWeGY9haolk-21" value="" style="edgeStyle=elbowEdgeStyle;rounded=0;orthogonalLoop=1;jettySize=auto;html=1;fontSize=16;exitX=1;exitY=0;exitDx=0;exitDy=0;elbow=vertical;entryX=1;entryY=1;entryDx=0;entryDy=0;" edge="1" parent="ozWoRrrQxh1W7pB_osk_-1" source="C-Ilk46CbIWeGY9haolk-16" target="C-Ilk46CbIWeGY9haolk-16">
          
          <mxGeometry relative="1" as="geometry">
            
            <mxPoint x="705" y="170" as="sourcePoint" />
            
            <mxPoint x="705" y="230" as="targetPoint" />
            
            <Array as="points">
              
              <mxPoint x="790" y="245" />
              
            </Array>
            
          </mxGeometry>
          
        </mxCell>
        
      </root>
      
    </mxGraphModel>
    
  </diagram>
  <diagram id="RlEBq8U0W1AYSQcBNs2c" name="今日优脉小程序产品流程">
    <mxGraphModel dx="1760" dy="2136" grid="1" gridSize="10" guides="1" tooltips="1" connect="1" arrows="1" fold="1" page="1" pageScale="1" pageWidth="827" pageHeight="1169" math="0" shadow="0">
      <root>
        <mxCell id="tWRUA2oni1lmJwNjxoYr-0" />
        <mxCell id="tWRUA2oni1lmJwNjxoYr-1" parent="tWRUA2oni1lmJwNjxoYr-0" />
        <mxCell id="uWtg1xFXMjbrTKQC-qfK-141" value="" style="rounded=0;whiteSpace=wrap;html=1;fontSize=10;fontColor=#00FF00;align=center;dashed=1;strokeColor=#0066CC;" parent="tWRUA2oni1lmJwNjxoYr-1" vertex="1">
          <mxGeometry x="997" y="130" width="114" height="180" as="geometry" />
        </mxCell>
        <mxCell id="uWtg1xFXMjbrTKQC-qfK-40" value="" style="edgeStyle=orthogonalEdgeStyle;rounded=0;orthogonalLoop=1;jettySize=auto;html=1;fontSize=10;" parent="tWRUA2oni1lmJwNjxoYr-1" source="tWRUA2oni1lmJwNjxoYr-4" target="uWtg1xFXMjbrTKQC-qfK-7" edge="1">
          <mxGeometry relative="1" as="geometry" />
        </mxCell>
        <mxCell id="tWRUA2oni1lmJwNjxoYr-4" value="&amp;nbsp;登录获取手机" style="rounded=0;whiteSpace=wrap;html=1;fontSize=10;align=center;fillColor=#60a917;strokeColor=#2D7600;fontColor=#ffffff;" parent="tWRUA2oni1lmJwNjxoYr-1" vertex="1">
          <mxGeometry x="420" y="145" width="80" height="35" as="geometry" />
        </mxCell>
        <mxCell id="tWRUA2oni1lmJwNjxoYr-16" value="" style="edgeStyle=orthogonalEdgeStyle;rounded=0;orthogonalLoop=1;jettySize=auto;html=1;fontSize=10;entryX=0;entryY=0.5;entryDx=0;entryDy=0;" parent="tWRUA2oni1lmJwNjxoYr-1" source="tWRUA2oni1lmJwNjxoYr-9" target="uWtg1xFXMjbrTKQC-qfK-63" edge="1">
          <mxGeometry relative="1" as="geometry">
            <mxPoint x="1130" y="162.5" as="targetPoint" />
            <Array as="points">
              <mxPoint x="1120" y="163" />
              <mxPoint x="1120" y="219" />
            </Array>
          </mxGeometry>
        </mxCell>
        <mxCell id="uWtg1xFXMjbrTKQC-qfK-49" value="" style="edgeStyle=orthogonalEdgeStyle;rounded=0;orthogonalLoop=1;jettySize=auto;html=1;fontSize=10;" parent="tWRUA2oni1lmJwNjxoYr-1" edge="1">
          <mxGeometry relative="1" as="geometry">
            <mxPoint x="1081" y="105" as="sourcePoint" />
            <mxPoint x="1081" y="144.87" as="targetPoint" />
          </mxGeometry>
        </mxCell>
        <mxCell id="tWRUA2oni1lmJwNjxoYr-9" value="看推荐职位列表" style="rounded=0;whiteSpace=wrap;html=1;fontSize=10;align=center;" parent="tWRUA2oni1lmJwNjxoYr-1" vertex="1">
          <mxGeometry x="1010" y="145" width="90" height="35" as="geometry" />
        </mxCell>
        <mxCell id="uWtg1xFXMjbrTKQC-qfK-48" value="" style="edgeStyle=orthogonalEdgeStyle;rounded=0;orthogonalLoop=1;jettySize=auto;html=1;fontSize=10;" parent="tWRUA2oni1lmJwNjxoYr-1" edge="1">
          <mxGeometry relative="1" as="geometry">
            <mxPoint x="1051" y="144.87" as="sourcePoint" />
            <mxPoint x="1051" y="105" as="targetPoint" />
          </mxGeometry>
        </mxCell>
        <mxCell id="tWRUA2oni1lmJwNjxoYr-11" value="搜索职位" style="rounded=0;whiteSpace=wrap;html=1;fontSize=10;align=center;" parent="tWRUA2oni1lmJwNjxoYr-1" vertex="1">
          <mxGeometry x="1012" y="69.87" width="90" height="35" as="geometry" />
        </mxCell>
        <mxCell id="uWtg1xFXMjbrTKQC-qfK-5" value="" style="edgeStyle=orthogonalEdgeStyle;rounded=0;orthogonalLoop=1;jettySize=auto;html=1;fontSize=10;entryX=0;entryY=0.5;entryDx=0;entryDy=0;" parent="tWRUA2oni1lmJwNjxoYr-1" source="uWtg1xFXMjbrTKQC-qfK-0" target="uWtg1xFXMjbrTKQC-qfK-6" edge="1">
          <mxGeometry relative="1" as="geometry" />
        </mxCell>
        <mxCell id="uWtg1xFXMjbrTKQC-qfK-0" value="搜索“今日优脉”小程序" style="rounded=0;whiteSpace=wrap;html=1;fontSize=10;align=center;" parent="tWRUA2oni1lmJwNjxoYr-1" vertex="1">
          <mxGeometry x="10" y="145" width="90" height="35" as="geometry" />
        </mxCell>
        <mxCell id="uWtg1xFXMjbrTKQC-qfK-54" value="" style="edgeStyle=orthogonalEdgeStyle;rounded=0;orthogonalLoop=1;jettySize=auto;html=1;fontSize=10;entryX=0;entryY=0.5;entryDx=0;entryDy=0;" parent="tWRUA2oni1lmJwNjxoYr-1" source="uWtg1xFXMjbrTKQC-qfK-1" target="uWtg1xFXMjbrTKQC-qfK-6" edge="1">
          <mxGeometry relative="1" as="geometry">
            <Array as="points">
              <mxPoint x="113" y="218" />
              <mxPoint x="113" y="163" />
            </Array>
          </mxGeometry>
        </mxCell>
        <mxCell id="uWtg1xFXMjbrTKQC-qfK-1" value="识别小程序二维码" style="rounded=0;whiteSpace=wrap;html=1;fontSize=10;align=center;" parent="tWRUA2oni1lmJwNjxoYr-1" vertex="1">
          <mxGeometry x="10" y="200" width="90" height="35" as="geometry" />
        </mxCell>
        <mxCell id="uWtg1xFXMjbrTKQC-qfK-187" value="" style="edgeStyle=orthogonalEdgeStyle;rounded=0;orthogonalLoop=1;jettySize=auto;html=1;fontSize=10;fontColor=#000000;" parent="tWRUA2oni1lmJwNjxoYr-1" source="uWtg1xFXMjbrTKQC-qfK-2" target="uWtg1xFXMjbrTKQC-qfK-186" edge="1">
          <mxGeometry relative="1" as="geometry" />
        </mxCell>
        <mxCell id="uWtg1xFXMjbrTKQC-qfK-2" value="识别邀请好友二维码" style="rounded=0;whiteSpace=wrap;html=1;fontSize=10;align=center;" parent="tWRUA2oni1lmJwNjxoYr-1" vertex="1">
          <mxGeometry x="10" y="600" width="90" height="35" as="geometry" />
        </mxCell>
        <mxCell id="uWtg1xFXMjbrTKQC-qfK-189" value="" style="edgeStyle=orthogonalEdgeStyle;rounded=0;orthogonalLoop=1;jettySize=auto;html=1;fontSize=10;fontColor=#000000;" parent="tWRUA2oni1lmJwNjxoYr-1" source="uWtg1xFXMjbrTKQC-qfK-3" target="uWtg1xFXMjbrTKQC-qfK-188" edge="1">
          <mxGeometry relative="1" as="geometry" />
        </mxCell>
        <mxCell id="uWtg1xFXMjbrTKQC-qfK-3" value="识别查看岗位二维码" style="rounded=0;whiteSpace=wrap;html=1;fontSize=10;align=center;" parent="tWRUA2oni1lmJwNjxoYr-1" vertex="1">
          <mxGeometry x="10" y="660" width="90" height="35" as="geometry" />
        </mxCell>
        <mxCell id="uWtg1xFXMjbrTKQC-qfK-190" value="" style="edgeStyle=orthogonalEdgeStyle;rounded=0;orthogonalLoop=1;jettySize=auto;html=1;fontSize=10;fontColor=#000000;" parent="tWRUA2oni1lmJwNjxoYr-1" source="uWtg1xFXMjbrTKQC-qfK-4" target="uWtg1xFXMjbrTKQC-qfK-188" edge="1">
          <mxGeometry relative="1" as="geometry" />
        </mxCell>
        <mxCell id="uWtg1xFXMjbrTKQC-qfK-4" value="点击分享职位&lt;br&gt;小程序" style="rounded=0;whiteSpace=wrap;html=1;fontSize=10;align=center;" parent="tWRUA2oni1lmJwNjxoYr-1" vertex="1">
          <mxGeometry x="10" y="720" width="90" height="35" as="geometry" />
        </mxCell>
        <mxCell id="uWtg1xFXMjbrTKQC-qfK-10" value="" style="edgeStyle=orthogonalEdgeStyle;rounded=0;orthogonalLoop=1;jettySize=auto;html=1;fontSize=10;entryX=0;entryY=0.5;entryDx=0;entryDy=0;" parent="tWRUA2oni1lmJwNjxoYr-1" source="uWtg1xFXMjbrTKQC-qfK-6" target="uWtg1xFXMjbrTKQC-qfK-14" edge="1">
          <mxGeometry relative="1" as="geometry" />
        </mxCell>
        <mxCell id="uWtg1xFXMjbrTKQC-qfK-12" value="否" style="edgeLabel;html=1;align=center;verticalAlign=middle;resizable=0;points=[];fontSize=10;" parent="uWtg1xFXMjbrTKQC-qfK-10" vertex="1" connectable="0">
          <mxGeometry x="0.2" relative="1" as="geometry">
            <mxPoint x="-9.27" as="offset" />
          </mxGeometry>
        </mxCell>
        <mxCell id="uWtg1xFXMjbrTKQC-qfK-69" value="" style="edgeStyle=orthogonalEdgeStyle;rounded=0;orthogonalLoop=1;jettySize=auto;html=1;fontSize=10;" parent="tWRUA2oni1lmJwNjxoYr-1" source="uWtg1xFXMjbrTKQC-qfK-6" target="uWtg1xFXMjbrTKQC-qfK-68" edge="1">
          <mxGeometry relative="1" as="geometry" />
        </mxCell>
        <mxCell id="uWtg1xFXMjbrTKQC-qfK-6" value="是否登录&lt;br&gt;（缓存）" style="rhombus;whiteSpace=wrap;html=1;fontSize=10;align=center;fillColor=#dae8fc;strokeColor=#6c8ebf;" parent="tWRUA2oni1lmJwNjxoYr-1" vertex="1">
          <mxGeometry x="132.5" y="131.25" width="80" height="62.5" as="geometry" />
        </mxCell>
        <mxCell id="uWtg1xFXMjbrTKQC-qfK-44" value="" style="edgeStyle=orthogonalEdgeStyle;rounded=0;orthogonalLoop=1;jettySize=auto;html=1;fontSize=10;" parent="tWRUA2oni1lmJwNjxoYr-1" source="uWtg1xFXMjbrTKQC-qfK-7" target="uWtg1xFXMjbrTKQC-qfK-43" edge="1">
          <mxGeometry relative="1" as="geometry" />
        </mxCell>
        <mxCell id="uWtg1xFXMjbrTKQC-qfK-52" value="否" style="edgeLabel;html=1;align=center;verticalAlign=middle;resizable=0;points=[];fontSize=10;" parent="uWtg1xFXMjbrTKQC-qfK-44" vertex="1" connectable="0">
          <mxGeometry x="-0.2012" relative="1" as="geometry">
            <mxPoint x="3" as="offset" />
          </mxGeometry>
        </mxCell>
        <mxCell id="uWtg1xFXMjbrTKQC-qfK-7" value="是否注册" style="rhombus;whiteSpace=wrap;html=1;fontSize=10;align=center;fillColor=#dae8fc;strokeColor=#6c8ebf;" parent="tWRUA2oni1lmJwNjxoYr-1" vertex="1">
          <mxGeometry x="530" y="133.13" width="80" height="58.75" as="geometry" />
        </mxCell>
        <mxCell id="uWtg1xFXMjbrTKQC-qfK-14" value="产品介绍 + 职位列表页" style="rounded=0;whiteSpace=wrap;html=1;fontSize=10;align=center;" parent="tWRUA2oni1lmJwNjxoYr-1" vertex="1">
          <mxGeometry x="250" y="145" width="150" height="35" as="geometry" />
        </mxCell>
        <mxCell id="uWtg1xFXMjbrTKQC-qfK-19" value="&lt;br&gt;&lt;font color=&quot;#cc0000&quot;&gt;1）登录入口太不明显&lt;br&gt;2）三个入口分类改成其他&lt;br&gt;&lt;/font&gt;" style="rounded=0;whiteSpace=wrap;html=1;fontSize=10;align=center;fillColor=#e1d5e7;strokeColor=#9673a6;" parent="tWRUA2oni1lmJwNjxoYr-1" vertex="1">
          <mxGeometry x="240" y="95" width="150" height="35" as="geometry" />
        </mxCell>
        <mxCell id="uWtg1xFXMjbrTKQC-qfK-46" value="" style="edgeStyle=orthogonalEdgeStyle;rounded=0;orthogonalLoop=1;jettySize=auto;html=1;fontSize=10;entryX=0;entryY=0.5;entryDx=0;entryDy=0;" parent="tWRUA2oni1lmJwNjxoYr-1" source="uWtg1xFXMjbrTKQC-qfK-43" edge="1">
          <mxGeometry relative="1" as="geometry">
            <mxPoint x="770" y="162.5" as="targetPoint" />
          </mxGeometry>
        </mxCell>
        <mxCell id="uWtg1xFXMjbrTKQC-qfK-43" value="自动注册" style="rounded=0;whiteSpace=wrap;html=1;fontSize=10;align=center;fillColor=#1ba1e2;strokeColor=#006EAF;fontColor=#ffffff;" parent="tWRUA2oni1lmJwNjxoYr-1" vertex="1">
          <mxGeometry x="660" y="145" width="60" height="35" as="geometry" />
        </mxCell>
        <mxCell id="uWtg1xFXMjbrTKQC-qfK-47" value="" style="edgeStyle=orthogonalEdgeStyle;rounded=0;orthogonalLoop=1;jettySize=auto;html=1;fontSize=10;" parent="tWRUA2oni1lmJwNjxoYr-1" target="tWRUA2oni1lmJwNjxoYr-9" edge="1">
          <mxGeometry relative="1" as="geometry">
            <mxPoint x="980" y="162.5" as="sourcePoint" />
          </mxGeometry>
        </mxCell>
        <mxCell id="uWtg1xFXMjbrTKQC-qfK-57" value="" style="edgeStyle=orthogonalEdgeStyle;rounded=0;orthogonalLoop=1;jettySize=auto;html=1;fontSize=10;" parent="tWRUA2oni1lmJwNjxoYr-1" edge="1">
          <mxGeometry relative="1" as="geometry">
            <mxPoint x="860" y="162.5" as="sourcePoint" />
            <mxPoint x="890" y="162.5" as="targetPoint" />
          </mxGeometry>
        </mxCell>
        <mxCell id="uWtg1xFXMjbrTKQC-qfK-64" value="" style="edgeStyle=orthogonalEdgeStyle;rounded=0;orthogonalLoop=1;jettySize=auto;html=1;fontSize=10;" parent="tWRUA2oni1lmJwNjxoYr-1" source="uWtg1xFXMjbrTKQC-qfK-60" target="uWtg1xFXMjbrTKQC-qfK-63" edge="1">
          <mxGeometry relative="1" as="geometry" />
        </mxCell>
        <mxCell id="uWtg1xFXMjbrTKQC-qfK-60" value="通过人脉找职位" style="rounded=0;whiteSpace=wrap;html=1;fontSize=10;align=center;" parent="tWRUA2oni1lmJwNjxoYr-1" vertex="1">
          <mxGeometry x="1010" y="201" width="90" height="35" as="geometry" />
        </mxCell>
        <mxCell id="uWtg1xFXMjbrTKQC-qfK-74" value="" style="edgeStyle=orthogonalEdgeStyle;rounded=0;orthogonalLoop=1;jettySize=auto;html=1;fontSize=10;fontColor=#00FF00;entryX=0;entryY=0.5;entryDx=0;entryDy=0;" parent="tWRUA2oni1lmJwNjxoYr-1" source="uWtg1xFXMjbrTKQC-qfK-63" target="uWtg1xFXMjbrTKQC-qfK-73" edge="1">
          <mxGeometry relative="1" as="geometry">
            <Array as="points">
              <mxPoint x="1240" y="219" />
              <mxPoint x="1240" y="266" />
            </Array>
          </mxGeometry>
        </mxCell>
        <mxCell id="uWtg1xFXMjbrTKQC-qfK-82" value="" style="edgeStyle=orthogonalEdgeStyle;rounded=0;orthogonalLoop=1;jettySize=auto;html=1;fontSize=10;fontColor=#00FF00;entryX=0;entryY=0.5;entryDx=0;entryDy=0;" parent="tWRUA2oni1lmJwNjxoYr-1" source="uWtg1xFXMjbrTKQC-qfK-63" target="uWtg1xFXMjbrTKQC-qfK-78" edge="1">
          <mxGeometry relative="1" as="geometry">
            <mxPoint x="1178" y="133.5" as="targetPoint" />
            <Array as="points">
              <mxPoint x="1240" y="219" />
              <mxPoint x="1240" y="168" />
            </Array>
          </mxGeometry>
        </mxCell>
        <mxCell id="uWtg1xFXMjbrTKQC-qfK-85" value="" style="edgeStyle=orthogonalEdgeStyle;rounded=0;orthogonalLoop=1;jettySize=auto;html=1;fontSize=10;fontColor=#00FF00;" parent="tWRUA2oni1lmJwNjxoYr-1" source="uWtg1xFXMjbrTKQC-qfK-63" target="uWtg1xFXMjbrTKQC-qfK-77" edge="1">
          <mxGeometry relative="1" as="geometry" />
        </mxCell>
        <mxCell id="uWtg1xFXMjbrTKQC-qfK-63" value="查看职位详情" style="rounded=0;whiteSpace=wrap;html=1;fontSize=10;align=center;" parent="tWRUA2oni1lmJwNjxoYr-1" vertex="1">
          <mxGeometry x="1133" y="201" width="90" height="35" as="geometry" />
        </mxCell>
        <mxCell id="uWtg1xFXMjbrTKQC-qfK-65" value="" style="rounded=0;orthogonalLoop=1;jettySize=auto;html=1;fontSize=10;edgeStyle=orthogonalEdgeStyle;exitX=1;exitY=0.5;exitDx=0;exitDy=0;entryX=0;entryY=0.571;entryDx=0;entryDy=0;entryPerimeter=0;" parent="tWRUA2oni1lmJwNjxoYr-1" target="uWtg1xFXMjbrTKQC-qfK-66" edge="1">
          <mxGeometry relative="1" as="geometry">
            <mxPoint x="860" y="162.5" as="sourcePoint" />
            <mxPoint x="1010" y="293" as="targetPoint" />
            <Array as="points">
              <mxPoint x="870" y="163" />
              <mxPoint x="870" y="277" />
            </Array>
          </mxGeometry>
        </mxCell>
        <mxCell id="uWtg1xFXMjbrTKQC-qfK-66" value="Banner&lt;br&gt;看热门职位" style="rounded=0;whiteSpace=wrap;html=1;fontSize=10;align=center;" parent="tWRUA2oni1lmJwNjxoYr-1" vertex="1">
          <mxGeometry x="1010" y="257" width="90" height="35" as="geometry" />
        </mxCell>
        <mxCell id="uWtg1xFXMjbrTKQC-qfK-67" value="" style="edgeStyle=orthogonalEdgeStyle;rounded=0;orthogonalLoop=1;jettySize=auto;html=1;fontSize=10;exitX=1;exitY=0.5;exitDx=0;exitDy=0;entryX=0;entryY=0.5;entryDx=0;entryDy=0;" parent="tWRUA2oni1lmJwNjxoYr-1" source="uWtg1xFXMjbrTKQC-qfK-66" target="uWtg1xFXMjbrTKQC-qfK-63" edge="1">
          <mxGeometry relative="1" as="geometry">
            <mxPoint x="1110" y="172.5" as="sourcePoint" />
            <mxPoint x="1133" y="229" as="targetPoint" />
            <Array as="points">
              <mxPoint x="1120" y="278" />
              <mxPoint x="1120" y="219" />
            </Array>
          </mxGeometry>
        </mxCell>
        <mxCell id="uWtg1xFXMjbrTKQC-qfK-119" value="" style="edgeStyle=orthogonalEdgeStyle;rounded=0;orthogonalLoop=1;jettySize=auto;html=1;fontSize=10;fontColor=#00FF00;entryX=0;entryY=0.5;entryDx=0;entryDy=0;" parent="tWRUA2oni1lmJwNjxoYr-1" source="uWtg1xFXMjbrTKQC-qfK-68" target="uWtg1xFXMjbrTKQC-qfK-70" edge="1">
          <mxGeometry relative="1" as="geometry">
            <Array as="points">
              <mxPoint x="220" y="240" />
              <mxPoint x="220" y="292" />
            </Array>
          </mxGeometry>
        </mxCell>
        <mxCell id="uWtg1xFXMjbrTKQC-qfK-147" value="跳过" style="edgeLabel;html=1;align=center;verticalAlign=middle;resizable=0;points=[];fontSize=10;" parent="uWtg1xFXMjbrTKQC-qfK-119" vertex="1" connectable="0">
          <mxGeometry x="0.0503" relative="1" as="geometry">
            <mxPoint as="offset" />
          </mxGeometry>
        </mxCell>
        <mxCell id="uWtg1xFXMjbrTKQC-qfK-139" value="" style="edgeStyle=orthogonalEdgeStyle;rounded=0;orthogonalLoop=1;jettySize=auto;html=1;fontSize=10;fontColor=#00FF00;" parent="tWRUA2oni1lmJwNjxoYr-1" source="uWtg1xFXMjbrTKQC-qfK-68" target="uWtg1xFXMjbrTKQC-qfK-138" edge="1">
          <mxGeometry relative="1" as="geometry" />
        </mxCell>
        <mxCell id="uWtg1xFXMjbrTKQC-qfK-174" value="" style="edgeStyle=orthogonalEdgeStyle;rounded=0;orthogonalLoop=1;jettySize=auto;html=1;fontSize=10;fontColor=#000000;" parent="tWRUA2oni1lmJwNjxoYr-1" source="uWtg1xFXMjbrTKQC-qfK-68" target="uWtg1xFXMjbrTKQC-qfK-171" edge="1">
          <mxGeometry relative="1" as="geometry" />
        </mxCell>
        <mxCell id="uWtg1xFXMjbrTKQC-qfK-68" value="818活动引导" style="rounded=0;whiteSpace=wrap;html=1;fontSize=10;align=center;" parent="tWRUA2oni1lmJwNjxoYr-1" vertex="1">
          <mxGeometry x="142.5" y="222" width="60" height="35" as="geometry" />
        </mxCell>
        <mxCell id="uWtg1xFXMjbrTKQC-qfK-137" value="" style="edgeStyle=orthogonalEdgeStyle;rounded=0;orthogonalLoop=1;jettySize=auto;html=1;fontSize=10;fontColor=#00FF00;" parent="tWRUA2oni1lmJwNjxoYr-1" source="uWtg1xFXMjbrTKQC-qfK-70" target="uWtg1xFXMjbrTKQC-qfK-136" edge="1">
          <mxGeometry relative="1" as="geometry" />
        </mxCell>
        <mxCell id="uWtg1xFXMjbrTKQC-qfK-70" value="我的主页&lt;br&gt;代办汇总" style="rounded=0;whiteSpace=wrap;html=1;fontSize=10;align=center;" parent="tWRUA2oni1lmJwNjxoYr-1" vertex="1">
          <mxGeometry x="240" y="274" width="60" height="35" as="geometry" />
        </mxCell>
        <mxCell id="uWtg1xFXMjbrTKQC-qfK-71" value="积分/麦粒奖励" style="html=1;shadow=0;dashed=0;align=center;verticalAlign=middle;shape=mxgraph.arrows2.arrow;dy=0;dx=10;notch=10;fontSize=10;fontColor=#FF0000;strokeColor=#FF0000;" parent="tWRUA2oni1lmJwNjxoYr-1" vertex="1">
          <mxGeometry x="10" y="-30" width="1730" height="30" as="geometry" />
        </mxCell>
        <mxCell id="uWtg1xFXMjbrTKQC-qfK-72" value="操作日志/转化数据/行为轨迹/个人兴趣" style="html=1;shadow=0;dashed=0;align=center;verticalAlign=middle;shape=mxgraph.arrows2.arrow;dy=0;dx=10;notch=10;fontSize=10;labelBackgroundColor=#ffffff;fontColor=#7EA6E0;strokeColor=#7EA6E0;" parent="tWRUA2oni1lmJwNjxoYr-1" vertex="1">
          <mxGeometry x="10" y="800" width="1730" height="30" as="geometry" />
        </mxCell>
        <mxCell id="uWtg1xFXMjbrTKQC-qfK-83" value="" style="edgeStyle=orthogonalEdgeStyle;rounded=0;orthogonalLoop=1;jettySize=auto;html=1;fontSize=10;fontColor=#00FF00;" parent="tWRUA2oni1lmJwNjxoYr-1" source="uWtg1xFXMjbrTKQC-qfK-73" target="uWtg1xFXMjbrTKQC-qfK-75" edge="1">
          <mxGeometry relative="1" as="geometry" />
        </mxCell>
        <mxCell id="uWtg1xFXMjbrTKQC-qfK-73" value="推荐人脉&lt;br&gt;" style="rounded=0;whiteSpace=wrap;html=1;fontSize=10;align=center;" parent="tWRUA2oni1lmJwNjxoYr-1" vertex="1">
          <mxGeometry x="1260" y="248" width="60" height="35" as="geometry" />
        </mxCell>
        <mxCell id="uWtg1xFXMjbrTKQC-qfK-118" value="" style="edgeStyle=orthogonalEdgeStyle;rounded=0;orthogonalLoop=1;jettySize=auto;html=1;fontSize=10;fontColor=#00FF00;" parent="tWRUA2oni1lmJwNjxoYr-1" source="uWtg1xFXMjbrTKQC-qfK-75" target="uWtg1xFXMjbrTKQC-qfK-117" edge="1">
          <mxGeometry relative="1" as="geometry" />
        </mxCell>
        <mxCell id="uWtg1xFXMjbrTKQC-qfK-75" value="推荐已有人脉" style="rounded=0;whiteSpace=wrap;html=1;fontSize=10;align=center;" parent="tWRUA2oni1lmJwNjxoYr-1" vertex="1">
          <mxGeometry x="1359" y="248" width="60" height="35" as="geometry" />
        </mxCell>
        <mxCell id="uWtg1xFXMjbrTKQC-qfK-109" value="" style="edgeStyle=orthogonalEdgeStyle;rounded=0;orthogonalLoop=1;jettySize=auto;html=1;fontSize=10;fontColor=#00FF00;" parent="tWRUA2oni1lmJwNjxoYr-1" source="uWtg1xFXMjbrTKQC-qfK-76" target="uWtg1xFXMjbrTKQC-qfK-107" edge="1">
          <mxGeometry relative="1" as="geometry" />
        </mxCell>
        <mxCell id="uWtg1xFXMjbrTKQC-qfK-76" value="增加人脉" style="rounded=0;whiteSpace=wrap;html=1;fontSize=10;align=center;" parent="tWRUA2oni1lmJwNjxoYr-1" vertex="1">
          <mxGeometry x="1360" y="295" width="60" height="35" as="geometry" />
        </mxCell>
        <mxCell id="uWtg1xFXMjbrTKQC-qfK-87" value="" style="edgeStyle=orthogonalEdgeStyle;rounded=0;orthogonalLoop=1;jettySize=auto;html=1;fontSize=10;fontColor=#00FF00;" parent="tWRUA2oni1lmJwNjxoYr-1" source="uWtg1xFXMjbrTKQC-qfK-77" target="uWtg1xFXMjbrTKQC-qfK-86" edge="1">
          <mxGeometry relative="1" as="geometry" />
        </mxCell>
        <mxCell id="uWtg1xFXMjbrTKQC-qfK-77" value="关注&lt;br&gt;（订阅）" style="rounded=0;whiteSpace=wrap;html=1;fontSize=10;align=center;" parent="tWRUA2oni1lmJwNjxoYr-1" vertex="1">
          <mxGeometry x="1260" y="201" width="60" height="35" as="geometry" />
        </mxCell>
        <mxCell id="uWtg1xFXMjbrTKQC-qfK-80" value="" style="edgeStyle=orthogonalEdgeStyle;rounded=0;orthogonalLoop=1;jettySize=auto;html=1;fontSize=10;fontColor=#00FF00;" parent="tWRUA2oni1lmJwNjxoYr-1" source="uWtg1xFXMjbrTKQC-qfK-78" target="uWtg1xFXMjbrTKQC-qfK-79" edge="1">
          <mxGeometry relative="1" as="geometry" />
        </mxCell>
        <mxCell id="uWtg1xFXMjbrTKQC-qfK-78" value="不感兴趣" style="rounded=0;whiteSpace=wrap;html=1;fontSize=10;align=center;" parent="tWRUA2oni1lmJwNjxoYr-1" vertex="1">
          <mxGeometry x="1260" y="150" width="60" height="35" as="geometry" />
        </mxCell>
        <mxCell id="uWtg1xFXMjbrTKQC-qfK-79" value="不再推荐类似职位" style="rounded=0;whiteSpace=wrap;html=1;fontSize=10;align=center;fillColor=#1ba1e2;strokeColor=#006EAF;fontColor=#ffffff;" parent="tWRUA2oni1lmJwNjxoYr-1" vertex="1">
          <mxGeometry x="1360" y="150" width="60" height="35" as="geometry" />
        </mxCell>
        <mxCell id="uWtg1xFXMjbrTKQC-qfK-84" value="" style="edgeStyle=orthogonalEdgeStyle;rounded=0;orthogonalLoop=1;jettySize=auto;html=1;fontSize=10;fontColor=#00FF00;entryX=0;entryY=0.5;entryDx=0;entryDy=0;exitX=1;exitY=0.5;exitDx=0;exitDy=0;" parent="tWRUA2oni1lmJwNjxoYr-1" source="uWtg1xFXMjbrTKQC-qfK-73" target="uWtg1xFXMjbrTKQC-qfK-76" edge="1">
          <mxGeometry relative="1" as="geometry">
            <mxPoint x="1330" y="249.5" as="sourcePoint" />
            <mxPoint x="1360" y="249.5" as="targetPoint" />
            <Array as="points">
              <mxPoint x="1340" y="266" />
              <mxPoint x="1340" y="313" />
            </Array>
          </mxGeometry>
        </mxCell>
        <mxCell id="uWtg1xFXMjbrTKQC-qfK-86" value="优先推荐类似职位" style="rounded=0;whiteSpace=wrap;html=1;fontSize=10;align=center;fillColor=#1ba1e2;strokeColor=#006EAF;fontColor=#ffffff;" parent="tWRUA2oni1lmJwNjxoYr-1" vertex="1">
          <mxGeometry x="1360" y="200.5" width="60" height="35" as="geometry" />
        </mxCell>
        <mxCell id="uWtg1xFXMjbrTKQC-qfK-93" value="" style="edgeStyle=orthogonalEdgeStyle;rounded=0;orthogonalLoop=1;jettySize=auto;html=1;fontSize=10;fontColor=#00FF00;" parent="tWRUA2oni1lmJwNjxoYr-1" source="uWtg1xFXMjbrTKQC-qfK-88" target="uWtg1xFXMjbrTKQC-qfK-92" edge="1">
          <mxGeometry relative="1" as="geometry">
            <Array as="points">
              <mxPoint x="1330" y="114" />
              <mxPoint x="1330" y="123" />
            </Array>
          </mxGeometry>
        </mxCell>
        <mxCell id="uWtg1xFXMjbrTKQC-qfK-88" value="展示" style="rounded=0;whiteSpace=wrap;html=1;fontSize=10;align=center;" parent="tWRUA2oni1lmJwNjxoYr-1" vertex="1">
          <mxGeometry x="1260" y="96.25" width="60" height="35" as="geometry" />
        </mxCell>
        <mxCell id="uWtg1xFXMjbrTKQC-qfK-89" value="" style="edgeStyle=orthogonalEdgeStyle;rounded=0;orthogonalLoop=1;jettySize=auto;html=1;fontSize=10;fontColor=#00FF00;exitX=1;exitY=0.5;exitDx=0;exitDy=0;entryX=0;entryY=0.5;entryDx=0;entryDy=0;" parent="tWRUA2oni1lmJwNjxoYr-1" source="uWtg1xFXMjbrTKQC-qfK-63" target="uWtg1xFXMjbrTKQC-qfK-88" edge="1">
          <mxGeometry relative="1" as="geometry">
            <mxPoint x="1233" y="228.5" as="sourcePoint" />
            <mxPoint x="1270" y="228.5" as="targetPoint" />
            <Array as="points">
              <mxPoint x="1240" y="219" />
              <mxPoint x="1240" y="114" />
            </Array>
          </mxGeometry>
        </mxCell>
        <mxCell id="uWtg1xFXMjbrTKQC-qfK-90" value="职位概述" style="rounded=0;whiteSpace=wrap;html=1;fontSize=10;align=center;" parent="tWRUA2oni1lmJwNjxoYr-1" vertex="1">
          <mxGeometry x="1359" y="20" width="60" height="35" as="geometry" />
        </mxCell>
        <mxCell id="uWtg1xFXMjbrTKQC-qfK-124" value="" style="edgeStyle=orthogonalEdgeStyle;rounded=0;orthogonalLoop=1;jettySize=auto;html=1;fontSize=10;fontColor=#00FF00;entryX=0;entryY=0.5;entryDx=0;entryDy=0;" parent="tWRUA2oni1lmJwNjxoYr-1" edge="1">
          <mxGeometry relative="1" as="geometry">
            <mxPoint x="1450" y="78.75" as="targetPoint" />
            <mxPoint x="1419" y="78.83333333333348" as="sourcePoint" />
          </mxGeometry>
        </mxCell>
        <mxCell id="uWtg1xFXMjbrTKQC-qfK-97" value="" style="edgeStyle=orthogonalEdgeStyle;rounded=0;orthogonalLoop=1;jettySize=auto;html=1;fontSize=10;fontColor=#00FF00;" parent="tWRUA2oni1lmJwNjxoYr-1" source="uWtg1xFXMjbrTKQC-qfK-92" target="uWtg1xFXMjbrTKQC-qfK-96" edge="1">
          <mxGeometry relative="1" as="geometry" />
        </mxCell>
        <mxCell id="uWtg1xFXMjbrTKQC-qfK-92" value="推荐实况" style="rounded=0;whiteSpace=wrap;html=1;fontSize=10;align=center;" parent="tWRUA2oni1lmJwNjxoYr-1" vertex="1">
          <mxGeometry x="1360" y="105" width="60" height="35" as="geometry" />
        </mxCell>
        <mxCell id="uWtg1xFXMjbrTKQC-qfK-94" value="" style="edgeStyle=orthogonalEdgeStyle;rounded=0;orthogonalLoop=1;jettySize=auto;html=1;fontSize=10;fontColor=#00FF00;exitX=1;exitY=0.5;exitDx=0;exitDy=0;entryX=0;entryY=0.5;entryDx=0;entryDy=0;" parent="tWRUA2oni1lmJwNjxoYr-1" source="uWtg1xFXMjbrTKQC-qfK-88" target="uWtg1xFXMjbrTKQC-qfK-90" edge="1">
          <mxGeometry relative="1" as="geometry">
            <mxPoint x="1330" y="123.79999999999995" as="sourcePoint" />
            <mxPoint x="1370" y="132.5" as="targetPoint" />
            <Array as="points">
              <mxPoint x="1330" y="114" />
              <mxPoint x="1330" y="38" />
            </Array>
          </mxGeometry>
        </mxCell>
        <mxCell id="uWtg1xFXMjbrTKQC-qfK-95" value="" style="edgeStyle=orthogonalEdgeStyle;rounded=0;orthogonalLoop=1;jettySize=auto;html=1;fontSize=10;fontColor=#00FF00;exitX=1;exitY=0.5;exitDx=0;exitDy=0;entryX=0;entryY=0.75;entryDx=0;entryDy=0;" parent="tWRUA2oni1lmJwNjxoYr-1" edge="1">
          <mxGeometry relative="1" as="geometry">
            <mxPoint x="1320" y="108.75" as="sourcePoint" />
            <mxPoint x="1359" y="87.50000000000023" as="targetPoint" />
            <Array as="points">
              <mxPoint x="1320" y="113" />
              <mxPoint x="1330" y="113" />
              <mxPoint x="1330" y="88" />
            </Array>
          </mxGeometry>
        </mxCell>
        <mxCell id="uWtg1xFXMjbrTKQC-qfK-96" value="弹出滚动形式" style="rounded=0;whiteSpace=wrap;html=1;fontSize=10;align=center;" parent="tWRUA2oni1lmJwNjxoYr-1" vertex="1">
          <mxGeometry x="1450" y="104.87" width="60" height="35" as="geometry" />
        </mxCell>
        <mxCell id="uWtg1xFXMjbrTKQC-qfK-104" value="" style="edgeStyle=orthogonalEdgeStyle;rounded=0;orthogonalLoop=1;jettySize=auto;html=1;fontSize=10;fontColor=#00FF00;" parent="tWRUA2oni1lmJwNjxoYr-1" source="uWtg1xFXMjbrTKQC-qfK-98" target="uWtg1xFXMjbrTKQC-qfK-100" edge="1">
          <mxGeometry relative="1" as="geometry" />
        </mxCell>
        <mxCell id="uWtg1xFXMjbrTKQC-qfK-98" value="分享" style="rounded=0;whiteSpace=wrap;html=1;fontSize=10;align=center;" parent="tWRUA2oni1lmJwNjxoYr-1" vertex="1">
          <mxGeometry x="1260" y="345" width="60" height="35" as="geometry" />
        </mxCell>
        <mxCell id="uWtg1xFXMjbrTKQC-qfK-99" value="" style="edgeStyle=orthogonalEdgeStyle;rounded=0;orthogonalLoop=1;jettySize=auto;html=1;fontSize=10;fontColor=#00FF00;entryX=0;entryY=0.5;entryDx=0;entryDy=0;exitX=1;exitY=0.5;exitDx=0;exitDy=0;" parent="tWRUA2oni1lmJwNjxoYr-1" source="uWtg1xFXMjbrTKQC-qfK-63" target="uWtg1xFXMjbrTKQC-qfK-98" edge="1">
          <mxGeometry relative="1" as="geometry">
            <mxPoint x="1233" y="228.5" as="sourcePoint" />
            <mxPoint x="1270" y="275.5" as="targetPoint" />
            <Array as="points">
              <mxPoint x="1240" y="219" />
              <mxPoint x="1240" y="363" />
            </Array>
          </mxGeometry>
        </mxCell>
        <mxCell id="_0xuz5VytdvUOzdGs54Q-25" style="edgeStyle=orthogonalEdgeStyle;rounded=0;orthogonalLoop=1;jettySize=auto;html=1;exitX=1;exitY=0.5;exitDx=0;exitDy=0;entryX=0;entryY=0.5;entryDx=0;entryDy=0;" edge="1" parent="tWRUA2oni1lmJwNjxoYr-1" source="uWtg1xFXMjbrTKQC-qfK-101" target="_0xuz5VytdvUOzdGs54Q-24">
          <mxGeometry relative="1" as="geometry" />
        </mxCell>
        <mxCell id="uWtg1xFXMjbrTKQC-qfK-101" value="图片分享" style="rounded=0;whiteSpace=wrap;html=1;fontSize=10;align=center;" parent="tWRUA2oni1lmJwNjxoYr-1" vertex="1">
          <mxGeometry x="1361" y="397" width="60" height="35" as="geometry" />
        </mxCell>
        <mxCell id="uWtg1xFXMjbrTKQC-qfK-100" value="小程序分享" style="rounded=0;whiteSpace=wrap;html=1;fontSize=10;align=center;" parent="tWRUA2oni1lmJwNjxoYr-1" vertex="1">
          <mxGeometry x="1361" y="345" width="60" height="35" as="geometry" />
        </mxCell>
        <mxCell id="uWtg1xFXMjbrTKQC-qfK-103" value="" style="edgeStyle=orthogonalEdgeStyle;rounded=0;orthogonalLoop=1;jettySize=auto;html=1;fontSize=10;fontColor=#00FF00;entryX=0;entryY=0.5;entryDx=0;entryDy=0;" parent="tWRUA2oni1lmJwNjxoYr-1" source="uWtg1xFXMjbrTKQC-qfK-98" target="uWtg1xFXMjbrTKQC-qfK-101" edge="1">
          <mxGeometry relative="1" as="geometry">
            <mxPoint x="1320" y="367.5" as="sourcePoint" />
            <mxPoint x="1391" y="397" as="targetPoint" />
          </mxGeometry>
        </mxCell>
        <mxCell id="uWtg1xFXMjbrTKQC-qfK-111" value="" style="edgeStyle=orthogonalEdgeStyle;rounded=0;orthogonalLoop=1;jettySize=auto;html=1;fontSize=10;fontColor=#00FF00;entryX=0;entryY=0.5;entryDx=0;entryDy=0;" parent="tWRUA2oni1lmJwNjxoYr-1" source="uWtg1xFXMjbrTKQC-qfK-107" target="uWtg1xFXMjbrTKQC-qfK-112" edge="1">
          <mxGeometry relative="1" as="geometry">
            <Array as="points">
              <mxPoint x="1520" y="313" />
              <mxPoint x="1520" y="363" />
            </Array>
          </mxGeometry>
        </mxCell>
        <mxCell id="uWtg1xFXMjbrTKQC-qfK-113" value="" style="edgeStyle=orthogonalEdgeStyle;rounded=0;orthogonalLoop=1;jettySize=auto;html=1;fontSize=10;fontColor=#00FF00;entryX=0;entryY=0.5;entryDx=0;entryDy=0;" parent="tWRUA2oni1lmJwNjxoYr-1" source="uWtg1xFXMjbrTKQC-qfK-107" target="uWtg1xFXMjbrTKQC-qfK-110" edge="1">
          <mxGeometry relative="1" as="geometry" />
        </mxCell>
        <mxCell id="uWtg1xFXMjbrTKQC-qfK-107" value="姓名&lt;br&gt;电话号码" style="rounded=0;whiteSpace=wrap;html=1;fontSize=10;align=center;" parent="tWRUA2oni1lmJwNjxoYr-1" vertex="1">
          <mxGeometry x="1450" y="295" width="60" height="35" as="geometry" />
        </mxCell>
        <mxCell id="uWtg1xFXMjbrTKQC-qfK-110" value="增加详情" style="rounded=0;whiteSpace=wrap;html=1;fontSize=10;align=center;" parent="tWRUA2oni1lmJwNjxoYr-1" vertex="1">
          <mxGeometry x="1540" y="295" width="60" height="35" as="geometry" />
        </mxCell>
        <mxCell id="uWtg1xFXMjbrTKQC-qfK-115" value="" style="edgeStyle=orthogonalEdgeStyle;rounded=0;orthogonalLoop=1;jettySize=auto;html=1;fontSize=10;fontColor=#00FF00;" parent="tWRUA2oni1lmJwNjxoYr-1" source="uWtg1xFXMjbrTKQC-qfK-112" edge="1">
          <mxGeometry relative="1" as="geometry">
            <mxPoint x="1630" y="362.5000000000002" as="targetPoint" />
          </mxGeometry>
        </mxCell>
        <mxCell id="uWtg1xFXMjbrTKQC-qfK-112" value="增加简历附件" style="rounded=0;whiteSpace=wrap;html=1;fontSize=10;align=center;" parent="tWRUA2oni1lmJwNjxoYr-1" vertex="1">
          <mxGeometry x="1540" y="345" width="60" height="35" as="geometry" />
        </mxCell>
        <mxCell id="_0xuz5VytdvUOzdGs54Q-30" style="edgeStyle=orthogonalEdgeStyle;rounded=0;orthogonalLoop=1;jettySize=auto;html=1;exitX=1;exitY=0.5;exitDx=0;exitDy=0;entryX=0;entryY=0.5;entryDx=0;entryDy=0;" edge="1" parent="tWRUA2oni1lmJwNjxoYr-1" source="uWtg1xFXMjbrTKQC-qfK-117" target="_0xuz5VytdvUOzdGs54Q-9">
          <mxGeometry relative="1" as="geometry" />
        </mxCell>
        <mxCell id="uWtg1xFXMjbrTKQC-qfK-117" value="人脉列表" style="rounded=0;whiteSpace=wrap;html=1;fontSize=10;align=center;" parent="tWRUA2oni1lmJwNjxoYr-1" vertex="1">
          <mxGeometry x="1450" y="248" width="60" height="35" as="geometry" />
        </mxCell>
        <mxCell id="uWtg1xFXMjbrTKQC-qfK-130" value="" style="edgeStyle=orthogonalEdgeStyle;rounded=0;orthogonalLoop=1;jettySize=auto;html=1;fontSize=10;fontColor=#00FF00;" parent="tWRUA2oni1lmJwNjxoYr-1" target="uWtg1xFXMjbrTKQC-qfK-129" edge="1">
          <mxGeometry relative="1" as="geometry">
            <mxPoint x="1510" y="78.79999999999995" as="sourcePoint" />
          </mxGeometry>
        </mxCell>
        <mxCell id="uWtg1xFXMjbrTKQC-qfK-146" value="否" style="edgeLabel;html=1;align=center;verticalAlign=middle;resizable=0;points=[];fontSize=10;fontColor=#000000;" parent="uWtg1xFXMjbrTKQC-qfK-130" vertex="1" connectable="0">
          <mxGeometry x="-0.36" y="2" relative="1" as="geometry">
            <mxPoint as="offset" />
          </mxGeometry>
        </mxCell>
        <mxCell id="uWtg1xFXMjbrTKQC-qfK-128" value="" style="edgeStyle=orthogonalEdgeStyle;rounded=0;orthogonalLoop=1;jettySize=auto;html=1;fontSize=10;fontColor=#00FF00;exitX=0.5;exitY=0;exitDx=0;exitDy=0;entryX=0;entryY=0.5;entryDx=0;entryDy=0;" parent="tWRUA2oni1lmJwNjxoYr-1" source="uWtg1xFXMjbrTKQC-qfK-144" target="uWtg1xFXMjbrTKQC-qfK-127" edge="1">
          <mxGeometry relative="1" as="geometry">
            <mxPoint x="1510" y="37.5" as="sourcePoint" />
          </mxGeometry>
        </mxCell>
        <mxCell id="uWtg1xFXMjbrTKQC-qfK-145" value="是" style="edgeLabel;html=1;align=center;verticalAlign=middle;resizable=0;points=[];fontSize=10;" parent="uWtg1xFXMjbrTKQC-qfK-128" vertex="1" connectable="0">
          <mxGeometry x="0.4013" y="1" relative="1" as="geometry">
            <mxPoint as="offset" />
          </mxGeometry>
        </mxCell>
        <mxCell id="_0xuz5VytdvUOzdGs54Q-28" style="edgeStyle=orthogonalEdgeStyle;rounded=0;orthogonalLoop=1;jettySize=auto;html=1;exitX=1;exitY=0.5;exitDx=0;exitDy=0;" edge="1" parent="tWRUA2oni1lmJwNjxoYr-1" source="uWtg1xFXMjbrTKQC-qfK-127">
          <mxGeometry relative="1" as="geometry">
            <mxPoint x="1750" y="280" as="targetPoint" />
          </mxGeometry>
        </mxCell>
        <mxCell id="uWtg1xFXMjbrTKQC-qfK-127" value="一键推荐人脉" style="rounded=0;whiteSpace=wrap;html=1;fontSize=10;align=center;" parent="tWRUA2oni1lmJwNjxoYr-1" vertex="1">
          <mxGeometry x="1540" y="20" width="60" height="35" as="geometry" />
        </mxCell>
        <mxCell id="uWtg1xFXMjbrTKQC-qfK-133" value="" style="edgeStyle=orthogonalEdgeStyle;rounded=0;orthogonalLoop=1;jettySize=auto;html=1;fontSize=10;fontColor=#00FF00;" parent="tWRUA2oni1lmJwNjxoYr-1" source="uWtg1xFXMjbrTKQC-qfK-129" target="uWtg1xFXMjbrTKQC-qfK-132" edge="1">
          <mxGeometry relative="1" as="geometry" />
        </mxCell>
        <mxCell id="uWtg1xFXMjbrTKQC-qfK-129" value="完善人脉信息" style="rounded=0;whiteSpace=wrap;html=1;fontSize=10;align=center;" parent="tWRUA2oni1lmJwNjxoYr-1" vertex="1">
          <mxGeometry x="1540" y="61.25" width="60" height="35" as="geometry" />
        </mxCell>
        <mxCell id="uWtg1xFXMjbrTKQC-qfK-132" value="更新匹配度" style="rounded=0;whiteSpace=wrap;html=1;fontSize=10;align=center;fillColor=#1ba1e2;strokeColor=#006EAF;fontColor=#ffffff;" parent="tWRUA2oni1lmJwNjxoYr-1" vertex="1">
          <mxGeometry x="1630" y="61.25" width="60" height="35" as="geometry" />
        </mxCell>
        <mxCell id="uWtg1xFXMjbrTKQC-qfK-143" value="" style="edgeStyle=orthogonalEdgeStyle;rounded=0;orthogonalLoop=1;jettySize=auto;html=1;fontSize=10;fontColor=#00FF00;" parent="tWRUA2oni1lmJwNjxoYr-1" source="uWtg1xFXMjbrTKQC-qfK-136" target="uWtg1xFXMjbrTKQC-qfK-142" edge="1">
          <mxGeometry relative="1" as="geometry" />
        </mxCell>
        <mxCell id="uWtg1xFXMjbrTKQC-qfK-136" value="人脉偏好" style="rounded=0;whiteSpace=wrap;html=1;fontSize=10;align=center;" parent="tWRUA2oni1lmJwNjxoYr-1" vertex="1">
          <mxGeometry x="330" y="274" width="60" height="35" as="geometry" />
        </mxCell>
        <mxCell id="uWtg1xFXMjbrTKQC-qfK-138" value="积分任务&lt;br&gt;代办" style="rounded=0;whiteSpace=wrap;html=1;fontSize=10;align=center;" parent="tWRUA2oni1lmJwNjxoYr-1" vertex="1">
          <mxGeometry x="240" y="222" width="60" height="35" as="geometry" />
        </mxCell>
        <mxCell id="uWtg1xFXMjbrTKQC-qfK-167" value="" style="edgeStyle=orthogonalEdgeStyle;rounded=0;orthogonalLoop=1;jettySize=auto;html=1;fontSize=10;fontColor=#000000;" parent="tWRUA2oni1lmJwNjxoYr-1" source="uWtg1xFXMjbrTKQC-qfK-142" target="uWtg1xFXMjbrTKQC-qfK-166" edge="1">
          <mxGeometry relative="1" as="geometry" />
        </mxCell>
        <mxCell id="uWtg1xFXMjbrTKQC-qfK-142" value="未填匹配度低提醒" style="rounded=0;whiteSpace=wrap;html=1;fontSize=10;align=center;fillColor=#1ba1e2;strokeColor=#006EAF;fontColor=#ffffff;" parent="tWRUA2oni1lmJwNjxoYr-1" vertex="1">
          <mxGeometry x="420" y="274" width="60" height="35" as="geometry" />
        </mxCell>
        <mxCell id="uWtg1xFXMjbrTKQC-qfK-144" value="匹配度高" style="rhombus;whiteSpace=wrap;html=1;fontSize=10;align=center;" parent="tWRUA2oni1lmJwNjxoYr-1" vertex="1">
          <mxGeometry x="1448" y="56" width="70" height="44.87" as="geometry" />
        </mxCell>
        <mxCell id="uWtg1xFXMjbrTKQC-qfK-157" value="" style="edgeStyle=orthogonalEdgeStyle;rounded=0;orthogonalLoop=1;jettySize=auto;html=1;fontSize=10;fontColor=#000000;" parent="tWRUA2oni1lmJwNjxoYr-1" source="uWtg1xFXMjbrTKQC-qfK-148" target="uWtg1xFXMjbrTKQC-qfK-156" edge="1">
          <mxGeometry relative="1" as="geometry" />
        </mxCell>
        <mxCell id="uWtg1xFXMjbrTKQC-qfK-148" value="我的麦粒" style="rounded=0;whiteSpace=wrap;html=1;fontSize=10;align=center;" parent="tWRUA2oni1lmJwNjxoYr-1" vertex="1">
          <mxGeometry x="330" y="330" width="60" height="35" as="geometry" />
        </mxCell>
        <mxCell id="uWtg1xFXMjbrTKQC-qfK-149" value="" style="edgeStyle=orthogonalEdgeStyle;rounded=0;orthogonalLoop=1;jettySize=auto;html=1;fontSize=10;fontColor=#00FF00;exitX=1;exitY=0.5;exitDx=0;exitDy=0;entryX=0;entryY=0.5;entryDx=0;entryDy=0;" parent="tWRUA2oni1lmJwNjxoYr-1" source="uWtg1xFXMjbrTKQC-qfK-70" target="uWtg1xFXMjbrTKQC-qfK-148" edge="1">
          <mxGeometry relative="1" as="geometry">
            <mxPoint x="310" y="301.5" as="sourcePoint" />
            <mxPoint x="340" y="301.5" as="targetPoint" />
            <Array as="points">
              <mxPoint x="310" y="292" />
              <mxPoint x="310" y="348" />
            </Array>
          </mxGeometry>
        </mxCell>
        <mxCell id="uWtg1xFXMjbrTKQC-qfK-159" value="" style="edgeStyle=orthogonalEdgeStyle;rounded=0;orthogonalLoop=1;jettySize=auto;html=1;fontSize=10;fontColor=#000000;" parent="tWRUA2oni1lmJwNjxoYr-1" source="uWtg1xFXMjbrTKQC-qfK-150" target="uWtg1xFXMjbrTKQC-qfK-158" edge="1">
          <mxGeometry relative="1" as="geometry" />
        </mxCell>
        <mxCell id="uWtg1xFXMjbrTKQC-qfK-150" value="我的积分" style="rounded=0;whiteSpace=wrap;html=1;fontSize=10;align=center;" parent="tWRUA2oni1lmJwNjxoYr-1" vertex="1">
          <mxGeometry x="330" y="380" width="60" height="35" as="geometry" />
        </mxCell>
        <mxCell id="uWtg1xFXMjbrTKQC-qfK-151" value="" style="edgeStyle=orthogonalEdgeStyle;rounded=0;orthogonalLoop=1;jettySize=auto;html=1;fontSize=10;fontColor=#00FF00;exitX=1;exitY=0.5;exitDx=0;exitDy=0;entryX=0;entryY=0.5;entryDx=0;entryDy=0;" parent="tWRUA2oni1lmJwNjxoYr-1" source="uWtg1xFXMjbrTKQC-qfK-70" target="uWtg1xFXMjbrTKQC-qfK-150" edge="1">
          <mxGeometry relative="1" as="geometry">
            <mxPoint x="310" y="301.5" as="sourcePoint" />
            <mxPoint x="340" y="357.5" as="targetPoint" />
            <Array as="points">
              <mxPoint x="310" y="292" />
              <mxPoint x="310" y="398" />
            </Array>
          </mxGeometry>
        </mxCell>
        <mxCell id="uWtg1xFXMjbrTKQC-qfK-163" value="" style="edgeStyle=orthogonalEdgeStyle;rounded=0;orthogonalLoop=1;jettySize=auto;html=1;fontSize=10;fontColor=#000000;" parent="tWRUA2oni1lmJwNjxoYr-1" source="uWtg1xFXMjbrTKQC-qfK-152" edge="1">
          <mxGeometry relative="1" as="geometry">
            <mxPoint x="420" y="448" as="targetPoint" />
          </mxGeometry>
        </mxCell>
        <mxCell id="uWtg1xFXMjbrTKQC-qfK-152" value="流程概述" style="rounded=0;whiteSpace=wrap;html=1;fontSize=10;align=center;" parent="tWRUA2oni1lmJwNjxoYr-1" vertex="1">
          <mxGeometry x="330" y="430" width="60" height="35" as="geometry" />
        </mxCell>
        <mxCell id="uWtg1xFXMjbrTKQC-qfK-153" value="" style="edgeStyle=orthogonalEdgeStyle;rounded=0;orthogonalLoop=1;jettySize=auto;html=1;fontSize=10;fontColor=#00FF00;exitX=1;exitY=0.5;exitDx=0;exitDy=0;entryX=0;entryY=0.5;entryDx=0;entryDy=0;" parent="tWRUA2oni1lmJwNjxoYr-1" source="uWtg1xFXMjbrTKQC-qfK-70" target="uWtg1xFXMjbrTKQC-qfK-152" edge="1">
          <mxGeometry relative="1" as="geometry">
            <mxPoint x="310" y="301.5" as="sourcePoint" />
            <mxPoint x="340" y="407.5" as="targetPoint" />
            <Array as="points">
              <mxPoint x="310" y="292" />
              <mxPoint x="310" y="448" />
            </Array>
          </mxGeometry>
        </mxCell>
        <mxCell id="uWtg1xFXMjbrTKQC-qfK-183" value="" style="edgeStyle=orthogonalEdgeStyle;rounded=0;orthogonalLoop=1;jettySize=auto;html=1;fontSize=10;fontColor=#000000;" parent="tWRUA2oni1lmJwNjxoYr-1" source="uWtg1xFXMjbrTKQC-qfK-154" target="uWtg1xFXMjbrTKQC-qfK-182" edge="1">
          <mxGeometry relative="1" as="geometry" />
        </mxCell>
        <mxCell id="uWtg1xFXMjbrTKQC-qfK-154" value="流程进度提醒" style="rounded=0;whiteSpace=wrap;html=1;fontSize=10;align=center;fillColor=#1ba1e2;strokeColor=#006EAF;fontColor=#ffffff;" parent="tWRUA2oni1lmJwNjxoYr-1" vertex="1">
          <mxGeometry x="420" y="432" width="60" height="35" as="geometry" />
        </mxCell>
        <mxCell id="uWtg1xFXMjbrTKQC-qfK-181" value="" style="edgeStyle=orthogonalEdgeStyle;rounded=0;orthogonalLoop=1;jettySize=auto;html=1;fontSize=10;fontColor=#000000;" parent="tWRUA2oni1lmJwNjxoYr-1" source="uWtg1xFXMjbrTKQC-qfK-156" edge="1">
          <mxGeometry relative="1" as="geometry">
            <mxPoint x="510" y="348" as="targetPoint" />
          </mxGeometry>
        </mxCell>
        <mxCell id="uWtg1xFXMjbrTKQC-qfK-156" value="提现进度提醒" style="rounded=0;whiteSpace=wrap;html=1;fontSize=10;align=center;fillColor=#1ba1e2;strokeColor=#006EAF;fontColor=#ffffff;" parent="tWRUA2oni1lmJwNjxoYr-1" vertex="1">
          <mxGeometry x="420" y="330" width="60" height="35" as="geometry" />
        </mxCell>
        <mxCell id="uWtg1xFXMjbrTKQC-qfK-170" value="" style="edgeStyle=orthogonalEdgeStyle;rounded=0;orthogonalLoop=1;jettySize=auto;html=1;fontSize=10;fontColor=#000000;" parent="tWRUA2oni1lmJwNjxoYr-1" source="uWtg1xFXMjbrTKQC-qfK-158" target="uWtg1xFXMjbrTKQC-qfK-169" edge="1">
          <mxGeometry relative="1" as="geometry" />
        </mxCell>
        <mxCell id="uWtg1xFXMjbrTKQC-qfK-158" value="奖励/兑换提醒" style="rounded=0;whiteSpace=wrap;html=1;fontSize=10;align=center;fillColor=#1ba1e2;strokeColor=#006EAF;fontColor=#ffffff;" parent="tWRUA2oni1lmJwNjxoYr-1" vertex="1">
          <mxGeometry x="420" y="380" width="60" height="35" as="geometry" />
        </mxCell>
        <mxCell id="uWtg1xFXMjbrTKQC-qfK-164" value="" style="edgeStyle=orthogonalEdgeStyle;rounded=0;orthogonalLoop=1;jettySize=auto;html=1;fontSize=10;fontColor=#000000;" parent="tWRUA2oni1lmJwNjxoYr-1" source="uWtg1xFXMjbrTKQC-qfK-161" target="uWtg1xFXMjbrTKQC-qfK-162" edge="1">
          <mxGeometry relative="1" as="geometry" />
        </mxCell>
        <mxCell id="uWtg1xFXMjbrTKQC-qfK-161" value="人脉概述" style="rounded=0;whiteSpace=wrap;html=1;fontSize=10;align=center;" parent="tWRUA2oni1lmJwNjxoYr-1" vertex="1">
          <mxGeometry x="330" y="480" width="60" height="35" as="geometry" />
        </mxCell>
        <mxCell id="uWtg1xFXMjbrTKQC-qfK-185" value="" style="edgeStyle=orthogonalEdgeStyle;rounded=0;orthogonalLoop=1;jettySize=auto;html=1;fontSize=10;fontColor=#000000;" parent="tWRUA2oni1lmJwNjxoYr-1" source="uWtg1xFXMjbrTKQC-qfK-162" target="uWtg1xFXMjbrTKQC-qfK-184" edge="1">
          <mxGeometry relative="1" as="geometry" />
        </mxCell>
        <mxCell id="uWtg1xFXMjbrTKQC-qfK-162" value="人脉匹配度提醒" style="rounded=0;whiteSpace=wrap;html=1;fontSize=10;align=center;fillColor=#1ba1e2;strokeColor=#006EAF;fontColor=#ffffff;" parent="tWRUA2oni1lmJwNjxoYr-1" vertex="1">
          <mxGeometry x="420" y="480" width="60" height="35" as="geometry" />
        </mxCell>
        <mxCell id="uWtg1xFXMjbrTKQC-qfK-165" value="" style="edgeStyle=orthogonalEdgeStyle;rounded=0;orthogonalLoop=1;jettySize=auto;html=1;fontSize=10;fontColor=#00FF00;exitX=1;exitY=0.5;exitDx=0;exitDy=0;entryX=0;entryY=0.5;entryDx=0;entryDy=0;" parent="tWRUA2oni1lmJwNjxoYr-1" target="uWtg1xFXMjbrTKQC-qfK-161" edge="1">
          <mxGeometry relative="1" as="geometry">
            <mxPoint x="300" y="292" as="sourcePoint" />
            <mxPoint x="330" y="448" as="targetPoint" />
            <Array as="points">
              <mxPoint x="310" y="292" />
              <mxPoint x="310" y="498" />
            </Array>
          </mxGeometry>
        </mxCell>
        <mxCell id="uWtg1xFXMjbrTKQC-qfK-166" value="人脉偏好" style="rounded=0;whiteSpace=wrap;html=1;fontSize=10;align=center;" parent="tWRUA2oni1lmJwNjxoYr-1" vertex="1">
          <mxGeometry x="510" y="274" width="60" height="35" as="geometry" />
        </mxCell>
        <mxCell id="uWtg1xFXMjbrTKQC-qfK-168" value="我的账户" style="rounded=0;whiteSpace=wrap;html=1;fontSize=10;align=center;" parent="tWRUA2oni1lmJwNjxoYr-1" vertex="1">
          <mxGeometry x="510" y="330" width="60" height="35" as="geometry" />
        </mxCell>
        <mxCell id="uWtg1xFXMjbrTKQC-qfK-169" value="积分任务" style="rounded=0;whiteSpace=wrap;html=1;fontSize=10;align=center;" parent="tWRUA2oni1lmJwNjxoYr-1" vertex="1">
          <mxGeometry x="510" y="380" width="60" height="35" as="geometry" />
        </mxCell>
        <mxCell id="uWtg1xFXMjbrTKQC-qfK-177" value="" style="edgeStyle=orthogonalEdgeStyle;rounded=0;orthogonalLoop=1;jettySize=auto;html=1;fontSize=10;fontColor=#000000;" parent="tWRUA2oni1lmJwNjxoYr-1" source="uWtg1xFXMjbrTKQC-qfK-171" target="uWtg1xFXMjbrTKQC-qfK-176" edge="1">
          <mxGeometry relative="1" as="geometry" />
        </mxCell>
        <mxCell id="uWtg1xFXMjbrTKQC-qfK-171" value="消息提醒" style="rounded=0;whiteSpace=wrap;html=1;fontSize=10;align=center;" parent="tWRUA2oni1lmJwNjxoYr-1" vertex="1">
          <mxGeometry x="142.5" y="540" width="60" height="35" as="geometry" />
        </mxCell>
        <mxCell id="uWtg1xFXMjbrTKQC-qfK-176" value="我的消息" style="rounded=0;whiteSpace=wrap;html=1;fontSize=10;align=center;" parent="tWRUA2oni1lmJwNjxoYr-1" vertex="1">
          <mxGeometry x="230" y="540" width="60" height="35" as="geometry" />
        </mxCell>
        <mxCell id="uWtg1xFXMjbrTKQC-qfK-182" value="流程" style="rounded=0;whiteSpace=wrap;html=1;fontSize=10;align=center;" parent="tWRUA2oni1lmJwNjxoYr-1" vertex="1">
          <mxGeometry x="510" y="432" width="60" height="35" as="geometry" />
        </mxCell>
        <mxCell id="uWtg1xFXMjbrTKQC-qfK-184" value="我的人脉" style="rounded=0;whiteSpace=wrap;html=1;fontSize=10;align=center;" parent="tWRUA2oni1lmJwNjxoYr-1" vertex="1">
          <mxGeometry x="510" y="480" width="60" height="35" as="geometry" />
        </mxCell>
        <mxCell id="uWtg1xFXMjbrTKQC-qfK-203" value="" style="edgeStyle=orthogonalEdgeStyle;rounded=0;orthogonalLoop=1;jettySize=auto;html=1;fontSize=10;fontColor=#000000;" parent="tWRUA2oni1lmJwNjxoYr-1" source="uWtg1xFXMjbrTKQC-qfK-186" target="uWtg1xFXMjbrTKQC-qfK-202" edge="1">
          <mxGeometry relative="1" as="geometry" />
        </mxCell>
        <mxCell id="uWtg1xFXMjbrTKQC-qfK-186" value="产品介绍/登录入口&lt;br&gt;默认同意用户协议" style="rounded=0;whiteSpace=wrap;html=1;fontSize=10;align=center;" parent="tWRUA2oni1lmJwNjxoYr-1" vertex="1">
          <mxGeometry x="142.5" y="600" width="107.5" height="35" as="geometry" />
        </mxCell>
        <mxCell id="uWtg1xFXMjbrTKQC-qfK-192" value="" style="edgeStyle=orthogonalEdgeStyle;rounded=0;orthogonalLoop=1;jettySize=auto;html=1;fontSize=10;fontColor=#000000;" parent="tWRUA2oni1lmJwNjxoYr-1" source="uWtg1xFXMjbrTKQC-qfK-188" target="uWtg1xFXMjbrTKQC-qfK-191" edge="1">
          <mxGeometry relative="1" as="geometry" />
        </mxCell>
        <mxCell id="uWtg1xFXMjbrTKQC-qfK-188" value="岗位详情" style="rounded=0;whiteSpace=wrap;html=1;fontSize=10;align=center;" parent="tWRUA2oni1lmJwNjxoYr-1" vertex="1">
          <mxGeometry x="142.5" y="685" width="57.5" height="35" as="geometry" />
        </mxCell>
        <mxCell id="uWtg1xFXMjbrTKQC-qfK-194" value="" style="edgeStyle=orthogonalEdgeStyle;rounded=0;orthogonalLoop=1;jettySize=auto;html=1;fontSize=10;fontColor=#000000;entryX=0;entryY=0.5;entryDx=0;entryDy=0;" parent="tWRUA2oni1lmJwNjxoYr-1" source="uWtg1xFXMjbrTKQC-qfK-191" target="uWtg1xFXMjbrTKQC-qfK-206" edge="1">
          <mxGeometry relative="1" as="geometry">
            <Array as="points">
              <mxPoint x="300" y="703" />
              <mxPoint x="300" y="758" />
            </Array>
          </mxGeometry>
        </mxCell>
        <mxCell id="uWtg1xFXMjbrTKQC-qfK-207" value="" style="edgeStyle=orthogonalEdgeStyle;rounded=0;orthogonalLoop=1;jettySize=auto;html=1;fontSize=10;fontColor=#000000;entryX=0;entryY=0.5;entryDx=0;entryDy=0;" parent="tWRUA2oni1lmJwNjxoYr-1" source="uWtg1xFXMjbrTKQC-qfK-191" target="uWtg1xFXMjbrTKQC-qfK-193" edge="1">
          <mxGeometry relative="1" as="geometry" />
        </mxCell>
        <mxCell id="uWtg1xFXMjbrTKQC-qfK-191" value="产品介绍&lt;br&gt;安全保密" style="rounded=0;whiteSpace=wrap;html=1;fontSize=10;align=center;" parent="tWRUA2oni1lmJwNjxoYr-1" vertex="1">
          <mxGeometry x="230" y="685" width="57.5" height="35" as="geometry" />
        </mxCell>
        <mxCell id="uWtg1xFXMjbrTKQC-qfK-205" value="" style="edgeStyle=orthogonalEdgeStyle;rounded=0;orthogonalLoop=1;jettySize=auto;html=1;fontSize=10;fontColor=#000000;entryX=0;entryY=0.5;entryDx=0;entryDy=0;" parent="tWRUA2oni1lmJwNjxoYr-1" source="uWtg1xFXMjbrTKQC-qfK-193" target="uWtg1xFXMjbrTKQC-qfK-208" edge="1">
          <mxGeometry relative="1" as="geometry">
            <Array as="points">
              <mxPoint x="390" y="703" />
              <mxPoint x="390" y="653" />
            </Array>
          </mxGeometry>
        </mxCell>
        <mxCell id="uWtg1xFXMjbrTKQC-qfK-211" value="" style="edgeStyle=orthogonalEdgeStyle;rounded=0;orthogonalLoop=1;jettySize=auto;html=1;fontSize=10;fontColor=#000000;entryX=0;entryY=0.5;entryDx=0;entryDy=0;" parent="tWRUA2oni1lmJwNjxoYr-1" source="uWtg1xFXMjbrTKQC-qfK-193" target="uWtg1xFXMjbrTKQC-qfK-204" edge="1">
          <mxGeometry relative="1" as="geometry" />
        </mxCell>
        <mxCell id="uWtg1xFXMjbrTKQC-qfK-193" value="我要应聘" style="rounded=0;whiteSpace=wrap;html=1;fontSize=10;align=center;" parent="tWRUA2oni1lmJwNjxoYr-1" vertex="1">
          <mxGeometry x="320" y="685" width="57.5" height="35" as="geometry" />
        </mxCell>
        <mxCell id="uWtg1xFXMjbrTKQC-qfK-197" value="" style="edgeStyle=orthogonalEdgeStyle;rounded=0;orthogonalLoop=1;jettySize=auto;html=1;fontSize=10;fontColor=#000000;" parent="tWRUA2oni1lmJwNjxoYr-1" source="uWtg1xFXMjbrTKQC-qfK-195" target="uWtg1xFXMjbrTKQC-qfK-196" edge="1">
          <mxGeometry relative="1" as="geometry" />
        </mxCell>
        <mxCell id="uWtg1xFXMjbrTKQC-qfK-195" value="好友概述" style="rounded=0;whiteSpace=wrap;html=1;fontSize=10;align=center;" parent="tWRUA2oni1lmJwNjxoYr-1" vertex="1">
          <mxGeometry x="330" y="530" width="60" height="35" as="geometry" />
        </mxCell>
        <mxCell id="uWtg1xFXMjbrTKQC-qfK-201" value="" style="edgeStyle=orthogonalEdgeStyle;rounded=0;orthogonalLoop=1;jettySize=auto;html=1;fontSize=10;fontColor=#000000;" parent="tWRUA2oni1lmJwNjxoYr-1" source="uWtg1xFXMjbrTKQC-qfK-196" target="uWtg1xFXMjbrTKQC-qfK-200" edge="1">
          <mxGeometry relative="1" as="geometry" />
        </mxCell>
        <mxCell id="uWtg1xFXMjbrTKQC-qfK-196" value="人脉匹配度提醒" style="rounded=0;whiteSpace=wrap;html=1;fontSize=10;align=center;fillColor=#1ba1e2;strokeColor=#006EAF;fontColor=#ffffff;" parent="tWRUA2oni1lmJwNjxoYr-1" vertex="1">
          <mxGeometry x="420" y="530" width="60" height="35" as="geometry" />
        </mxCell>
        <mxCell id="uWtg1xFXMjbrTKQC-qfK-198" value="" style="edgeStyle=orthogonalEdgeStyle;rounded=0;orthogonalLoop=1;jettySize=auto;html=1;fontSize=10;fontColor=#00FF00;exitX=1;exitY=0.5;exitDx=0;exitDy=0;entryX=0;entryY=0.5;entryDx=0;entryDy=0;" parent="tWRUA2oni1lmJwNjxoYr-1" source="uWtg1xFXMjbrTKQC-qfK-70" target="uWtg1xFXMjbrTKQC-qfK-195" edge="1">
          <mxGeometry relative="1" as="geometry">
            <mxPoint x="310" y="302" as="sourcePoint" />
            <mxPoint x="340" y="507.5" as="targetPoint" />
            <Array as="points">
              <mxPoint x="300" y="302" />
              <mxPoint x="310" y="302" />
              <mxPoint x="310" y="548" />
            </Array>
          </mxGeometry>
        </mxCell>
        <mxCell id="uWtg1xFXMjbrTKQC-qfK-200" value="我的好友" style="rounded=0;whiteSpace=wrap;html=1;fontSize=10;align=center;" parent="tWRUA2oni1lmJwNjxoYr-1" vertex="1">
          <mxGeometry x="510" y="530" width="60" height="35" as="geometry" />
        </mxCell>
        <mxCell id="uWtg1xFXMjbrTKQC-qfK-202" value="新用户注册流程" style="rounded=0;whiteSpace=wrap;html=1;fontSize=10;align=center;fillColor=#1ba1e2;strokeColor=#006EAF;fontColor=#ffffff;" parent="tWRUA2oni1lmJwNjxoYr-1" vertex="1">
          <mxGeometry x="282.5" y="600" width="107.5" height="35" as="geometry" />
        </mxCell>
        <mxCell id="uWtg1xFXMjbrTKQC-qfK-215" value="" style="edgeStyle=orthogonalEdgeStyle;rounded=0;orthogonalLoop=1;jettySize=auto;html=1;fontSize=10;fontColor=#000000;" parent="tWRUA2oni1lmJwNjxoYr-1" source="uWtg1xFXMjbrTKQC-qfK-204" target="uWtg1xFXMjbrTKQC-qfK-214" edge="1">
          <mxGeometry relative="1" as="geometry" />
        </mxCell>
        <mxCell id="uWtg1xFXMjbrTKQC-qfK-204" value="&lt;span style=&quot;color: rgb(255 , 255 , 255)&quot;&gt;登录&lt;/span&gt;&lt;br style=&quot;color: rgb(255 , 255 , 255)&quot;&gt;&lt;span style=&quot;color: rgb(255 , 255 , 255)&quot;&gt;获取手机&lt;/span&gt;" style="rounded=0;whiteSpace=wrap;html=1;fontSize=10;align=center;fillColor=#60a917;strokeColor=#2D7600;fontColor=#ffffff;" parent="tWRUA2oni1lmJwNjxoYr-1" vertex="1">
          <mxGeometry x="410" y="685" width="57.5" height="35" as="geometry" />
        </mxCell>
        <mxCell id="uWtg1xFXMjbrTKQC-qfK-206" value="成为保荐人？" style="rounded=0;whiteSpace=wrap;html=1;fontSize=10;align=center;fillColor=#e51400;strokeColor=#B20000;fontColor=#ffffff;" parent="tWRUA2oni1lmJwNjxoYr-1" vertex="1">
          <mxGeometry x="320" y="740" width="57.5" height="35" as="geometry" />
        </mxCell>
        <mxCell id="uWtg1xFXMjbrTKQC-qfK-213" value="" style="edgeStyle=orthogonalEdgeStyle;rounded=0;orthogonalLoop=1;jettySize=auto;html=1;fontSize=10;fontColor=#000000;" parent="tWRUA2oni1lmJwNjxoYr-1" source="uWtg1xFXMjbrTKQC-qfK-208" target="uWtg1xFXMjbrTKQC-qfK-212" edge="1">
          <mxGeometry relative="1" as="geometry" />
        </mxCell>
        <mxCell id="uWtg1xFXMjbrTKQC-qfK-208" value="联系方式&lt;br&gt;+简历附件" style="rounded=0;whiteSpace=wrap;html=1;fontSize=10;align=center;" parent="tWRUA2oni1lmJwNjxoYr-1" vertex="1">
          <mxGeometry x="410" y="635" width="57.5" height="35" as="geometry" />
        </mxCell>
        <mxCell id="uWtg1xFXMjbrTKQC-qfK-212" value="成为分享者的人脉" style="rounded=0;whiteSpace=wrap;html=1;fontSize=10;align=center;" parent="tWRUA2oni1lmJwNjxoYr-1" vertex="1">
          <mxGeometry x="500" y="635" width="57.5" height="35" as="geometry" />
        </mxCell>
        <mxCell id="uWtg1xFXMjbrTKQC-qfK-217" value="" style="edgeStyle=orthogonalEdgeStyle;rounded=0;orthogonalLoop=1;jettySize=auto;html=1;fontSize=10;fontColor=#000000;" parent="tWRUA2oni1lmJwNjxoYr-1" source="uWtg1xFXMjbrTKQC-qfK-214" target="uWtg1xFXMjbrTKQC-qfK-216" edge="1">
          <mxGeometry relative="1" as="geometry" />
        </mxCell>
        <mxCell id="uWtg1xFXMjbrTKQC-qfK-214" value="联系方式&lt;br&gt;+简历附件" style="rounded=0;whiteSpace=wrap;html=1;fontSize=10;align=center;" parent="tWRUA2oni1lmJwNjxoYr-1" vertex="1">
          <mxGeometry x="500" y="685" width="57.5" height="35" as="geometry" />
        </mxCell>
        <mxCell id="uWtg1xFXMjbrTKQC-qfK-219" value="" style="edgeStyle=orthogonalEdgeStyle;rounded=0;orthogonalLoop=1;jettySize=auto;html=1;fontSize=10;fontColor=#000000;" parent="tWRUA2oni1lmJwNjxoYr-1" source="uWtg1xFXMjbrTKQC-qfK-216" target="uWtg1xFXMjbrTKQC-qfK-218" edge="1">
          <mxGeometry relative="1" as="geometry" />
        </mxCell>
        <mxCell id="uWtg1xFXMjbrTKQC-qfK-216" value="进度提醒/&lt;br&gt;最新岗位" style="rounded=0;whiteSpace=wrap;html=1;fontSize=10;align=center;" parent="tWRUA2oni1lmJwNjxoYr-1" vertex="1">
          <mxGeometry x="592.5" y="685" width="57.5" height="35" as="geometry" />
        </mxCell>
        <mxCell id="uWtg1xFXMjbrTKQC-qfK-218" value="人脉端账号" style="rounded=0;whiteSpace=wrap;html=1;fontSize=10;align=center;fillColor=#1ba1e2;strokeColor=#006EAF;fontColor=#ffffff;" parent="tWRUA2oni1lmJwNjxoYr-1" vertex="1">
          <mxGeometry x="680" y="685" width="57.5" height="35" as="geometry" />
        </mxCell>
        <mxCell id="cpviChFCWjqelvAmcR1w-1" value="" style="endArrow=classic;html=1;exitX=1;exitY=0.5;exitDx=0;exitDy=0;entryX=0;entryY=0.5;entryDx=0;entryDy=0;" edge="1" parent="tWRUA2oni1lmJwNjxoYr-1" source="uWtg1xFXMjbrTKQC-qfK-14" target="tWRUA2oni1lmJwNjxoYr-4">
          <mxGeometry width="50" height="50" relative="1" as="geometry">
            <mxPoint x="370" y="180" as="sourcePoint" />
            <mxPoint x="420" y="130" as="targetPoint" />
          </mxGeometry>
        </mxCell>
        <mxCell id="cpviChFCWjqelvAmcR1w-6" value="注册即默认协议" style="rounded=0;whiteSpace=wrap;html=1;fontSize=10;align=center;fillColor=#60a917;strokeColor=#2D7600;fontColor=#ffffff;" vertex="1" parent="tWRUA2oni1lmJwNjxoYr-1">
          <mxGeometry x="420" y="95" width="80" height="35" as="geometry" />
        </mxCell>
        <mxCell id="cpviChFCWjqelvAmcR1w-7" value="" style="endArrow=classic;html=1;exitX=0.5;exitY=0;exitDx=0;exitDy=0;" edge="1" parent="tWRUA2oni1lmJwNjxoYr-1" source="tWRUA2oni1lmJwNjxoYr-4">
          <mxGeometry width="50" height="50" relative="1" as="geometry">
            <mxPoint x="430" y="181.25" as="sourcePoint" />
            <mxPoint x="460" y="131" as="targetPoint" />
          </mxGeometry>
        </mxCell>
        <mxCell id="cpviChFCWjqelvAmcR1w-12" value="" style="endArrow=classic;html=1;exitX=0;exitY=0;exitDx=0;exitDy=0;entryX=0.687;entryY=1.056;entryDx=0;entryDy=0;entryPerimeter=0;" edge="1" parent="tWRUA2oni1lmJwNjxoYr-1" source="cpviChFCWjqelvAmcR1w-14">
          <mxGeometry width="50" height="50" relative="1" as="geometry">
            <mxPoint x="860" y="140" as="sourcePoint" />
            <mxPoint x="889.8299999999999" y="112.38999999999987" as="targetPoint" />
          </mxGeometry>
        </mxCell>
        <mxCell id="cpviChFCWjqelvAmcR1w-13" value="完善人脉偏好&lt;br&gt;首次+积分" style="rounded=0;whiteSpace=wrap;html=1;fontSize=10;align=center;" vertex="1" parent="tWRUA2oni1lmJwNjxoYr-1">
          <mxGeometry x="770" y="140" width="90" height="35" as="geometry" />
        </mxCell>
        <mxCell id="cpviChFCWjqelvAmcR1w-14" value="首页" style="rounded=0;whiteSpace=wrap;html=1;fontSize=10;align=center;" vertex="1" parent="tWRUA2oni1lmJwNjxoYr-1">
          <mxGeometry x="890" y="139.87" width="90" height="45" as="geometry" />
        </mxCell>
        <mxCell id="cpviChFCWjqelvAmcR1w-17" value="是" style="edgeStyle=orthogonalEdgeStyle;rounded=0;orthogonalLoop=1;jettySize=auto;html=1;fontSize=10;exitX=0.5;exitY=0;exitDx=0;exitDy=0;entryX=0.671;entryY=-0.024;entryDx=0;entryDy=0;entryPerimeter=0;" edge="1" parent="tWRUA2oni1lmJwNjxoYr-1" source="uWtg1xFXMjbrTKQC-qfK-7" target="cpviChFCWjqelvAmcR1w-14">
          <mxGeometry relative="1" as="geometry">
            <mxPoint x="620" y="172.5050000000001" as="sourcePoint" />
            <mxPoint x="950" y="20" as="targetPoint" />
            <Array as="points">
              <mxPoint x="570" y="20" />
              <mxPoint x="950" y="20" />
            </Array>
          </mxGeometry>
        </mxCell>
        <mxCell id="cpviChFCWjqelvAmcR1w-20" value="" style="endArrow=classic;html=1;exitX=1;exitY=0;exitDx=0;exitDy=0;entryX=0.25;entryY=1;entryDx=0;entryDy=0;" edge="1" parent="tWRUA2oni1lmJwNjxoYr-1" source="cpviChFCWjqelvAmcR1w-14" target="cpviChFCWjqelvAmcR1w-36">
          <mxGeometry width="50" height="50" relative="1" as="geometry">
            <mxPoint x="900" y="149.8699999999999" as="sourcePoint" />
            <mxPoint x="898.8299999999999" y="122.38999999999987" as="targetPoint" />
          </mxGeometry>
        </mxCell>
        <mxCell id="cpviChFCWjqelvAmcR1w-21" value="人脉行业" style="rounded=0;whiteSpace=wrap;html=1;fontSize=10;align=center;" vertex="1" parent="tWRUA2oni1lmJwNjxoYr-1">
          <mxGeometry x="920" y="380" width="90" height="35" as="geometry" />
        </mxCell>
        <mxCell id="cpviChFCWjqelvAmcR1w-22" value="人脉职业" style="rounded=0;whiteSpace=wrap;html=1;fontSize=10;align=center;" vertex="1" parent="tWRUA2oni1lmJwNjxoYr-1">
          <mxGeometry x="922" y="436" width="90" height="35" as="geometry" />
        </mxCell>
        <mxCell id="cpviChFCWjqelvAmcR1w-23" value="简要概括人脉" style="rounded=0;whiteSpace=wrap;html=1;fontSize=10;align=center;" vertex="1" parent="tWRUA2oni1lmJwNjxoYr-1">
          <mxGeometry x="922" y="495" width="90" height="35" as="geometry" />
        </mxCell>
        <mxCell id="cpviChFCWjqelvAmcR1w-24" value="个人信息&lt;br&gt;（姓名，性别，职业，年龄范围）" style="rounded=0;whiteSpace=wrap;html=1;fontSize=10;align=center;" vertex="1" parent="tWRUA2oni1lmJwNjxoYr-1">
          <mxGeometry x="780" y="380" width="90" height="70" as="geometry" />
        </mxCell>
        <mxCell id="cpviChFCWjqelvAmcR1w-25" value="&lt;div style=&quot;text-align: left&quot;&gt;&lt;span style=&quot;color: rgb(204 , 0 , 0)&quot;&gt;提示：&lt;/span&gt;&lt;/div&gt;&lt;font color=&quot;#cc0000&quot;&gt;（1）我们将会对您的人脉信息进行保密&lt;br&gt;&lt;div style=&quot;text-align: left&quot;&gt;&lt;span&gt;（2）多选明显一点&lt;/span&gt;&lt;/div&gt;&lt;/font&gt;" style="rounded=0;whiteSpace=wrap;html=1;fontSize=10;align=center;fillColor=#e1d5e7;strokeColor=#9673a6;" vertex="1" parent="tWRUA2oni1lmJwNjxoYr-1">
          <mxGeometry x="900" y="319.25" width="150" height="56.5" as="geometry" />
        </mxCell>
        <mxCell id="cpviChFCWjqelvAmcR1w-26" value="&lt;div style=&quot;text-align: left&quot;&gt;&lt;span style=&quot;color: rgb(204 , 0 , 0)&quot;&gt;提示：&lt;/span&gt;&lt;/div&gt;&lt;font color=&quot;#cc0000&quot;&gt;（1）我们将会对您的个人信息进行保密&lt;br&gt;&lt;/font&gt;" style="rounded=0;whiteSpace=wrap;html=1;fontSize=10;align=center;fillColor=#e1d5e7;strokeColor=#9673a6;" vertex="1" parent="tWRUA2oni1lmJwNjxoYr-1">
          <mxGeometry x="740" y="458.5" width="150" height="56.5" as="geometry" />
        </mxCell>
        <mxCell id="cpviChFCWjqelvAmcR1w-27" value="" style="endArrow=classic;html=1;exitX=0.609;exitY=0.994;exitDx=0;exitDy=0;exitPerimeter=0;" edge="1" parent="tWRUA2oni1lmJwNjxoYr-1" source="cpviChFCWjqelvAmcR1w-13">
          <mxGeometry width="50" height="50" relative="1" as="geometry">
            <mxPoint x="580" y="300" as="sourcePoint" />
            <mxPoint x="825" y="376" as="targetPoint" />
          </mxGeometry>
        </mxCell>
        <mxCell id="cpviChFCWjqelvAmcR1w-30" value="" style="endArrow=classic;html=1;entryX=0;entryY=0.5;entryDx=0;entryDy=0;" edge="1" parent="tWRUA2oni1lmJwNjxoYr-1" target="cpviChFCWjqelvAmcR1w-21">
          <mxGeometry width="50" height="50" relative="1" as="geometry">
            <mxPoint x="870" y="398" as="sourcePoint" />
            <mxPoint x="920" y="398" as="targetPoint" />
          </mxGeometry>
        </mxCell>
        <mxCell id="cpviChFCWjqelvAmcR1w-32" value="" style="endArrow=none;html=1;" edge="1" parent="tWRUA2oni1lmJwNjxoYr-1">
          <mxGeometry width="50" height="50" relative="1" as="geometry">
            <mxPoint x="900" y="520" as="sourcePoint" />
            <mxPoint x="900" y="397" as="targetPoint" />
          </mxGeometry>
        </mxCell>
        <mxCell id="cpviChFCWjqelvAmcR1w-33" value="" style="endArrow=classic;html=1;" edge="1" parent="tWRUA2oni1lmJwNjxoYr-1">
          <mxGeometry width="50" height="50" relative="1" as="geometry">
            <mxPoint x="900" y="460" as="sourcePoint" />
            <mxPoint x="920" y="460" as="targetPoint" />
          </mxGeometry>
        </mxCell>
        <mxCell id="cpviChFCWjqelvAmcR1w-34" value="" style="endArrow=classic;html=1;entryX=0;entryY=0.714;entryDx=0;entryDy=0;entryPerimeter=0;" edge="1" parent="tWRUA2oni1lmJwNjxoYr-1" target="cpviChFCWjqelvAmcR1w-23">
          <mxGeometry width="50" height="50" relative="1" as="geometry">
            <mxPoint x="900" y="520" as="sourcePoint" />
            <mxPoint x="930" y="470" as="targetPoint" />
          </mxGeometry>
        </mxCell>
        <mxCell id="cpviChFCWjqelvAmcR1w-35" value="1 功能引导教程&lt;br&gt;（自动）完成录入人脉（可跳）" style="rounded=0;whiteSpace=wrap;html=1;fontSize=10;align=center;" vertex="1" parent="tWRUA2oni1lmJwNjxoYr-1">
          <mxGeometry x="840" y="66.87" width="90" height="45" as="geometry" />
        </mxCell>
        <mxCell id="cpviChFCWjqelvAmcR1w-36" value="2活动弹窗" style="rounded=0;whiteSpace=wrap;html=1;fontSize=10;align=center;" vertex="1" parent="tWRUA2oni1lmJwNjxoYr-1">
          <mxGeometry x="957" y="10.000000000000007" width="90" height="45" as="geometry" />
        </mxCell>
        <mxCell id="_0xuz5VytdvUOzdGs54Q-1" value="" style="endArrow=classic;html=1;exitX=0.5;exitY=1;exitDx=0;exitDy=0;" edge="1" parent="tWRUA2oni1lmJwNjxoYr-1" source="cpviChFCWjqelvAmcR1w-14" target="uWtg1xFXMjbrTKQC-qfK-60">
          <mxGeometry width="50" height="50" relative="1" as="geometry">
            <mxPoint x="1120" y="200" as="sourcePoint" />
            <mxPoint x="1170" y="150" as="targetPoint" />
            <Array as="points">
              <mxPoint x="935" y="220" />
            </Array>
          </mxGeometry>
        </mxCell>
        <mxCell id="_0xuz5VytdvUOzdGs54Q-7" value="解析简历详情" style="rounded=0;whiteSpace=wrap;html=1;fontSize=10;align=center;fillColor=#1ba1e2;strokeColor=#006EAF;fontColor=#ffffff;" vertex="1" parent="tWRUA2oni1lmJwNjxoYr-1">
          <mxGeometry x="1630" y="345" width="60" height="35" as="geometry" />
        </mxCell>
        <mxCell id="_0xuz5VytdvUOzdGs54Q-8" value="和已有人脉匹配度" style="rounded=0;whiteSpace=wrap;html=1;fontSize=10;align=center;fillColor=#1ba1e2;strokeColor=#006EAF;fontColor=#ffffff;" vertex="1" parent="tWRUA2oni1lmJwNjxoYr-1">
          <mxGeometry x="1359" y="61.25000000000001" width="60" height="35" as="geometry" />
        </mxCell>
        <mxCell id="_0xuz5VytdvUOzdGs54Q-9" value="消息框自动回复职位详情+猎头顾问对话" style="rounded=0;whiteSpace=wrap;html=1;fontSize=10;align=center;" vertex="1" parent="tWRUA2oni1lmJwNjxoYr-1">
          <mxGeometry x="1690" y="284.25" width="120" height="35" as="geometry" />
        </mxCell>
        <mxCell id="_0xuz5VytdvUOzdGs54Q-22" style="edgeStyle=orthogonalEdgeStyle;rounded=0;orthogonalLoop=1;jettySize=auto;html=1;entryX=0;entryY=0.5;entryDx=0;entryDy=0;" edge="1" parent="tWRUA2oni1lmJwNjxoYr-1" source="_0xuz5VytdvUOzdGs54Q-17" target="_0xuz5VytdvUOzdGs54Q-21">
          <mxGeometry relative="1" as="geometry" />
        </mxCell>
        <mxCell id="_0xuz5VytdvUOzdGs54Q-17" value="录入个人信息，简历（可选）" style="rounded=0;whiteSpace=wrap;html=1;fontSize=10;align=center;fillColor=#fff2cc;strokeColor=#d6b656;" vertex="1" parent="tWRUA2oni1lmJwNjxoYr-1">
          <mxGeometry x="1529" y="397.5" width="90" height="35" as="geometry" />
        </mxCell>
        <mxCell id="_0xuz5VytdvUOzdGs54Q-19" value="" style="endArrow=none;html=1;" edge="1" parent="tWRUA2oni1lmJwNjxoYr-1">
          <mxGeometry width="50" height="50" relative="1" as="geometry">
            <mxPoint x="1430" y="414" as="sourcePoint" />
            <mxPoint x="1430" y="364" as="targetPoint" />
            <Array as="points">
              <mxPoint x="1430" y="394" />
            </Array>
          </mxGeometry>
        </mxCell>
        <mxCell id="_0xuz5VytdvUOzdGs54Q-20" value="" style="endArrow=none;html=1;exitX=1;exitY=0.5;exitDx=0;exitDy=0;" edge="1" parent="tWRUA2oni1lmJwNjxoYr-1" source="uWtg1xFXMjbrTKQC-qfK-100">
          <mxGeometry width="50" height="50" relative="1" as="geometry">
            <mxPoint x="1460" y="330" as="sourcePoint" />
            <mxPoint x="1430" y="363" as="targetPoint" />
          </mxGeometry>
        </mxCell>
        <mxCell id="_0xuz5VytdvUOzdGs54Q-29" style="edgeStyle=orthogonalEdgeStyle;rounded=0;orthogonalLoop=1;jettySize=auto;html=1;exitX=1;exitY=0.5;exitDx=0;exitDy=0;" edge="1" parent="tWRUA2oni1lmJwNjxoYr-1" source="_0xuz5VytdvUOzdGs54Q-21">
          <mxGeometry relative="1" as="geometry">
            <mxPoint x="1750" y="320" as="targetPoint" />
            <Array as="points">
              <mxPoint x="1750" y="415" />
            </Array>
          </mxGeometry>
        </mxCell>
        <mxCell id="_0xuz5VytdvUOzdGs54Q-21" value="候选人简历绑定到保荐人人脉" style="rounded=0;whiteSpace=wrap;html=1;fontSize=10;align=center;fillColor=#1ba1e2;strokeColor=#006EAF;fontColor=#ffffff;" vertex="1" parent="tWRUA2oni1lmJwNjxoYr-1">
          <mxGeometry x="1642" y="397.5" width="90" height="35" as="geometry" />
        </mxCell>
        <mxCell id="_0xuz5VytdvUOzdGs54Q-26" style="edgeStyle=orthogonalEdgeStyle;rounded=0;orthogonalLoop=1;jettySize=auto;html=1;exitX=1;exitY=0.5;exitDx=0;exitDy=0;entryX=0;entryY=0.5;entryDx=0;entryDy=0;" edge="1" parent="tWRUA2oni1lmJwNjxoYr-1" source="_0xuz5VytdvUOzdGs54Q-24" target="_0xuz5VytdvUOzdGs54Q-17">
          <mxGeometry relative="1" as="geometry" />
        </mxCell>
        <mxCell id="_0xuz5VytdvUOzdGs54Q-24" value="打开职位详情页" style="rounded=0;whiteSpace=wrap;html=1;fontSize=10;align=center;fillColor=#fff2cc;strokeColor=#d6b656;" vertex="1" parent="tWRUA2oni1lmJwNjxoYr-1">
          <mxGeometry x="1451" y="397.5" width="52" height="35" as="geometry" />
        </mxCell>
      </root>
    </mxGraphModel>
  </diagram>
</mxfile>
